<?xml version="1.0" standalone="no"?>
<!DOCTYPE svg PUBLIC "-//W3C//DTD SVG 1.1//EN" "http://www.w3.org/Graphics/SVG/1.1/DTD/svg11.dtd" >
<svg xmlns="http://www.w3.org/2000/svg" xmlns:xlink="http://www.w3.org/1999/xlink" version="1.1">
<metadata>
Created by FontForge 20170731 at Wed May  9 03:42:01 2012
 By Aleksey,,,
(c) 1998-2012 Typodermic Fonts Inc. See attached license agreement. If agreement is missing visit typodermicfonts.com for more info.
</metadata>
<defs>
<font id="EarwigFactory-Regular" horiz-adv-x="681" >
  <font-face 
    font-family="Earwig Factory"
    font-weight="400"
    font-stretch="normal"
    units-per-em="1000"
    panose-1="4 11 0 0 1 1 6 0 1 0"
    ascent="800"
    descent="-200"
    x-height="406"
    cap-height="697"
    bbox="-158 -280 964 920"
    underline-thickness="20"
    underline-position="-163"
    unicode-range="U+0017-E0E9"
  />
<missing-glyph horiz-adv-x="643" 
d="M170 39l29 108l118 -32l-29 -108zM215 196q11 42 28 72.5t53 47.5q15 7 32.5 13t32.5 15.5t25 25t10 41.5q0 16 -7.5 27.5t-18.5 19t-24.5 11t-26.5 3.5q-26 0 -39 -16.5t-23 -44.5l-112 30q17 63 57.5 96t100.5 33q32 0 70 -9t70.5 -28.5t54 -49t21.5 -69.5
q0 -36 -8.5 -61.5t-24 -43.5t-37 -30.5t-47.5 -21.5q-22 -8 -36 -17.5t-22 -20.5t-13 -24t-9 -28zM129 -200q-97 0 -97 84v788q0 85 97 85h393q98 0 98 -85v-788q0 -84 -98 -84h-393zM568 672q0 39 -46 39h-393q-46 0 -46 -39v-788q0 -39 46 -39h393q46 0 46 39v788z" />
    <glyph glyph-name="copyright" unicode="&#x28;C&#x29;" horiz-adv-x="947" 
d="M365 770q-56 -16 -96 -31.5t-65.5 -36t-38 -47t-12.5 -65.5q0 -37 11.5 -87.5t33.5 -119.5q24 -74 46 -125.5t46 -83.5t53.5 -46.5t68.5 -14.5q30 0 65 7.5t80 20.5q59 16 101 31.5t69 35t39.5 45.5t12.5 64t-12 90.5t-36 127.5t-45 126.5t-44 82.5t-50 44.5t-64 13.5
q-31 0 -71 -8.5t-92 -23.5zM386 705q75 22 124 22q33 0 55 -12t39 -38t31.5 -66.5t32.5 -96.5q20 -63 31.5 -105.5t11.5 -72.5q0 -24 -8.5 -42t-28.5 -32.5t-52 -26.5t-78 -25q-42 -12 -74 -18.5t-56 -6.5q-32 0 -53.5 12t-37.5 37.5t-30 66t-32 98.5q-20 63 -32 106.5
t-12 73.5q0 25 9 42.5t29 31.5t52 26t79 26zM17 729l680 191l234 -732l-695 -195zM564 417q-4 -46 -25.5 -65.5t-56.5 -19.5q-21 0 -39 11.5t-31.5 31t-21.5 45t-8 53.5q0 18 4.5 35.5t14 31.5t25 22.5t36.5 8.5q35 0 61 -42l42 24q-17 32 -44.5 50t-59.5 18
q-29 0 -52.5 -11t-41 -30.5t-27 -46t-9.5 -57.5q0 -39 11 -74.5t31 -62.5t47.5 -42.5t60.5 -15.5q61 0 93 35t34 99z" />
    <glyph glyph-name="registered" unicode="&#x28;R&#x29;" horiz-adv-x="557" 
d="M243 602q16 3 30 4t26 1q29 0 47 -8.5t29.5 -28t18 -50t12.5 -74.5q4 -31 6.5 -54.5t2.5 -42.5q0 -26 -9 -45.5t-31 -32t-59 -18.5t-92 -6q-27 0 -42.5 7.5t-25.5 26t-16 49.5t-13 78q-5 32 -8 58t-3 46q0 24 6 38.5t20 24t38.5 15.5t62.5 12zM236 649
q-45 -6 -76.5 -14.5t-51 -23.5t-28 -40t-8.5 -64t9 -105q8 -60 18 -99t26 -62.5t38.5 -32.5t56.5 -9q16 0 36 1.5t43 5.5q46 7 77.5 15.5t50.5 23t27 37t8 58.5q0 22 -2.5 51t-7.5 64q-8 59 -17.5 98t-23.5 62t-36 32.5t-55 9.5q-17 0 -38 -2t-46 -6zM230 513l35 4
q22 0 22 -34q0 -21 -19 -22l-30 -3zM245 410l18 2l44 -106l48 6l-53 111q12 8 19.5 19.5t7.5 34.5q0 42 -15.5 65t-46.5 23q-5 0 -11.5 -0.5t-12.5 -1.5l-66 -9l37 -262l46 7zM-47 703l556 78l86 -626l-555 -78z" />
    <glyph glyph-name="uni2117" unicode="&#x28;P&#x29;" horiz-adv-x="519" 
d="M235 329l3 59l43 -2q15 -1 22.5 -9t7.5 -19q0 -14 -7.5 -23t-24.5 -8zM230 211l3 75l48 -2q32 -2 53 16.5t21 51.5q0 32 -17 53.5t-51 23.5l-97 4l-9 -220zM250 132q-34 1 -63.5 15.5t-51.5 38.5t-34.5 56.5t-12.5 70.5q0 42 13.5 77t37 59.5t54.5 38.5t67 14
q35 0 66 -13.5t54.5 -37.5t37 -58t13.5 -75q0 -44 -14.5 -78.5t-39.5 -58.5t-58 -36.5t-69 -12.5zM248 82q47 0 88.5 16t73 46.5t49.5 74.5t18 101q0 52 -17 94.5t-46.5 73t-69 47.5t-85.5 17q-45 0 -85 -17t-70 -48t-47.5 -75.5t-17.5 -99.5q0 -51 16.5 -92.5t44.5 -71.5
t66 -47t82 -19zM25 588l491 -21l-24 -543l-491 21z" />
    <glyph glyph-name=".notdef" horiz-adv-x="643" 
d="M170 39l29 108l118 -32l-29 -108zM215 196q11 42 28 72.5t53 47.5q15 7 32.5 13t32.5 15.5t25 25t10 41.5q0 16 -7.5 27.5t-18.5 19t-24.5 11t-26.5 3.5q-26 0 -39 -16.5t-23 -44.5l-112 30q17 63 57.5 96t100.5 33q32 0 70 -9t70.5 -28.5t54 -49t21.5 -69.5
q0 -36 -8.5 -61.5t-24 -43.5t-37 -30.5t-47.5 -21.5q-22 -8 -36 -17.5t-22 -20.5t-13 -24t-9 -28zM129 -200q-97 0 -97 84v788q0 85 97 85h393q98 0 98 -85v-788q0 -84 -98 -84h-393zM568 672q0 39 -46 39h-393q-46 0 -46 -39v-788q0 -39 46 -39h393q46 0 46 39v788z" />
    <glyph glyph-name=".null" horiz-adv-x="0" 
 />
    <glyph glyph-name="nonmarkingreturn" horiz-adv-x="431" 
 />
    <glyph glyph-name="uni0017" horiz-adv-x="431" 
 />
    <glyph glyph-name="space" unicode=" " horiz-adv-x="431" 
 />
    <glyph glyph-name="exclam" unicode="!" horiz-adv-x="412" 
d="M334 -96h-277v798h277v-798zM235 134v435h-84v-435h84zM235 -13v110h-84v-110h84z" />
    <glyph glyph-name="quotedbl" unicode="&#x22;" horiz-adv-x="318" 
d="M272 145l-211 -7l-24 712l209 8zM187 551l-7 177l-71 -2l5 -177z" />
    <glyph glyph-name="numbersign" unicode="#" horiz-adv-x="547" 
d="M516 188l-420 -27l-45 677l418 29zM442 608l-42 -2l7 111l-57 -4l-9 -112l-35 -2l8 112l-56 -5l-9 -111l-64 -4l-4 -58l63 3l-2 -20l-64 -5l-5 -58l64 5l-9 -117l58 5l10 115l35 3l-10 -116l58 3l9 117l43 2l5 59l-43 -3l2 21l43 3zM336 543l-1 -20l-34 -3l1 21z" />
    <glyph glyph-name="dollar" unicode="$" horiz-adv-x="251" 
d="M299 818l-12 -528l-403 9l13 529zM190 612q-3 65 -54 76l1 35l-41 1l-1 -36q-23 -5 -39.5 -21.5t-16.5 -42.5q0 -23 12 -38t40 -23l-1 -40q-5 2 -10 10t-6 22l-43 1q6 -70 58 -82l-3 -37l38 -3l1 39q26 3 44 19.5t18 43.5q0 24 -12.5 40t-41.5 24l1 45q4 -5 6.5 -12.5
t2.5 -19.5zM130 554q11 -5 11 -17q0 -6 -3 -11.5t-9 -7.5zM92 612q-4 2 -6 6t-2 9q0 13 9 18z" />
    <glyph glyph-name="percent" unicode="%" horiz-adv-x="472" 
d="M445 368l-395 -72l-94 520l395 72zM112 691q-29 0 -45.5 -19t-16.5 -50q0 -16 5 -32t13.5 -29t20.5 -21t26 -8q31 0 47 19t16 52q0 34 -17 61t-49 27zM285 596q-29 0 -43.5 -20t-14.5 -49q0 -17 5 -33t14 -28.5t21 -20t26 -7.5q62 0 62 72q0 35 -19.5 60.5t-50.5 25.5z
M272 723l-32 -6l-104 -308l34 6zM289 569q19 0 28 -19t9 -39q0 -16 -8 -30t-27 -14q-14 0 -25.5 17t-11.5 50q0 35 35 35zM112 663q19 0 28 -18.5t9 -38.5q0 -21 -10.5 -32.5t-24.5 -11.5q-15 0 -25.5 16.5t-10.5 49.5q0 35 34 35z" />
    <glyph glyph-name="ampersand" unicode="&#x26;" horiz-adv-x="521" 
d="M529 -45l-529 -56l-69 659l529 56zM504 55q-33 30 -63.5 55t-58.5 47q18 48 18 118q0 20 -2 45.5t-6 55.5l-70 -6q2 -24 3.5 -45.5t1.5 -41.5q0 -46 -7 -77q-60 45 -100 82q62 53 62 110q0 40 -30.5 65.5t-78.5 25.5q-58 0 -87 -25.5t-29 -63.5q0 -53 58 -110
q-82 -67 -82 -135q0 -31 13 -56.5t34.5 -44t50 -28.5t60.5 -10q98 0 158 78q17 -14 31.5 -25.5t27.5 -22.5zM208 409q0 -19 -8.5 -36.5t-29.5 -37.5q-42 39 -42 59q0 14 15 23.5t35 9.5q30 0 30 -18zM292 139q-18 -28 -42.5 -40.5t-56.5 -12.5q-34 0 -60.5 19.5t-26.5 51.5
q0 23 12.5 41.5t46.5 42.5q45 -39 127 -102z" />
    <glyph glyph-name="quotesingle" unicode="'" horiz-adv-x="474" 
d="M425 440l-343 -23l-30 443l343 24zM348 732l-124 -8l-59 -199l117 8z" />
    <glyph glyph-name="parenleft" unicode="(" horiz-adv-x="379" 
d="M351 -86l-197 -35l-110 611l198 35zM301 -20q-21 29 -42 60.5t-37.5 65t-26.5 69.5t-10 75q0 46 23 167l-42 -8q-10 -53 -14.5 -92.5t-4.5 -66.5q0 -26 3 -53t14.5 -60t32.5 -73t57 -92z" />
    <glyph glyph-name="parenright" unicode=")" horiz-adv-x="425" 
d="M393 -150l-292 -20l-50 703l293 21zM321 174q0 57 -21.5 113t-48.5 116l-41 -2q23 -49 37.5 -81.5t22.5 -56.5t10.5 -44t2.5 -42q0 -15 -1.5 -31.5t-6.5 -41t-16.5 -60t-30.5 -89.5l46 3q12 36 20.5 64.5t14.5 54t9 49t3 48.5z" />
    <glyph glyph-name="asterisk" unicode="*" horiz-adv-x="422" 
d="M402 104l-410 -36l-38 443l409 36zM283 273l-73 61l57 68l-35 29l-35 -44l-6 71l-45 -4l7 -70l-44 36l-29 -34l68 -58l-61 -73l33 -28l42 49l6 -73l45 4l-7 73l49 -42z" />
    <glyph glyph-name="plus" unicode="+" horiz-adv-x="483" 
d="M509 3l-554 -99l-81 453l553 101zM368 198l-8 44l-133 -25l-25 129l-42 -7l23 -130l-132 -23l8 -44l131 23l24 -134l44 7l-24 135z" />
    <glyph glyph-name="comma" unicode="," horiz-adv-x="442" 
d="M407 -148l-318 -22l-37 535l318 23zM205 -119q52 13 72 41t20 79q0 8 -0.5 18t-1.5 18l-7 81l-106 -7l11 -106l57 3q0 -38 -8.5 -56.5t-40.5 -29.5z" />
    <glyph glyph-name="hyphen" unicode="-" horiz-adv-x="523" 
d="M470 79h-410l-6 284h412zM378 187v52h-205v-52h205z" />
    <glyph glyph-name="period" unicode="." horiz-adv-x="356" 
d="M325 -64l-198 -35l-81 446l199 34zM249 8l-17 87l-64 -12l15 -86z" />
    <glyph glyph-name="slash" unicode="/" horiz-adv-x="438" 
d="M372 495l-14 -596l-301 7l14 596zM313 351l-39 2l-135 -391l37 -1z" />
    <glyph glyph-name="zero" unicode="0" 
d="M646 -45l-507 -73l-104 723l506 72zM524 237q0 28 -4.5 64t-14 73t-25 72t-38 62.5t-52.5 44t-69 16.5q-86 0 -129 -59t-43 -166q0 -71 15 -131t42 -104t64 -68.5t81 -24.5q87 0 130 57.5t43 163.5zM320 513q30 0 52.5 -14t38.5 -37t26.5 -52.5t17 -60.5t9 -61t2.5 -54
q0 -77 -26.5 -119.5t-88.5 -42.5q-29 0 -55 17.5t-46.5 52t-32.5 86t-12 120.5q0 165 115 165z" />
    <glyph glyph-name="one" unicode="1" 
d="M538 -88h-395v747h395v-747zM451 1v563q-39 -32 -86.5 -64.5t-107.5 -64.5l26 -49q30 16 58 33t54 33v-451h56z" />
    <glyph glyph-name="two" unicode="2" 
d="M584 -165l-461 -16l-26 729l461 16zM500 -2l-2 71l-186 -5q168 163 168 273q0 27 -10 50t-28 39.5t-42 26t-52 9.5q-72 0 -111 -40t-47 -125l73 4q0 45 20 69t60 24q28 0 47.5 -12.5t19.5 -37.5q0 -35 -24.5 -85.5t-88.5 -107.5q-5 -5 -46.5 -45t-122.5 -121z" />
    <glyph glyph-name="three" unicode="3" 
d="M572 -34l-372 -67l-91 513l371 65zM492 108q0 38 -21.5 67t-56.5 34q18 11 26.5 29t8.5 36q0 48 -31.5 71.5t-86.5 23.5q-63 0 -93 -21.5t-45 -55.5l56 -19q12 22 36 31.5t50 9.5q27 0 42 -10.5t15 -30.5q0 -45 -100 -63l11 -56q52 9 69 9q29 0 46 -14.5t17 -42.5
q0 -8 -5 -17.5t-16 -17.5t-29 -13.5t-45 -5.5q-16 0 -34 2.5t-35 8.5l-30 -50q13 -6 36.5 -11.5t55.5 -5.5q47 0 78 10t49 25.5t25 35.5t7 41z" />
    <glyph glyph-name="four" unicode="4" 
d="M638 593l-51 -728l-544 38l51 728zM526 156l-60 5l26 371l-75 6l-285 -410l275 -19l-9 -126l55 -4l9 126l61 -4zM431 455l-21 -291l-173 13z" />
    <glyph glyph-name="five" unicode="5" 
d="M600 -79h-520v604h520v-604zM526 138q0 39 -13.5 66.5t-35.5 44t-50 24t-57 7.5q-38 0 -71 -16l7 126h198v64h-260l-16 -284h59q28 48 81 48q37 0 64 -19.5t27 -62.5q0 -34 -23 -59.5t-68 -25.5q-38 0 -58 17.5t-27 54.5h-63q5 -66 43 -100.5t105 -34.5q36 0 65 11.5
t49.5 32t32 47.5t11.5 59z" />
    <glyph glyph-name="six" unicode="6" 
d="M618 -32l-475 -51l-81 742l476 52zM380 380q-115 0 -152 -78v15q0 98 32.5 152t104.5 54q77 0 100 -86l54 6q-35 134 -154 134q-51 0 -87.5 -17t-60.5 -49t-35.5 -77.5t-11.5 -102.5q0 -69 14.5 -125.5t41 -97.5t64.5 -63.5t85 -22.5q38 0 70 13t55.5 36.5t36.5 56
t13 71.5q0 37 -12 69.5t-34.5 57.5t-54 39.5t-69.5 14.5zM378 325q25 0 46.5 -10t37.5 -27t24.5 -40t8.5 -48q0 -52 -32.5 -87t-89.5 -35q-26 0 -49.5 10t-40.5 27.5t-27 41t-10 50.5q0 26 10 48t27.5 37.5t41.5 24t53 8.5z" />
    <glyph glyph-name="seven" unicode="7" 
d="M554 -29l-403 -21l-24 462l402 20zM464 331l-3 48l-243 -13l3 -57l176 9l-118 -326l62 2z" />
    <glyph glyph-name="eight" unicode="8" 
d="M571 -72h-462v628h453zM520 124q0 38 -14.5 65.5t-40.5 41.5q24 20 36 44t12 56q0 28 -10.5 52t-29.5 41t-44 26.5t-54 9.5q-34 0 -62 -9.5t-48.5 -27t-31.5 -41.5t-11 -53q0 -68 51 -104q-25 -18 -38.5 -46.5t-13.5 -60.5q0 -62 40 -95t106 -33q153 0 153 134zM440 326
q0 -30 -17 -48t-55 -18q-36 0 -53.5 16.5t-17.5 52.5q0 26 18 44.5t55 18.5q30 0 50 -18t20 -48zM447 122q0 -31 -18.5 -47.5t-60.5 -16.5q-28 0 -51 16t-23 45q0 31 20 51t54 20q33 0 56 -17.5t23 -50.5z" />
    <glyph glyph-name="nine" unicode="9" 
d="M542 -51l-386 -14l-17 520l385 14zM477 192q0 91 -35.5 129.5t-91.5 38.5q-25 0 -45 -9t-34.5 -24.5t-22.5 -36.5t-8 -45q0 -49 29.5 -81.5t79.5 -32.5q67 0 91 42q-2 -65 -23 -99.5t-59 -34.5q-32 0 -50.5 14t-24.5 46l-34 -1q15 -93 103 -93q66 0 95.5 48t29.5 139z
M434 244q0 -36 -21.5 -57t-58.5 -21q-35 0 -57 20t-22 56q0 35 21 58.5t57 23.5q35 0 57 -23t24 -57z" />
    <glyph glyph-name="colon" unicode=":" horiz-adv-x="415" 
d="M363 499l-23 -570l-286 12l23 570zM258 386l-56 2l-3 -82l55 -2zM245 77l-55 3l-4 -82l56 -3z" />
    <glyph glyph-name="semicolon" unicode=";" horiz-adv-x="255" 
d="M247 341l-34 -446l-210 15l34 447zM77 -56q39 2 54.5 21.5t20.5 62.5l6 51l-66 9l-6 -66l36 -5q-5 -24 -13 -34.5t-29 -12.5zM166 165l7 66l-64 7l-7 -65z" />
    <glyph glyph-name="less" unicode="&#x3c;" horiz-adv-x="483" 
d="M492 -82l-595 -42l-44 629l596 42zM418 75l-238 91l223 118l-33 64l-364 -192l387 -149z" />
    <glyph glyph-name="equal" unicode="=" horiz-adv-x="581" 
d="M608 -21l-684 -71l-55 517l685 72zM468 280l-7 76l-408 -43l8 -76zM483 136l-7 76l-408 -43l8 -75z" />
    <glyph glyph-name="greater" unicode="&#x3e;" horiz-adv-x="483" 
d="M563 472l-14 -629l-595 14l14 629zM430 203l-372 185l-31 -64l228 -115l-233 -96l28 -67z" />
    <glyph glyph-name="question" unicode="?" horiz-adv-x="408" 
d="M373 -73l-334 -23l-56 803l335 24zM296 351q0 62 -35.5 91t-98.5 29q-21 0 -47.5 -2.5t-64.5 -11.5l16 -71q32 8 54.5 11t36.5 3q30 0 48 -12t18 -35q0 -17 -11 -38t-35 -46q-15 -16 -25 -30t-16 -28.5t-8.5 -31.5t-2.5 -39q0 -5 0.5 -11t0.5 -12l73 5q-1 5 -1 9v9
q0 29 9 49.5t36 46.5q29 28 41 57t12 58zM207 -2l-7 93l-72 -5l6 -93z" />
    <glyph glyph-name="at" unicode="@" horiz-adv-x="712" 
d="M677 -27l-586 -40l-41 602l586 42zM518 108q-11 -9 -27 -16.5t-33.5 -12t-33.5 -7t-27 -2.5q-48 0 -81.5 13.5t-54 36t-29.5 53t-9 65.5q0 36 15 67t40.5 54t59 36.5t70.5 13.5q64 0 101 -31.5t37 -94.5q0 -23 -6.5 -45t-18.5 -39.5t-28 -28t-35 -10.5l53 188l-61 17
l-6 -21q-11 27 -45 27q-21 0 -42.5 -15t-39.5 -40.5t-29.5 -58t-11.5 -68.5q0 -29 16.5 -52.5t52.5 -23.5q17 0 31 3.5t22 10.5q21 -14 45 -14q39 0 70.5 14.5t53.5 39.5t34 57t12 68t-15 70.5t-42 61t-66 43t-87 16.5q-55 0 -101 -21t-79.5 -55.5t-52.5 -79.5t-19 -92
q0 -49 13.5 -91.5t43 -73.5t76.5 -49t115 -18q42 0 80 12t76 38zM422 289q0 -17 -6 -36.5t-15 -36.5t-20.5 -28.5t-21.5 -11.5q-19 0 -19 36q0 16 6 33t15.5 31t21.5 23t23 9q14 0 16 -19z" />
    <glyph glyph-name="A" unicode="A" horiz-adv-x="711" 
d="M637 549v-620h-578v621zM576 3l-178 451h-210v-66h114l-153 -383l61 -25l52 132h200l54 -133zM437 177h-149l75 187z" />
    <glyph glyph-name="B" unicode="B" horiz-adv-x="638" 
d="M608 -8l-500 -56l-62 568l501 54zM534 142q0 46 -28.5 78t-79.5 37q36 12 52.5 38.5t16.5 54.5q0 55 -38.5 82.5t-110.5 27.5q-15 0 -33.5 -1.5t-40.5 -3.5l-140 -15l6 -45l62 7l43 -396l171 18q52 5 86 36.5t34 81.5zM489 142q0 -64 -81 -73l-126 -14l-17 160l90 9
q8 1 14.5 1h13.5q22 0 41.5 -4.5t33.5 -14t22.5 -25.5t8.5 -39zM450 354q0 -33 -22.5 -56.5t-81.5 -29.5l-86 -9l-16 149q35 5 60.5 7.5t42.5 2.5q53 0 78 -15t25 -49z" />
    <glyph glyph-name="C" unicode="C" horiz-adv-x="698" 
d="M632 523l-14 -629l-563 12l16 629zM495 132q-16 -50 -47.5 -69.5t-67.5 -19.5q-31 0 -55.5 13t-42 36t-26.5 54t-9 68q0 79 38 127.5t102 48.5q40 0 66 -23t29 -66l71 12q-3 36 -17.5 64t-37 46.5t-51 28.5t-59.5 10q-47 0 -86 -17.5t-66.5 -49.5t-43 -76.5t-15.5 -98.5
q0 -121 55.5 -185.5t150.5 -64.5q60 0 106.5 35t64.5 105z" />
    <glyph glyph-name="D" unicode="D" horiz-adv-x="487" 
d="M442 317l-10 -386l-378 9l10 385zM379 136q0 36 -8.5 63.5t-28.5 46t-53.5 28t-82.5 9.5h-32h-22.5t-17 0.5t-14.5 0.5l-1 -29l38 -1l-6 -254q23 -3 44.5 -3.5t41.5 -0.5q30 0 55.5 9t45 27t30.5 44t11 60zM351 138q0 -54 -28.5 -84t-85.5 -30q-13 0 -24.5 0.5t-32.5 2.5
l5 227h40q66 0 96 -30.5t30 -85.5z" />
    <glyph glyph-name="E" unicode="E" horiz-adv-x="623" 
d="M577 520l-33 -612l-493 26l31 612zM491 436l-348 18l-3 -64l59 -4l-22 -398l299 -16l4 65l-234 13l7 143l217 -12l4 65l-217 12l7 125l224 -12z" />
    <glyph glyph-name="F" unicode="F" horiz-adv-x="729" 
d="M707 8l-561 -100l-110 610l562 102zM535 251l-12 72l-202 -37l-20 113l209 37l-13 71l-336 -61l12 -70l57 10l71 -393l70 15l-37 207z" />
    <glyph glyph-name="G" unicode="G" horiz-adv-x="622" 
d="M553 -188h-554v722h554v-722zM435 166q0 83 -84 83h-141v-44h141q39 0 39 -39v-110q-20 -12 -45.5 -16.5t-62.5 -4.5q-76 0 -119 50t-43 135q0 40 11 74.5t30.5 59.5t46.5 39.5t59 14.5q48 0 79.5 -21t39.5 -68l42 10q-11 61 -53.5 92.5t-99.5 31.5q-43 0 -79.5 -18.5
t-63.5 -50t-42 -74t-15 -90.5q0 -52 16.5 -95t45.5 -73.5t67.5 -47t83.5 -16.5q27 0 56 5t46 17q0 -18 -1.5 -30t-7.5 -18.5t-17 -9.5t-30 -3h-178v-44h178q28 0 47 4.5t31 18t17.5 38.5t5.5 65v135z" />
    <glyph glyph-name="H" unicode="H" horiz-adv-x="542" 
d="M488 348l-26 -477l-410 21l25 478zM413 280l-47 2l-5 -120l-133 7l6 120l-79 3l-4 -46l34 -1l-14 -254l46 -4l7 136l133 -7l-7 -136l47 -2z" />
    <glyph glyph-name="I" unicode="I" horiz-adv-x="516" 
d="M487 -75l-332 -48l-112 773l333 47zM343 18l-79 552l-121 -17l7 -56l66 10l72 -497z" />
    <glyph glyph-name="J" unicode="J" horiz-adv-x="642" 
d="M572 -97h-517v780h505zM340 571v-82h70l6 -311q1 -55 -23 -87t-64 -32q-36 0 -62 26.5t-31 89.5l-77 -20q4 -44 19 -77.5t38 -56t52 -34t61 -11.5q37 0 68.5 15.5t54.5 43t35.5 65.5t11.5 82l-7 393z" />
    <glyph glyph-name="K" unicode="K" horiz-adv-x="796" 
d="M744 -191h-690v716h680zM696 -92l-2 57l-108 -2q-15 0 -28 8t-22.5 20.5t-16.5 29t-10 32.5q-4 19 -7 43.5t-6.5 48t-9 44.5t-14.5 34q-14 20 -34 28.5t-48 8.5h-17l180 164l-42 45l-200 -181v164h-109v-60h56v-398h58v209l56 1q22 0 36 -8t22 -28q5 -12 8 -26.5t5 -29.5
l4 -30t4 -28q8 -43 19 -72t26.5 -46t38 -24.5t52.5 -7.5z" />
    <glyph glyph-name="L" unicode="L" horiz-adv-x="612" 
d="M536 -96h-478v664h478v-664zM449 -10v57h-180v319h-96v-57h39v-319h237z" />
    <glyph glyph-name="M" unicode="M" horiz-adv-x="691" 
d="M644 -81h-589v539h580zM580 8v353h-56l-123 -292l-129 289l-95 -3l1 -36l40 1v-319l31 1v318l153 -340l149 343v-316z" />
    <glyph glyph-name="N" unicode="N" horiz-adv-x="664" 
d="M586 -88h-528v672h528v-672zM531 -10v464h-65v-349l-219 349h-112v-66h41v-398h66v351l218 -351h71z" />
    <glyph glyph-name="O" unicode="O" horiz-adv-x="643" 
d="M599 476l-57 -610l-551 52l56 609zM506 213q0 51 -15 93t-42 73t-65 48t-84 17q-45 0 -84 -19t-67.5 -52.5t-45 -79.5t-16.5 -100q0 -51 14 -94.5t41 -75.5t66 -50t88 -18q44 0 82.5 20t67 54.5t44.5 82t16 101.5zM440 212q0 -31 -9.5 -64.5t-28.5 -61t-47.5 -45.5
t-66.5 -18q-32 0 -57 13t-42.5 36t-26.5 54t-9 66q0 39 11 72.5t30 59t45 40t57 14.5q30 0 56 -11.5t45.5 -33.5t31 -52.5t11.5 -68.5z" />
    <glyph glyph-name="P" unicode="P" horiz-adv-x="664" 
d="M635 -38l-525 -58l-65 593l525 57zM508 334q0 69 -46 105.5t-118 36.5q-22 0 -78.5 -5.5t-134.5 -16.5l8 -71l38 4l43 -396l71 8l-19 184q66 5 111 16t72.5 29.5t40 44.5t12.5 61zM436 338q0 -23 -8.5 -37.5t-28 -24t-53 -14.5t-82.5 -8l-15 143q29 5 55.5 7t41.5 2
q42 0 66 -16t24 -52z" />
    <glyph glyph-name="Q" unicode="Q" horiz-adv-x="916" 
d="M881 609l-81 -868l-794 74l82 869zM692 -124q-63 -4 -102.5 4t-63.5 24.5t-34.5 39.5t-14.5 49q63 39 97 111.5t34 162.5q0 57 -17.5 107t-49.5 87t-77.5 58t-102.5 21q-56 0 -102 -23.5t-79 -65t-51.5 -97t-18.5 -118.5q0 -61 17.5 -112t49.5 -87.5t77 -57t100 -20.5
q37 0 75 12q10 -51 30 -80t51.5 -44t75.5 -19.5t102 -6.5zM475 66q0 10 0.5 19t0.5 17q0 48 -4.5 79.5t-18 52t-37.5 32t-63 17.5q-21 3 -43.5 5.5t-45.5 4.5l-3 -56q51 -5 78 -8.5t38 -6.5q19 -6 28 -27.5t11.5 -50t2 -59.5t1.5 -56q-36 -15 -74 -15q-42 0 -76 18t-57 49
t-35.5 72t-12.5 87q0 49 14.5 93.5t40 78.5t61.5 53.5t80 19.5t79.5 -17.5t60.5 -47.5t38.5 -70t13.5 -85q0 -129 -78 -199z" />
    <glyph glyph-name="R" unicode="R" horiz-adv-x="950" 
d="M872 -197h-814v873h814v-873zM670 -121h42h29.5t22.5 0.5t22 1.5v55q-21 -2 -45 -2h-66q-52 0 -82.5 32.5t-36.5 92.5q-2 23 -4.5 56t-5.5 62q-8 75 -62 105q45 16 66.5 51t21.5 80q0 75 -47.5 109t-138.5 34h-100h-63.5t-43.5 -0.5t-39 -0.5v-56h59v-498h55v254h147
q28 0 45 -10t28 -27q10 -16 14.5 -36t7 -42.5t3.5 -45.5t4 -45q10 -81 54 -125.5t113 -44.5zM517 413q0 -103 -153 -103h-41.5h-27t-20.5 0.5t-21 0.5v187q37 1 73 1h73q117 0 117 -86z" />
    <glyph glyph-name="S" unicode="S" horiz-adv-x="479" 
d="M438 381l-51 -551l-401 37l51 551zM334 249q-3 58 -36 79.5t-90 21.5q-49 0 -78.5 -27t-29.5 -74q0 -23 11 -41t31 -31q14 -9 31 -15.5t34.5 -12.5t33.5 -12.5t28 -16.5q10 -8 14 -18.5t4 -22.5q0 -16 -7 -28.5t-18 -21t-25 -13t-29 -4.5q-41 0 -69 23.5t-28 62.5l-35 -2
q3 -54 35 -86.5t92 -32.5q25 0 47 7t38 20.5t25.5 33t9.5 43.5q0 43 -34 68q-14 10 -30 16.5t-33.5 12.5t-34 12.5t-30.5 15.5q-26 18 -26 46q0 26 19.5 43.5t60.5 17.5q39 0 61.5 -16t23.5 -54z" />
    <glyph glyph-name="T" unicode="T" horiz-adv-x="728" 
d="M699 -28l-585 -53l-70 769l585 53zM549 405l-8 94l-377 -34l9 -94l144 13l36 -398l94 9l-37 397z" />
    <glyph glyph-name="U" unicode="U" horiz-adv-x="766" 
d="M58 -13v681h638v-681h-638zM627 572h-56v-358q0 -34 -11 -62.5t-31 -49t-48 -32t-61 -11.5t-60 12t-46 33t-29.5 50t-10.5 63v355h-111v-56h56v-299q0 -43 14.5 -81.5t40.5 -68t63.5 -46.5t82.5 -17q42 0 79.5 15.5t66 43.5t45 66.5t16.5 84.5v358z" />
    <glyph glyph-name="V" unicode="V" horiz-adv-x="830" 
d="M754 -62h-696v738h696v-738zM658 544l-55 19l-178 -492l-176 484h-99v-56h59l182 -498h67z" />
    <glyph glyph-name="W" unicode="W" horiz-adv-x="762" 
d="M720 -127l-646 -22l-21 611l645 24zM632 366l-36 9l-72 -322l-110 303l-45 -2l-87 -312l-94 314l-68 -3l2 -36l40 2l95 -316l53 3l83 301l108 -295l50 2z" />
    <glyph glyph-name="X" unicode="X" horiz-adv-x="702" 
d="M659 484l-73 -659l-542 61l73 658zM528 309l-55 51l-120 -133l-80 139l-85 10l-8 -74l48 -5l71 -128l-143 -156l56 -50l127 139l92 -163l65 36l-105 185z" />
    <glyph glyph-name="Y" unicode="Y" horiz-adv-x="710" 
d="M670 -36l-586 -33l-33 603l586 34zM541 446l-38 23l-135 -222l-145 198l-75 -3l2 -45l51 3l147 -200l10 -191l44 3l-10 189z" />
    <glyph glyph-name="Z" unicode="Z" horiz-adv-x="683" 
d="M635 -71l-554 -19l-27 788l553 20zM570 -2l-2 90l-292 -11l277 429l-3 80l-408 -14l4 -90l290 9l-276 -427l3 -80z" />
    <glyph glyph-name="bracketleft" unicode="[" horiz-adv-x="298" 
d="M342 -138h-360v781h360v-781zM238 -88v90h-66v480h66v90h-156v-660h156z" />
    <glyph glyph-name="backslash" unicode="\" horiz-adv-x="679" 
d="M646 -79l-518 -56l-85 784l518 56zM523 34l-305 551l-78 -43l304 -552z" />
    <glyph glyph-name="bracketright" unicode="]" horiz-adv-x="509" 
d="M468 510l-113 -772l-357 52l113 772zM362 475l-155 22l-13 -89l65 -9l-69 -475l-65 10l-13 -90l154 -22z" />
    <glyph glyph-name="asciicircum" unicode="^" horiz-adv-x="581" 
d="M612 155l-673 -97l-97 673l672 96zM495 289l-295 358l-182 -426l109 -46l105 247l173 -208z" />
    <glyph glyph-name="underscore" unicode="_" horiz-adv-x="408" 
d="M0 -61h408v-78h-408v78z" />
    <glyph glyph-name="grave" unicode="`" horiz-adv-x="218" 
d="M35 571h97l49 -124h-69z" />
    <glyph glyph-name="a" unicode="a" horiz-adv-x="331" 
d="M333 -181h-328l-18 694h348l-2 -471q-12 1 -18.5 10t-8.5 24q-3 39 -5.5 72t-5.5 58q-5 37 -13.5 61t-22 38t-31.5 19t-42 5q-48 0 -78 -23t-44 -75l42 -11q10 32 29.5 49t48.5 17q16 0 27 -3.5t18.5 -12.5t12 -25.5t7.5 -42.5q-38 0 -72 -4.5t-60 -15.5
q-29 -14 -45.5 -35.5t-16.5 -59.5q0 -15 4.5 -30.5t17 -27.5t34 -19.5t55.5 -7.5q42 0 68.5 11t38.5 28q4 -21 22.5 -32t37.5 -11v-179zM253 163q2 -14 3.5 -34.5t3.5 -46.5q-11 -21 -31 -32t-59 -11q-36 0 -52.5 14t-16.5 35q0 41 37 58q16 8 41.5 12t73.5 5z" />
    <glyph glyph-name="b" unicode="b" horiz-adv-x="672" 
d="M639 -55l-535 -37l-57 803l537 37zM543 202q0 52 -12.5 92t-35 67t-52.5 41t-65 14q-38 0 -70 -17.5t-55 -49.5l-15 212l-109 -8l5 -56l53 4q5 -65 10.5 -133t9.5 -133t6.5 -124t2.5 -105h56v49q45 -46 105 -46q36 0 66 15.5t52.5 42t35 61.5t12.5 74zM489 202
q0 -29 -8.5 -54t-23.5 -43.5t-35.5 -29t-44.5 -10.5q-23 0 -42.5 12t-33.5 33.5t-22.5 51.5t-8.5 66q0 62 29.5 96t74.5 34q24 0 44.5 -10t36.5 -30t25 -49t9 -67z" />
    <glyph glyph-name="c" unicode="c" horiz-adv-x="527" 
d="M491 503l-59 -635l-417 38l59 636zM424 230q-8 69 -47.5 112t-109.5 43q-38 0 -70.5 -17.5t-56.5 -46.5t-37.5 -67.5t-13.5 -80.5q0 -105 47 -156.5t124 -51.5q57 0 95.5 36t54.5 93l-52 18q-30 -92 -97 -92q-49 0 -82.5 35.5t-33.5 114.5q0 28 8.5 56.5t24.5 51.5
t38.5 37.5t51.5 14.5q92 0 101 -106z" />
    <glyph glyph-name="d" unicode="d" horiz-adv-x="758" 
d="M679 -171h-621v830h621v-830zM628 -109v72h-97q-26 0 -43 6.5t-27 20.5t-14.5 37.5t-4.5 56.5l-2 374h-108v-73h36v-76q-38 26 -78 26q-32 0 -58.5 -14t-45.5 -37.5t-29.5 -54.5t-10.5 -64q0 -86 36 -136t101 -50q25 0 50.5 11t43.5 30q7 -56 42 -92.5t95 -36.5h114z
M361 163q0 -110 -75 -110q-69 0 -69 112q0 42 19 69.5t53 27.5t53 -29.5t19 -69.5z" />
    <glyph glyph-name="e" unicode="e" horiz-adv-x="773" 
d="M733 501l-79 -709l-611 68l78 709zM632 104q3 21 5 42.5t2 41.5q0 48 -12.5 91t-39 75t-68 50.5t-99.5 18.5q-48 0 -89 -20.5t-71 -56.5t-46.5 -85t-16.5 -106q0 -50 14.5 -92.5t41.5 -74t64.5 -49.5t84.5 -18q81 0 132.5 37.5t83.5 103.5l-143 18q-8 -12 -22.5 -18
t-31.5 -6q-16 0 -31.5 5t-27.5 15t-19.5 25t-7.5 36zM366 254q8 19 23.5 27.5t32.5 8.5q22 0 40.5 -12.5t23.5 -35.5z" />
    <glyph glyph-name="f" unicode="f" horiz-adv-x="497" 
d="M428 -77h-373v639h361zM341 458q-13 4 -29 6t-39 2q-26 0 -42.5 -8.5t-25.5 -21.5t-12 -29t-3 -31v-49h-47v-72h52v-267h69v270h71v73l-73 -3v37q0 12 5.5 20t19.5 8t24.5 -2t17.5 -4z" />
    <glyph glyph-name="g" unicode="g" horiz-adv-x="598" 
d="M570 -133l-456 -42l-67 737l456 41zM486 89q0 56 -9 138.5t-16 194.5l-55 -2l2 -49q-48 45 -107 45q-36 0 -65.5 -14t-51 -40t-33.5 -63t-12 -82q0 -39 9 -74t28.5 -61.5t50 -42.5t72.5 -16q53 0 87 23.5t44 50.5q0 -54 -17 -84.5t-46.5 -45.5t-69.5 -18.5t-85 -3.5
l5 -56q45 0 93 4t87 23.5t64 59.5t25 113zM301 360q53 0 83.5 -39t30.5 -105q0 -24 -5.5 -48.5t-18 -44.5t-34 -32.5t-52.5 -12.5q-48 0 -79.5 38t-31.5 100q0 67 29 105.5t78 38.5z" />
    <glyph glyph-name="h" unicode="h" horiz-adv-x="449" 
d="M371 534v-601h-359v608zM284 157q1 48 -22.5 76.5t-70.5 28.5q-23 0 -38 -6.5t-28 -17.5v125h-75v-52h19v-320h54l1 184q16 34 57 34q25 0 38.5 -12t12.5 -40l-3 -169h52z" />
    <glyph glyph-name="i" unicode="i" horiz-adv-x="476" 
d="M438 704l-44 -835l-342 18l44 834zM342 565l-90 5l-6 -109l90 -4zM334 401l-132 7l-4 -90l41 -2l-18 -334l90 -5z" />
    <glyph glyph-name="j" unicode="j" horiz-adv-x="624" 
d="M584 695l-50 -949l-484 25l49 949zM479 401l-132 7l-5 -90l42 -2l-14 -262q-2 -30 -11.5 -49t-25.5 -29.5t-37.5 -14.5t-45.5 -4q-29 0 -58 2t-58 5l-5 -90q26 -3 53.5 -5t67.5 -2q43 0 80 8t65 28.5t45 56t20 89.5zM487 564l-90 5l-6 -109l90 -5z" />
    <glyph glyph-name="k" unicode="k" horiz-adv-x="680" 
d="M602 568v-642h-534v651zM533 -20l-220 186l151 114l-46 58l-141 -118l5 235h-110l-1 -70h30v-400h74v117l141 -121z" />
    <glyph glyph-name="l" unicode="l" horiz-adv-x="455" 
d="M425 -103l-315 -28l-60 711l315 27zM318 -2l-39 463l-101 -8l6 -67l33 4l35 -398z" />
    <glyph glyph-name="m" unicode="m" horiz-adv-x="912" 
d="M850 446l-13 -528l-783 18l12 528zM717 188q0 70 -34.5 109t-93.5 39q-35 0 -61 -12.5t-49 -38.5q-14 28 -36.5 42t-49.5 14q-48 0 -80 -37v31l-123 4v-95l37 -2l-7 -244l93 -4l9 207q4 20 20.5 32.5t39.5 12.5q29 0 38.5 -16t9.5 -44l-6 -195h94l5 197q1 25 16 39.5
t38 14.5t34.5 -14t10.5 -37l-5 -225l94 -2z" />
    <glyph glyph-name="n" unicode="n" horiz-adv-x="729" 
d="M686 454l-41 -571l-596 42l39 571zM214 408l-7 -90l50 -6l-29 -303l89 -8l28 265q13 45 81 45q30 0 50 -17t16 -53l-25 -277l93 -7l23 270q7 85 -35.5 129.5t-115.5 44.5q-29 0 -58 -9t-49 -24l2 30z" />
    <glyph glyph-name="o" unicode="o" horiz-adv-x="791" 
d="M761 -112l-649 -56l-67 790l649 55zM647 226q0 108 -56 166.5t-152 58.5q-50 0 -90 -16.5t-67.5 -46.5t-42.5 -73t-15 -96q0 -46 13 -89.5t39 -77.5t65 -54.5t92 -20.5q101 0 157.5 64t56.5 185zM441 337q27 0 45 -13t29 -33t16 -44.5t5 -47.5q0 -55 -25.5 -82t-72.5 -27
q-42 0 -71 35.5t-29 92.5q0 56 27.5 87.5t75.5 31.5z" />
    <glyph glyph-name="p" unicode="p" horiz-adv-x="620" 
d="M557 393v-599h-491v607zM521 154q0 87 -40 137t-112 50q-29 0 -51.5 -10.5t-39.5 -28.5v35l-113 2v-95l33 -1l-2 -382l95 -1v140q34 -32 87 -32q30 0 56.5 14.5t45.5 40t30 59.5t11 72zM427 157q0 -43 -17 -69.5t-42 -26.5q-32 0 -49 23.5t-17 65.5q0 40 17.5 68.5
t48.5 28.5q29 0 44 -25.5t15 -64.5z" />
    <glyph glyph-name="q" unicode="q" horiz-adv-x="554" 
d="M516 -188l-440 -18l-23 593l441 18zM460 271l-2 65l-98 -3l1 -29q-17 16 -39 24t-44 8q-65 0 -102 -44.5t-37 -117.5q0 -49 9.5 -84t26.5 -57.5t39.5 -33.5t48.5 -11q41 0 64.5 16t35.5 36l9 -154l66 2l-14 381zM359 169q3 -56 -19.5 -86t-64.5 -29q-35 1 -52.5 31.5
t-17.5 84.5t19 76.5t57 22.5q34 0 54.5 -24t23.5 -76z" />
    <glyph glyph-name="r" unicode="r" horiz-adv-x="324" 
d="M259 373v-401h-235v406zM247 312q-9 1 -17.5 1.5t-14.5 0.5q-26 0 -49 -8.5t-37 -25.5v32h-69l-1 -44h32l-3 -244h49l4 189q2 56 82 56q16 0 20 -1z" />
    <glyph glyph-name="s" unicode="s" horiz-adv-x="394" 
d="M329 -9h-277v501h271zM279 113q0 29 -16.5 47.5t-45.5 26.5q-11 3 -21 5.5t-17 4.5q-9 4 -9 13q0 5 5 10.5t17 5.5t18.5 -4.5t8.5 -18.5l56 -2q2 47 -21 68.5t-65 21.5q-34 0 -55.5 -22t-21.5 -57q0 -24 8 -39.5t20.5 -24.5t27.5 -14t29 -8q12 -3 20 -9t8 -14
q0 -9 -6 -15t-21 -6q-16 0 -24.5 7t-14.5 23l-53 -3q2 -42 28 -65.5t63 -23.5t59.5 23.5t22.5 69.5z" />
    <glyph glyph-name="t" unicode="t" horiz-adv-x="442" 
d="M390 427l-32 -581l-305 16l30 581zM342 312l-81 5l4 71l-72 4l-3 -72l-66 4l-4 -72l66 -3l-11 -197q-3 -45 20.5 -65.5t62.5 -20.5q25 0 52 7l-4 72q-8 -6 -24 -6q-12 0 -23 5t-10 19l9 182l81 -5z" />
    <glyph glyph-name="u" unicode="u" horiz-adv-x="719" 
d="M679 -54l-598 -30l-29 571l598 30zM543 17l-4 91l-42 -2l-15 306l-93 -7l10 -212q2 -45 -17.5 -75t-65.5 -30q-34 0 -52 18.5t-20 60.5l-13 261l-90 -5l14 -269q5 -86 46.5 -121.5t107.5 -35.5q36 0 68.5 13.5t49.5 37.5l2 -36z" />
    <glyph glyph-name="v" unicode="v" horiz-adv-x="509" 
d="M444 -126h-386v553h386v-553zM434 307l-60 21l-92 -257l-100 250h-87v-61h43l109 -268h62z" />
    <glyph glyph-name="w" unicode="w" horiz-adv-x="905" 
d="M865 580l-38 -699l-778 43l38 699zM824 355l-85 36l-120 -283l-79 267l-90 5l-107 -263l-87 284l-123 9l-5 -90l59 -3l104 -340l84 -5l112 267l81 -278l79 -4z" />
    <glyph glyph-name="x" unicode="x" horiz-adv-x="578" 
d="M551 5l-410 -89l-102 469l411 89zM455 79l-138 116l74 156l-40 19l-70 -146l-115 97l-69 -15l9 -44l48 11l102 -84l-77 -162l40 -20l73 153l135 -115z" />
    <glyph glyph-name="y" unicode="y" horiz-adv-x="687" 
d="M636 -208h-581v718h568zM573 393l-78 30l-117 -315l-129 298l-117 -4l3 -85l60 4l140 -320l-52 -135l79 -30z" />
    <glyph glyph-name="z" unicode="z" horiz-adv-x="410" 
d="M355 -118h-332v524h332v-524zM304 -10v67h-162l162 209v58h-253v-66h162l-162 -211v-57h253z" />
    <glyph glyph-name="braceleft" unicode="{" horiz-adv-x="282" 
d="M208 -25q-7 -1 -12.5 -1h-10.5q-23 0 -34 10.5t-11 44.5q0 17 3.5 46t3.5 74q0 93 -61 130q76 31 84 124l5 66q3 34 6 52.5t8.5 27.5t13 10.5t18.5 1.5q15 0 22.5 -0.5t13.5 -2.5l4 48q-20 3 -41 3q-83 0 -93 -117l-6 -69q-5 -59 -25 -82.5t-47 -23.5l-6 -72
q30 -8 43 -29.5t13 -53.5t-6 -72.5t-6 -76.5q0 -44 24 -67t92 -21zM25 682l270 -23l-66 -779l-268 23z" />
    <glyph glyph-name="bar" unicode="|" horiz-adv-x="148" 
d="M38 699h68v-874h-68v874z" />
    <glyph glyph-name="braceright" unicode="}" horiz-adv-x="281" 
d="M46 694q-12 0 -25 -1t-24 -3l3 -62l14 2t13 1q16 0 30 -7t24.5 -26.5t16.5 -54.5t7 -91q2 -74 29 -121t76 -67q-84 -51 -84 -159q0 -35 3.5 -70t3.5 -77q0 -26 -5 -42t-16 -24.5t-27.5 -11.5t-40.5 -3l5 -61q47 0 76 9.5t45.5 28.5t22 45.5t5.5 61.5q0 33 -3.5 67
t-3.5 73q0 61 20 88t53 33l-6 91q-18 1 -33.5 7.5t-27 22.5t-19 42.5t-9.5 67.5l-5 86q-9 155 -118 155zM-84 742l390 24l58 -968l-391 -23z" />
    <glyph glyph-name="asciitilde" unicode="~" horiz-adv-x="591" 
d="M485 408q-22 -41 -53 -58.5t-70 -17.5q-16 0 -33 3.5t-35 8t-38 8t-42 3.5q-52 0 -80 -20.5t-46 -48.5l12 -90q23 38 51 57t67 19q17 0 35 -4t36 -8.5t37 -8t38 -3.5q46 0 77.5 18t54.5 53zM21 452l496 63l46 -362l-496 -63z" />
    <glyph glyph-name="nonbreakingspace" unicode="&#xa0;" horiz-adv-x="431" 
 />
    <glyph glyph-name="exclamdown" unicode="&#xa1;" horiz-adv-x="412" 
d="M57 702h277v-798h-277v798zM156 472v-435h84v435h-84zM156 619v-110h84v110h-84z" />
    <glyph glyph-name="cent" unicode="&#xa2;" horiz-adv-x="351" 
d="M-28 668l321 32l44 -451l-321 -32zM145 397q-15 4 -27.5 22t-12.5 62q0 23 7 34t20 15zM186 287l-4 39q46 8 71.5 39t27.5 74l-83 -8q0 -12 -7 -20t-16 -11l-13 132q11 0 19.5 -7.5t9.5 -17.5l83 8q-15 91 -119 91l-4 40l-30 -2l4 -41q-100 -17 -100 -121
q0 -84 34.5 -121.5t92.5 -37.5l4 -39z" />
    <glyph glyph-name="sterling" unicode="&#xa3;" horiz-adv-x="374" 
d="M15 452l69 -5q4 -12 4 -27q0 -30 -18 -45t-44 -15h-10t-9 1l-6 -83q8 -1 15 -1h15q21 0 41 4.5t40 18.5q20 -2 37 -8t33.5 -13.5t34 -13t38.5 -5.5q35 0 59 24l4 77q-18 -25 -52 -25q-22 0 -45 9t-45 9q-6 0 -11.5 -0.5t-10.5 -1.5q11 12 15 25.5t4 31.5q0 19 -4 32
l77 -5l5 61l-107 6q-9 20 -16.5 40t-7.5 41q0 49 47 49q34 0 47 -13.5t13 -49.5l80 -5q0 6 0.5 12t0.5 12q0 63 -32.5 94.5t-110.5 31.5q-54 0 -91.5 -31t-37.5 -95q0 -22 6.5 -41t15.5 -39l-39 3zM-3 773l392 -27l-37 -540l-392 26z" />
    <glyph glyph-name="yen" unicode="&#xa5;" horiz-adv-x="416" 
d="M319 247l7 61l-100 11l5 37l99 -12l7 59l-100 12l5 43l160 202l-91 11l-104 -139l-68 159l-92 11l110 -234l-5 -43l-101 11l-6 -58l101 -12l-5 -37l-100 12l-7 -60l100 -12l-6 -54l85 -10l6 54zM20 729l414 -48l-60 -519l-414 48z" />
    <glyph glyph-name="brokenbar" unicode="&#xa6;" horiz-adv-x="148" 
d="M38 142h68v-317h-68v317zM106 391h-68v308h68v-308z" />
    <glyph glyph-name="section" unicode="&#xa7;" horiz-adv-x="389" 
d="M242 367q-31 5 -55 9t-41.5 9.5t-27 13t-10.5 19.5q0 14 5.5 24.5t19.5 16.5q35 -7 59.5 -11.5t40 -9.5t23 -12t8.5 -19q0 -14 -4.5 -24.5t-17.5 -15.5zM320 574q-5 54 -41 85t-102 31q-40 0 -69 -9.5t-48.5 -26t-29 -37.5t-9.5 -45q0 -31 9 -48.5t26 -30.5
q-16 -15 -22 -33t-6 -38q0 -38 14 -59.5t37.5 -34t54.5 -18t66 -9.5q38 -5 52 -18.5t14 -29.5q0 -22 -19 -36t-58 -14q-30 0 -50 12.5t-22 36.5l-84 -6q12 -113 146 -113q35 0 66.5 6.5t55 20.5t37.5 36t14 53q0 35 -9.5 54t-24.5 32q27 22 27 65q0 42 -18 65t-45 35.5
t-59 17t-59 9.5t-45 13.5t-18 29.5q0 44 73 44q28 0 43 -10.5t20 -35.5zM-55 700l410 30l47 -633l-410 -30z" />
    <glyph glyph-name="dieresis" unicode="&#xa8;" horiz-adv-x="356" 
d="M222 475v79h89v-79h-89zM46 475v79h89v-79h-89z" />
    <glyph glyph-name="ordfeminine" unicode="&#xaa;" horiz-adv-x="301" 
d="M241 359l15 135q1 5 1 8.5v7.5q0 35 -24 56.5t-84 21.5q-41 0 -58.5 -18t-22.5 -47l62 -7q2 9 7.5 14.5t19.5 5.5q12 0 21.5 -4.5t9.5 -13.5q0 -10 -6 -13t-22 -4q-24 -1 -44 -4.5t-34.5 -11.5t-22.5 -22.5t-8 -36.5q0 -29 19.5 -44t64.5 -15q35 0 46 17q0 -2 -0.5 -3
t-0.5 -2q0 -5 4 -13zM182 449q-2 -14 -11 -24t-29 -10q-24 0 -24 16q0 11 8.5 17t29.5 8q13 2 18.5 3t8.5 3zM45 644l253 -27l-56 -516l-253 27z" />
    <glyph glyph-name="guillemotleft" unicode="&#xab;" horiz-adv-x="394" 
d="M198 408v99l-171 -121v-70l171 -117v96l-88 56zM371 408v99l-171 -121v-70l171 -117v96l-88 56zM16 646h387v-582h-387v582z" />
    <glyph glyph-name="macron" unicode="&#xaf;" horiz-adv-x="290" 
d="M38 561h213v-54h-213v54z" />
    <glyph glyph-name="degree" unicode="&#xb0;" horiz-adv-x="310" 
d="M145 588q18 0 35.5 -21t17.5 -54q0 -30 -13.5 -50t-30.5 -20q-20 0 -38 22t-18 54q0 27 14.5 47.5t32.5 21.5zM146 659q-26 0 -48.5 -11t-39 -30t-26 -45.5t-9.5 -56.5q0 -35 11.5 -63t30 -47.5t43 -30t50.5 -10.5q25 0 46 12.5t36.5 32.5t24 46.5t8.5 53.5
q0 33 -9.5 60.5t-26.5 47t-40.5 30.5t-50.5 11zM-49 742l328 27l61 -757l-327 -27z" />
    <glyph glyph-name="acute" unicode="&#xb4;" horiz-adv-x="197" 
d="M99 451h-72l52 124h97z" />
    <glyph glyph-name="paragraph" unicode="&#xb6;" horiz-adv-x="460" 
d="M350 17l19 461l38 75l-242 10q-60 0 -89.5 -19.5t-29.5 -53.5q0 -26 14 -46.5t53 -29.5l-16 -387l91 -4l19 462l72 -3l-19 -462zM29 600l421 -18l-26 -605l-421 18z" />
    <glyph glyph-name="periodcentered" unicode="&#xb7;" horiz-adv-x="278" 
d="M195 188l9 118l-132 10l-9 -118zM38 534l230 -18l-43 -575l-230 18z" />
    <glyph glyph-name="cedilla" unicode="&#xb8;" horiz-adv-x="213" 
d="M61 18h33v-46q93 -3 93 -84q0 -49 -23.5 -70t-68.5 -21q-36 0 -65 20v67q27 -30 54 -30q36 0 36 29q0 35 -48 35h-11v100z" />
    <glyph glyph-name="ordmasculine" unicode="&#xba;" horiz-adv-x="327" 
d="M135 375q22 0 42.5 7t36.5 20t25.5 32.5t9.5 45.5q0 54 -28.5 84.5t-74.5 30.5q-54 0 -84.5 -29t-30.5 -75q0 -53 28 -84.5t76 -31.5zM181 474q0 -18 -10 -30t-32 -12q-18 0 -28.5 15.5t-10.5 49.5q0 41 41 41q18 0 29 -14.5t11 -49.5zM-24 632l273 36l70 -532l-273 -36z
" />
    <glyph glyph-name="guillemotright" unicode="&#xbb;" horiz-adv-x="402" 
d="M206 297v-99l171 121v71l-171 116v-96l88 -56zM32 297v-99l171 121v71l-171 116v-96l88 -56zM16 646h387v-582h-387v582z" />
    <glyph glyph-name="questiondown" unicode="&#xbf;" horiz-adv-x="408" 
d="M-17 706l334 23l56 -803l-335 -23zM65 264q0 -62 35.5 -91t98.5 -29q21 0 47.5 2.5t64.5 11.5l-16 71q-32 -8 -54.5 -11t-36.5 -3q-30 0 -48 12t-18 35q0 17 11 38t35 46q15 16 25 30t16 28.5t8.5 31.5t2.5 39q0 5 -0.5 11t-0.5 12l-73 -5q1 -5 1 -9v-9q0 -29 -9 -49.5
t-36 -46.5q-29 -28 -41 -57t-12 -58zM154 617l7 -93l72 5l-6 93z" />
    <glyph glyph-name="Agrave" unicode="&#xc0;" horiz-adv-x="711" 
d="M666 654l-60 -748l-577 45l59 748zM551 -15l-143 462l-208 18l-6 -66l113 -8l-181 -371l59 -29l62 127l199 -15l43 -137zM427 169l-150 11l89 182zM341 532l50 -4l-29 92l-70 4z" />
    <glyph glyph-name="Aacute" unicode="&#xc1;" horiz-adv-x="711" 
d="M670 620v-694h-619v695h310l-36 -85h55l51 84h239zM605 9l-191 503h-223v-73h121l-163 -429l65 -26l55 147h214l57 -148zM457 203h-160l80 210z" />
    <glyph glyph-name="Acircumflex" unicode="&#xc2;" horiz-adv-x="711" 
d="M667 584l-58 -676l-577 48l57 676zM554 -13l-140 463l-208 18l-6 -66l113 -9l-184 -370l59 -29l63 127l200 -16l41 -137zM430 171l-148 13l90 180zM405 494l44 -4l-41 80l-51 5l-52 -73l44 -4l31 51z" />
    <glyph glyph-name="Atilde" unicode="&#xc3;" horiz-adv-x="711" 
d="M418 571h220v-643h-596v644h210l-6 -8v-57q13 33 38 33q8 0 21 -5t27 -10.5t27 -10.5t22 -5q20 0 37 23v39zM575 6l-183 466h-215v-67h115l-156 -398l63 -25l53 136h206l54 -138zM432 185h-153l77 194zM407 571q-14 -20 -31 -20q-10 0 -27 6.5t-33 13.5h91z" />
    <glyph glyph-name="Adieresis" unicode="&#xc4;" horiz-adv-x="711" 
d="M637 616v-687h-578v688zM576 3l-178 451h-210v-66h114l-153 -383l61 -25l52 132h200l54 -133zM437 177h-149l75 187zM459 507v69h-78v-69h78zM304 507v69h-78v-69h78z" />
    <glyph glyph-name="Aring" unicode="&#xc5;" horiz-adv-x="661" 
d="M679 606l-88 -711l-577 71l89 713zM383 600q-30 0 -53 -24.5t-23 -63.5q0 -36 24 -55l-123 15l-7 -65l112 -14l-199 -362l58 -31l68 124l198 -25l37 -138l63 17l-122 467q18 9 30 29t12 44q0 33 -21.5 57.5t-53.5 24.5zM421 166l-148 19l98 177zM381 558q18 0 27.5 -11.5
t9.5 -27.5q0 -20 -10 -32t-28 -12q-16 0 -26 11t-10 27t10.5 30.5t26.5 14.5z" />
    <glyph glyph-name="AE" unicode="&#xc6;" horiz-adv-x="749" 
d="M709 549v-620h-650v621zM642 454h-487v-66h113l-152 -383l61 -25l69 162h145v-150h259v66h-186v122h169v66h-168v145h177v63zM394 203h-127l67 183h60v-183z" />
    <glyph glyph-name="Ccedilla" unicode="&#xc7;" horiz-adv-x="698" 
d="M639 523l-25 -724l-563 13l26 723zM324 -86l5 -1q19 -2 26 -9t7 -20q-5 -17 -20 -17q-13 0 -23 6t-21 19l-6 -46q11 -11 26.5 -16t30.5 -5q27 0 43.5 16t16.5 51q0 46 -59 57l4 23q6 -1 12.5 -1.5t14.5 -0.5q120 0 173 140l-67 25q-19 -48 -45.5 -70t-63.5 -22
q-63 0 -97 48.5t-34 129.5t40 125t104 44q38 0 63 -22t28 -67l71 12q-4 37 -18.5 65t-37 46.5t-51.5 28t-62 9.5q-47 0 -85 -18.5t-65 -51t-42 -77t-15 -95.5q0 -45 10.5 -85t30.5 -72.5t48.5 -55t64.5 -31.5z" />
    <glyph glyph-name="Egrave" unicode="&#xc8;" horiz-adv-x="598" 
d="M294 466l48 8l-37 59l220 25l67 -610l-491 -53l-69 608l211 23zM454 461l-346 -38l6 -65l59 7l43 -396l298 32l-7 65l-232 -26l-16 143l216 24l-7 64l-216 -24l-14 125l223 25z" />
    <glyph glyph-name="Eacute" unicode="&#xc9;" horiz-adv-x="623" 
d="M577 520l-33 -612l-493 26l31 612l259 -14l-27 -64h59l36 60zM491 436l-348 18l-3 -64l59 -4l-22 -398l299 -16l4 65l-234 13l7 143l217 -12l4 65l-217 12l7 125l224 -12z" />
    <glyph glyph-name="Ecircumflex" unicode="&#xca;" horiz-adv-x="623" 
d="M349 470l51 3l-49 59l190 16l49 -612l-493 -39l-51 609l228 19l-37 -60l49 2l28 56zM467 453l-348 -29l6 -64l59 4l31 -396l299 23l-5 64l-234 -18l-11 143l216 18l-5 64l-217 -17l-9 125l223 18z" />
    <glyph glyph-name="Edieresis" unicode="&#xcb;" horiz-adv-x="468" 
d="M452 536l-34 -558l-404 22l32 557zM375 410l-286 17l-2 -54l48 -3l-18 -326l246 -13l2 52l-192 12l6 117l178 -10l4 53l-178 10l5 103l184 -11zM355 449l3 60l-68 4l-3 -60zM221 456l3 60l-68 4l-3 -60z" />
    <glyph glyph-name="Igrave" unicode="&#xcc;" horiz-adv-x="429" 
d="M447 -75l-331 -48l-121 840l333 47zM304 18l-80 552l-120 -17l7 -56l66 10l72 -497zM161 587l44 11l-39 103l-71 -10z" />
    <glyph glyph-name="Iacute" unicode="&#xcd;" horiz-adv-x="395" 
d="M348 -106h-318v857h310zM224 -1v528h-122v-54h61v-474h61zM286 699h-74l-76 -123h73z" />
    <glyph glyph-name="Icircumflex" unicode="&#xce;" horiz-adv-x="516" 
d="M370 -121l-333 40l89 854l333 -40zM255 7l65 553l-121 15l-7 -56l66 -7l-58 -499zM317 607l66 -8l-59 119l-73 9l-79 -104l62 -7l49 73z" />
    <glyph glyph-name="Idieresis" unicode="&#xcf;" horiz-adv-x="516" 
d="M487 -75l-332 -48l-112 852l333 48zM343 18l-79 552l-121 -17l7 -56l66 10l72 -497zM322 626l-5 60l-68 -5l5 -60zM188 615l-5 59l-68 -5l5 -60z" />
    <glyph glyph-name="Eth" unicode="&#xd0;" horiz-adv-x="539" 
d="M531 492l-14 -608l-524 14l13 607zM94 183l37 -2l-4 -188q17 -2 43.5 -3.5t66.5 -1.5q102 0 154.5 59t52.5 161q0 56 -12 99t-40.5 72.5t-74.5 44.5t-115 15h-48q-30 0 -70 3l-2 -45l50 -3v-167l-35 2zM405 210q0 -89 -42 -133.5t-120 -44.5q-22 0 -38 1t-37 4l1 144
l98 -2v44l-94 4v167h57q91 0 133 -46.5t42 -137.5z" />
    <glyph glyph-name="Ntilde" unicode="&#xd1;" horiz-adv-x="664" 
d="M246 483q18 48 44 48q9 0 24 -7t31 -15.5t31 -15.5t25 -7q26 0 43 33v65h142v-672h-528v672h200q-7 -7 -12 -16v-85zM531 -10v464h-65v-349l-219 349h-112v-66h41v-398h66v351l218 -351h71zM395 549q-12 0 -35.5 12t-45.5 23h121q-18 -35 -40 -35z" />
    <glyph glyph-name="Ograve" unicode="&#xd2;" horiz-adv-x="643" 
d="M601 563l-59 -697l-551 52l59 696zM304 472l51 -7l-23 93l-70 11zM506 213q0 51 -15 93t-42 73t-65 48t-84 17q-45 0 -84 -19t-67.5 -52.5t-45 -79.5t-16.5 -100q0 -51 14 -94.5t41 -75.5t66 -50t88 -18q44 0 82.5 20t67 54.5t44.5 82t16 101.5zM440 212
q0 -31 -9.5 -64.5t-28.5 -61t-47.5 -45.5t-66.5 -18q-32 0 -57 13t-42.5 36t-26.5 54t-9 66q0 39 11 72.5t30 59t45 40t57 14.5q30 0 56 -11.5t45.5 -33.5t31 -52.5t11.5 -68.5z" />
    <glyph glyph-name="Oacute" unicode="&#xd3;" horiz-adv-x="602" 
d="M571 590v-700h-547v703zM368 555h-66l-42 -90l50 2zM506 213q0 51 -15 93t-42 73t-65 48t-84 17q-45 0 -84 -19t-67.5 -52.5t-45 -79.5t-16.5 -100q0 -51 14 -94.5t41 -75.5t66 -50t88 -18q44 0 82.5 20t67 54.5t44.5 82t16 101.5zM440 212q0 -31 -9.5 -64.5t-28.5 -61
t-47.5 -45.5t-66.5 -18q-32 0 -57 13t-42.5 36t-26.5 54t-9 66q0 39 11 72.5t30 59t45 40t57 14.5q30 0 56 -11.5t45.5 -33.5t31 -52.5t11.5 -68.5z" />
    <glyph glyph-name="Ocircumflex" unicode="&#xd4;" horiz-adv-x="643" 
d="M607 557l-65 -691l-551 52l64 690zM358 474l54 -7l-46 96l-59 7l-64 -82l49 -6l41 58zM506 213q0 51 -15 93t-42 73t-65 48t-84 17q-45 0 -84 -19t-67.5 -52.5t-45 -79.5t-16.5 -100q0 -51 14 -94.5t41 -75.5t66 -50t88 -18q44 0 82.5 20t67 54.5t44.5 82t16 101.5z
M440 212q0 -31 -9.5 -64.5t-28.5 -61t-47.5 -45.5t-66.5 -18q-32 0 -57 13t-42.5 36t-26.5 54t-9 66q0 39 11 72.5t30 59t45 40t57 14.5q30 0 56 -11.5t45.5 -33.5t31 -52.5t11.5 -68.5z" />
    <glyph glyph-name="Otilde" unicode="&#xd5;" horiz-adv-x="643" 
d="M551 523l44 -612l-552 -38l-44 610l180 12l9 -61q12 53 41 53q10 0 24.5 -4t29.5 -9.5t29 -9.5t24 -4q15 0 25.5 11t15.5 39zM296 444q-47 0 -85 -17.5t-65.5 -48.5t-42.5 -73t-15 -91q0 -58 16 -105.5t44.5 -81.5t66.5 -53t82 -19q46 0 84.5 17.5t66.5 48.5t43.5 74.5
t15.5 95.5q0 54 -15.5 100.5t-43 80.5t-66.5 53t-86 19zM295 377q27 0 53 -10t46.5 -31.5t33 -56.5t12.5 -84q0 -38 -10.5 -69.5t-29.5 -54.5t-45.5 -36t-58.5 -13q-30 0 -56 14.5t-45 39.5t-30 59t-11 73q0 76 38.5 122.5t102.5 46.5z" />
    <glyph glyph-name="Odieresis" unicode="&#xd6;" horiz-adv-x="643" 
d="M612 544l-70 -678l-551 52l69 677zM506 213q0 51 -15 93t-42 73t-65 48t-84 17q-45 0 -84 -19t-67.5 -52.5t-45 -79.5t-16.5 -100q0 -51 14 -94.5t41 -75.5t66 -50t88 -18q44 0 82.5 20t67 54.5t44.5 82t16 101.5zM440 212q0 -31 -9.5 -64.5t-28.5 -61t-47.5 -45.5
t-66.5 -18q-32 0 -57 13t-42.5 36t-26.5 54t-9 66q0 39 11 72.5t30 59t45 40t57 14.5q30 0 56 -11.5t45.5 -33.5t31 -52.5t11.5 -68.5zM434 464l6 60l-67 8l-7 -60zM300 479l7 60l-68 8l-6 -60z" />
    <glyph glyph-name="multiply" unicode="&#xd7;" horiz-adv-x="492" 
d="M424 205l-122 93l92 121l-67 51l-92 -121l-121 92l-51 -68l121 -92l-92 -121l68 -50l91 120l122 -92zM-6 481l434 60l62 -455l-434 -60z" />
    <glyph glyph-name="Oslash" unicode="&#xd8;" horiz-adv-x="643" 
d="M599 476l-57 -610l-551 52l56 609zM443 384q-55 60 -145 60q-46 0 -84.5 -20t-66.5 -54t-44 -79.5t-16 -97.5q0 -78 31 -134l-54 -54l39 -47l51 51q54 -54 143 -54q45 0 83 20.5t66 55.5t44 82t16 100q0 70 -29 123l55 56l-42 39zM311 377q26 0 47 -12t37 -29l-227 -227
q-15 34 -15 83q0 87 44 136t114 49zM439 191q0 -37 -12.5 -68t-33 -53.5t-47.5 -35t-56 -12.5q-54 0 -89 35l226 229q9 -24 10.5 -46.5t1.5 -48.5z" />
    <glyph glyph-name="Ugrave" unicode="&#xd9;" horiz-adv-x="766" 
d="M605 573l-56 -4l30 -375q3 -31 -8 -58.5t-31.5 -48t-50 -32.5t-64.5 -12q-30 0 -55 11t-44 30.5t-30 46.5t-14 59l-29 353l-111 -9l5 -54l55 4l25 -299q4 -45 20 -81t42.5 -62t62.5 -40t79 -14l-348 -28l-56 678l300 26l67 -88l58 4l-47 90l257 21l57 -678l-261 -22
q38 7 71.5 24t58 42.5t37.5 59t10 74.5z" />
    <glyph glyph-name="Uacute" unicode="&#xda;" horiz-adv-x="646" 
d="M532 538h-49v-324q0 -30 -10 -55.5t-27.5 -44.5t-42.5 -29.5t-55 -10.5q-29 0 -53 11t-41 30t-26.5 45t-9.5 57v321h-98v-50h50v-271q0 -81 44.5 -134t121.5 -58h-311v615h318l-27 -67h42l41 67h194v-615h-233q39 2 70.5 17.5t54 41t35 59t12.5 71.5v324z" />
    <glyph glyph-name="Ucircumflex" unicode="&#xdb;" horiz-adv-x="766" 
d="M612 551l-64 -352q-11 -60 -49.5 -95t-93.5 -35q-36 0 -64.5 12t-48 32t-29.5 47.5t-10 59.5q0 8 1 17t3 17l62 349l-110 20l-9 -55l54 -10l-52 -294q-2 -12 -3 -24t-1 -25q0 -73 40.5 -125.5t110.5 -68.5l-343 61l119 671l311 -56l-52 -60l51 -8l42 55l24 -68l53 -9
l-33 75l232 -40l-120 -671l-231 38q38 0 71.5 13t60 36.5t44.5 56.5t25 73l63 353z" />
    <glyph glyph-name="Udieresis" unicode="&#xdc;" horiz-adv-x="766" 
d="M628 555h-56v-358q0 -34 -11 -62.5t-31 -49t-48 -32t-61 -11.5t-60 12t-46 33t-29.5 50t-10.5 63v355h-111v-56h56v-299q0 -44 13 -82t38 -66.5t60.5 -45.5t80.5 -19h-354v681h638v-681h-266q44 2 80.5 18.5t62.5 44.5t40.5 65.5t14.5 81.5v358zM532 583v61h-69v-61h69z
M396 583v61h-68v-61h68z" />
    <glyph glyph-name="Yacute" unicode="&#xdd;" horiz-adv-x="710" 
d="M670 -36l-586 -33l-33 603l586 34zM541 446l-38 23l-135 -222l-145 198l-75 -3l2 -45l51 3l147 -200l10 -191l44 3l-10 189zM413 544h-72l-38 -91h53z" />
    <glyph glyph-name="Thorn" unicode="&#xde;" horiz-adv-x="664" 
d="M635 -38l-525 -58l-65 593l525 57zM243 469l-75 -10l52 -468l71 8l-9 89q67 6 112 17.5t73 29.5t40 43.5t12 60.5q0 73 -41.5 107.5t-122.5 34.5q-14 0 -34.5 -1t-67.5 -7zM259 302q31 5 56.5 7t40.5 2q90 0 90 -60q0 -26 -10.5 -42t-31.5 -26t-53.5 -15t-76.5 -8z" />
    <glyph glyph-name="germandbls" unicode="&#xdf;" horiz-adv-x="516" 
d="M61 153l84 -12l49 351q5 31 19.5 43.5t51.5 12.5q32 0 47 -15t15 -39q0 -34 -10 -55t-49 -21q-17 0 -37 4l-11 -81q40 -6 63.5 -19t23.5 -47q0 -39 -17 -55.5t-35 -16.5q-20 0 -32.5 5t-20.5 13l-10 -78q9 -10 28.5 -17t44.5 -7q22 0 43.5 9.5t38.5 28t27.5 46.5t10.5 66
q0 58 -47 96q72 34 72 141q0 57 -38 89.5t-119 32.5q-66 0 -99.5 -29t-42.5 -94zM76 773l448 -62l-100 -704l-447 62z" />
    <glyph glyph-name="agrave" unicode="&#xe0;" horiz-adv-x="331" 
d="M333 -181h-328l-18 694h348l-2 -471q-12 1 -18.5 10t-8.5 24q-3 39 -5.5 72t-5.5 58q-5 37 -13.5 61t-22 38t-31.5 19t-42 5q-48 0 -78 -23t-44 -75l42 -11q10 32 29.5 49t48.5 17q16 0 27 -3.5t18.5 -12.5t12 -25.5t7.5 -42.5q-38 0 -72 -4.5t-60 -15.5
q-29 -14 -45.5 -35.5t-16.5 -59.5q0 -15 4.5 -30.5t17 -27.5t34 -19.5t55.5 -7.5q42 0 68.5 11t38.5 28q4 -21 22.5 -32t37.5 -11v-179zM253 163q2 -14 3.5 -34.5t3.5 -46.5q-11 -21 -31 -32t-59 -11q-36 0 -52.5 14t-16.5 35q0 41 37 58q16 8 41.5 12t73.5 5zM165 370h43
l-31 78h-61z" />
    <glyph glyph-name="aacute" unicode="&#xe1;" horiz-adv-x="331" 
d="M273 428l-54 4l-36 -67l40 -4zM307 -192l-326 23l31 680l346 -24l-35 -461q-11 2 -18 11.5t-7 23.5q0 79 -3.5 129t-15.5 78.5t-34.5 39t-60.5 10.5q-42 0 -70 -20.5t-45 -67.5l41 -14q23 59 74 59q18 0 30.5 -3.5t20 -13t11 -26t4.5 -43.5q-11 1 -21.5 1h-21.5
q-33 0 -62 -5t-50 -17.5t-33 -33.5t-12 -52q0 -15 5 -30t18.5 -27t36.5 -20t59 -8q35 0 58.5 9t35.5 23q2 -21 20 -32.5t37 -13.5zM252 151q1 -15 1 -35v-46q-11 -17 -28 -26.5t-47 -9.5q-44 0 -63 13t-19 36q0 16 5.5 29t19 22t36 13.5t57.5 4.5h17.5t20.5 -1z" />
    <glyph glyph-name="acircumflex" unicode="&#xe2;" horiz-adv-x="331" 
d="M316 -94l-310 15l21 566l327 -14l-31 -442q-10 4 -17.5 13t-7.5 24q0 20 0.5 37.5t0.5 33.5q0 100 -24.5 145t-84.5 45q-45 0 -75.5 -20.5t-47.5 -69.5l42 -15q24 62 78 62q35 0 49.5 -18t14.5 -66h-15q-41 0 -75 -5t-58.5 -17t-38.5 -32t-14 -49q0 -40 29.5 -69
t96.5 -29q23 0 47 6.5t43 20.5q15 -36 54 -41zM252 158q1 -7 1 -15v-19v-48q-25 -37 -68 -37q-37 0 -63.5 16t-26.5 39q0 64 113 64h44zM212 371l38 -2l-36 67l-43 3l-44 -62l37 -2l27 43z" />
    <glyph glyph-name="atilde" unicode="&#xe3;" horiz-adv-x="331" 
d="M333 -181h-328l-18 694h348l-2 -471q-12 1 -18.5 10t-8.5 24q-3 39 -5.5 72t-5.5 58q-5 37 -13.5 61t-22 38t-31.5 19t-42 5q-48 0 -78 -23t-44 -75l42 -11q10 32 29.5 49t48.5 17q16 0 27 -3.5t18.5 -12.5t12 -25.5t7.5 -42.5q-38 0 -72 -4.5t-60 -15.5
q-29 -14 -45.5 -35.5t-16.5 -59.5q0 -15 4.5 -30.5t17 -27.5t34 -19.5t55.5 -7.5q42 0 68.5 11t38.5 28q4 -21 22.5 -32t37.5 -11v-179zM253 163q2 -14 3.5 -34.5t3.5 -46.5q-11 -21 -31 -32t-59 -11q-36 0 -52.5 14t-16.5 35q0 41 37 58q16 8 41.5 12t73.5 5zM117 392
q11 29 26 29q6 0 14.5 -4.5t18 -9.5t18.5 -9.5t15 -4.5q15 0 26 21v52q-14 -35 -29 -35q-6 0 -15.5 4t-19 9.5t-18.5 9.5t-15 4q-14 0 -21 -15v-51z" />
    <glyph glyph-name="adieresis" unicode="&#xe4;" horiz-adv-x="331" 
d="M303 -186l-328 20l39 689l348 -24l-42 -469q-23 8 -23 36q0 24 0.5 45.5t0.5 39.5q0 94 -27 136t-90 42q-79 0 -114 -89l42 -15q23 59 77 59q37 0 51 -17.5t14 -65.5q-43 0 -80 -4t-64 -15t-42.5 -30.5t-15.5 -50.5q0 -29 11 -48.5t28.5 -31t39.5 -16t45 -4.5
q32 0 52 5.5t39 20.5q15 -36 53 -41zM251 157q0 -7 0.5 -15.5t0.5 -18.5t-0.5 -22t-0.5 -25q-13 -19 -30.5 -28t-45.5 -9q-15 0 -29.5 4.5t-26.5 12.5t-19.5 18t-7.5 21q0 31 27.5 47t79.5 16h14h8t8 -1h22zM290 368l4 56l-62 4l-4 -56zM165 376l4 56l-62 3l-4 -56z" />
    <glyph glyph-name="aring" unicode="&#xe5;" horiz-adv-x="331" 
d="M333 -181h-328l-18 694h348l-2 -471q-12 1 -18.5 10t-8.5 24q-3 39 -5.5 72t-5.5 58q-5 37 -13.5 61t-22 38t-31.5 19t-42 5q-48 0 -78 -23t-44 -75l42 -11q10 32 29.5 49t48.5 17q16 0 27 -3.5t18.5 -12.5t12 -25.5t7.5 -42.5q-38 0 -72 -4.5t-60 -15.5
q-29 -14 -45.5 -35.5t-16.5 -59.5q0 -15 4.5 -30.5t17 -27.5t34 -19.5t55.5 -7.5q42 0 68.5 11t38.5 28q4 -21 22.5 -32t37.5 -11v-179zM253 163q2 -14 3.5 -34.5t3.5 -46.5q-11 -21 -31 -32t-59 -11q-36 0 -52.5 14t-16.5 35q0 41 37 58q16 8 41.5 12t73.5 5zM153 399
q0 13 6 21t18 8q11 0 17.5 -8t6.5 -21q0 -12 -6.5 -20t-17.5 -8q-12 0 -18 8t-6 20zM177 346q21 0 35.5 15t14.5 38t-14.5 39.5t-35.5 16.5t-35.5 -16t-14.5 -40q0 -23 14.5 -38t35.5 -15z" />
    <glyph glyph-name="ae" unicode="&#xe6;" horiz-adv-x="661" 
d="M671 -170l-684 -11v576l673 6zM601 97v13q0 190 -160 190q-67 0 -104 -34q-17 17 -43 25.5t-66 8.5q-41 0 -69.5 -9t-46.5 -25t-26 -38t-9 -48h90q3 20 15 31.5t41 11.5q22 0 36 -7.5t14 -22.5q0 -16 -10 -22.5t-39 -11.5q-34 -5 -63 -12t-50 -19.5t-33 -33.5t-12 -54
q0 -45 26.5 -71t85.5 -26q53 0 85 14.5t52 41.5q21 -32 54 -44t77 -12q57 0 96 28t55 81h-102q-4 -14 -19 -22.5t-34 -8.5q-29 0 -47.5 21t-20.5 55h227zM274 82q0 -26 -18.5 -47t-55.5 -21q-36 0 -36 32q0 18 13 28.5t48 18.5q23 5 33.5 8.5t15.5 9.5v-29zM376 156
q3 33 20 49t43 16t43 -15.5t18 -49.5h-124z" />
    <glyph glyph-name="ccedilla" unicode="&#xe7;" horiz-adv-x="527" 
d="M420 542l68 -776l-416 -46l-70 777zM264 -88q6 1 10 1h8q9 0 16.5 -5t7.5 -14q0 -8 -5 -14.5t-19 -6.5q-18 0 -33 15l6 -44q6 -4 14 -5.5t23 -1.5q28 0 42.5 17t14.5 36q0 30 -14.5 45t-39.5 15q-15 0 -16 -1l-4 17l13 2q60 14 93 54t41 103l-54 8q-2 -54 -28 -83.5
t-68 -29.5q-25 0 -48.5 10.5t-41.5 28.5t-29 42t-11 51q0 83 31 130t91 47q67 0 91 -85l53 17q-18 60 -57 92t-91 32q-41 0 -73 -16.5t-54.5 -46t-34 -69.5t-11.5 -87q0 -81 43 -136t124 -64z" />
    <glyph glyph-name="egrave" unicode="&#xe8;" horiz-adv-x="773" 
d="M744 561l-90 -769l-611 68l89 769zM632 104q3 21 5 42.5t2 41.5q0 48 -12.5 91t-39 75t-68 50.5t-99.5 18.5q-48 0 -89 -20.5t-71 -56.5t-46.5 -85t-16.5 -106q0 -50 14.5 -92.5t41.5 -74t64.5 -49.5t84.5 -18q81 0 132.5 37.5t83.5 103.5l-143 18q-8 -12 -22.5 -18
t-31.5 -6q-16 0 -31.5 5t-27.5 15t-19.5 25t-7.5 36zM366 254q8 19 23.5 27.5t32.5 8.5q22 0 40.5 -12.5t23.5 -35.5zM424 456l68 -8l-36 127l-96 11z" />
    <glyph glyph-name="eacute" unicode="&#xe9;" horiz-adv-x="773" 
d="M670 630l45 -788l-614 -35l-46 788zM641 146q0 56 -12 107.5t-38 90.5t-66 62t-97 23q-52 0 -94 -18t-72 -51t-46.5 -78t-16.5 -99q0 -56 16 -103.5t44 -82t66.5 -54t83.5 -19.5q47 0 84 14t65 38t46.5 56.5t29.5 69.5l-144 -6q-7 -17 -25 -26t-41 -9q-27 0 -51 16.5
t-30 51.5zM354 249q6 24 24 35t37 11t35 -9.5t24 -28.5zM482 572h-75l-26 -115h55z" />
    <glyph glyph-name="ecircumflex" unicode="&#xea;" horiz-adv-x="664" 
d="M236 467l-34 -87l59 7l32 74l49 -64l62 10l-62 83l195 41l122 -680l-540 -114l-122 680zM557 134q-8 51 -23 96t-39 78.5t-57 52.5t-77 19q-47 0 -84.5 -17.5t-64 -48t-40.5 -72.5t-14 -90q0 -57 16 -106t43 -84t62.5 -55t74.5 -20q29 0 56 10q69 23 103 73t43 121
l-127 -26q-5 -19 -24 -30t-42 -11q-22 0 -41 12.5t-28 41.5zM290 196q3 27 21 39.5t36 12.5q14 0 27 -7.5t21 -21.5z" />
    <glyph glyph-name="edieresis" unicode="&#xeb;" horiz-adv-x="529" 
d="M499 588v-695h-472v689zM438 133q0 44 -7.5 84t-26.5 70.5t-50 48.5t-77 18q-39 0 -71 -13.5t-55 -38.5t-35.5 -60t-12.5 -77t11.5 -77.5t32.5 -61t49.5 -39.5t63.5 -14q69 0 110 35t61 92h-110q-5 -12 -18.5 -18t-29.5 -6q-22 0 -41 13t-22 41zM223 222q5 15 18 23.5
t27 8.5t28 -7.5t19 -23.5zM393 418v79h-89v-79h89zM217 418v79h-89v-79h89z" />
    <glyph glyph-name="igrave" unicode="&#xec;" horiz-adv-x="476" 
d="M428 727l39 -835l-342 -16l-39 835zM355 416l-132 -7l4 -90l42 2l14 -334l90 4zM265 475h69l-50 124h-97z" />
    <glyph glyph-name="iacute" unicode="&#xed;" horiz-adv-x="476" 
d="M385 620h-97l-52 -124h73zM428 727l39 -835l-342 -16l-39 835zM355 416l-132 -7l4 -90l42 2l14 -334l90 4z" />
    <glyph glyph-name="icircumflex" unicode="&#xee;" horiz-adv-x="476" 
d="M428 727l39 -835l-342 -16l-39 835zM355 416l-132 -7l4 -90l42 2l14 -334l90 4zM328 492h72l-77 123h-81l-74 -123h69l45 86z" />
    <glyph glyph-name="idieresis" unicode="&#xef;" horiz-adv-x="476" 
d="M428 727l39 -835l-342 -16l-39 835zM342 416l-132 -7v-90l46 2l14 -334h90zM411 472l-4 85l-96 -5l4 -85zM222 463l-4 85l-96 -5l4 -85z" />
    <glyph glyph-name="eth" unicode="&#xf0;" 
d="M142 709l475 -52l-81 -743l-475 51zM399 410l37 26q9 -27 12.5 -60.5t3.5 -76.5q-37 79 -153 79q-38 0 -69 -14t-53.5 -38.5t-35 -57.5t-12.5 -71q0 -39 13.5 -72t37 -56t55.5 -36t70 -13q47 0 85 23t64.5 63.5t41 97t14.5 124.5q0 85 -24 142l39 27l-30 39l-33 -25
q-49 64 -148 64q-46 0 -83 -22l30 -47q23 14 53 14q67 0 101 -46l-38 -29zM299 323q30 0 54.5 -8.5t42.5 -24t28 -37t10 -46.5q0 -27 -10 -51t-27.5 -42t-41 -28.5t-51.5 -10.5q-55 0 -87 35.5t-32 86.5q0 55 32.5 90.5t81.5 35.5z" />
    <glyph glyph-name="ntilde" unicode="&#xf1;" horiz-adv-x="729" 
d="M214 408l-7 -90l50 -6l-29 -303l89 -8l28 265q13 45 81 45q30 0 50 -17t16 -53l-25 -277l93 -7l23 270q7 85 -35.5 129.5t-115.5 44.5q-29 0 -58 -9t-49 -24l2 30zM327 415q17 47 44 47q9 0 24 -7t31 -15.5t31 -15.5t25 -7q13 0 25.5 8t17.5 26v14l161 -11l-41 -571
l-596 42l39 571l239 -17v-64z" />
    <glyph glyph-name="ograve" unicode="&#xf2;" horiz-adv-x="791" 
d="M371 487h69l-49 123h-97zM761 -112l-649 -56l-67 790l649 55zM647 226q0 108 -56 166.5t-152 58.5q-50 0 -90 -16.5t-67.5 -46.5t-42.5 -73t-15 -96q0 -46 13 -89.5t39 -77.5t65 -54.5t92 -20.5q101 0 157.5 64t56.5 185zM441 337q27 0 45 -13t29 -33t16 -44.5t5 -47.5
q0 -55 -25.5 -82t-72.5 -27q-42 0 -71 35.5t-29 92.5q0 56 27.5 87.5t75.5 31.5z" />
    <glyph glyph-name="oacute" unicode="&#xf3;" horiz-adv-x="791" 
d="M554 618l-96 13l-67 -115l71 -10zM712 -154l-651 26l33 792l651 -27zM431 -27q58 0 99 22.5t66.5 60t37 85t11.5 97.5q0 48 -15 86.5t-43 65.5t-68.5 42t-90.5 15q-45 0 -83.5 -17t-66.5 -48.5t-44 -77t-16 -102.5q0 -44 12.5 -85t38.5 -73t66 -51.5t96 -19.5zM437 333
q24 0 41.5 -10t29 -27t17 -38.5t5.5 -44.5q0 -65 -25.5 -96t-69.5 -31t-73.5 30.5t-29.5 85.5q0 63 30 97t75 34z" />
    <glyph glyph-name="ocircumflex" unicode="&#xf4;" horiz-adv-x="791" 
d="M450 490h71l-77 123h-81l-74 -123h69l45 86zM761 -112l-649 -56l-67 790l649 55zM647 226q0 108 -56 166.5t-152 58.5q-50 0 -90 -16.5t-67.5 -46.5t-42.5 -73t-15 -96q0 -46 13 -89.5t39 -77.5t65 -54.5t92 -20.5q101 0 157.5 64t56.5 185zM441 337q27 0 45 -13t29 -33
t16 -44.5t5 -47.5q0 -55 -25.5 -82t-72.5 -27q-42 0 -71 35.5t-29 92.5q0 56 27.5 87.5t75.5 31.5z" />
    <glyph glyph-name="otilde" unicode="&#xf5;" horiz-adv-x="791" 
d="M349 503q24 37 49 37q10 0 24.5 -11t30.5 -24.5t31 -24.5t26 -11q19 0 40 23l20 86q-28 -46 -56 -46q-9 0 -24 11.5t-31 25t-31.5 25t-25.5 11.5q-18 0 -33 -19zM667 -184l-644 94l116 784l644 -95zM428 -30q52 0 92 21t67.5 56t41.5 81t14 96t-15 90.5t-43.5 69.5
t-69 44.5t-91.5 15.5q-43 0 -81.5 -17.5t-67.5 -50.5t-46 -80.5t-17 -107.5q0 -41 12.5 -80t38.5 -69.5t67 -49.5t98 -19zM432 329q45 0 69.5 -30.5t24.5 -77.5q0 -69 -28 -104t-70 -35q-45 0 -73.5 30t-28.5 82q0 32 8.5 57t23.5 42.5t34 26.5t40 9z" />
    <glyph glyph-name="odieresis" unicode="&#xf6;" horiz-adv-x="791" 
d="M761 -112l-649 -56l-67 790l649 55zM647 226q0 108 -56 166.5t-152 58.5q-50 0 -90 -16.5t-67.5 -46.5t-42.5 -73t-15 -96q0 -46 13 -89.5t39 -77.5t65 -54.5t92 -20.5q101 0 157.5 64t56.5 185zM441 337q27 0 45 -13t29 -33t16 -44.5t5 -47.5q0 -55 -25.5 -82t-72.5 -27
q-42 0 -71 35.5t-29 92.5q0 56 27.5 87.5t75.5 31.5zM540 498l-9 79l-91 -8l9 -81zM362 478l-9 81l-91 -10l9 -79z" />
    <glyph glyph-name="divide" unicode="&#xf7;" horiz-adv-x="442" 
d="M467 -10l-432 -71l-81 453l431 73zM368 198l-8 44l-309 -56l8 -44zM160 339l10 -58l43 5l-11 60zM250 96l-45 -6l9 -45l44 7z" />
    <glyph glyph-name="oslash" unicode="&#xf8;" horiz-adv-x="791" 
d="M761 -112l-649 -56l-67 790l649 55zM541 406q-62 47 -127 47q-41 0 -76 -18.5t-60.5 -51t-39.5 -75.5t-14 -92q0 -91 51 -155l-72 -93l46 -39l71 89q53 -41 123 -41q43 0 80 17.5t64.5 47t43.5 69t16 83.5q0 88 -54 160l57 70l-59 46zM524 269q8 -21 11 -48
q0 -28 -5 -52.5t-16 -42.5t-28 -28.5t-41 -10.5q-29 0 -54 17zM348 155q-13 27 -13 61q0 51 25 84t67 38q30 0 52 -13z" />
    <glyph glyph-name="ugrave" unicode="&#xf9;" horiz-adv-x="719" 
d="M319 470l59 -4l-34 111l-83 7zM668 -93l-616 7l6 708l615 -7zM532 -13l2 93l-43 1l4 311l-95 -1l-5 -215q-1 -46 -22 -75t-69 -27q-35 2 -52.5 22.5t-16.5 62.5l3 266l-92 1l-2 -275q-1 -87 39 -126t108 -43q37 -2 71 9.5t53 34.5v-37z" />
    <glyph glyph-name="uacute" unicode="&#xfa;" horiz-adv-x="719" 
d="M386 564h-79l-41 -99h58zM679 -54l-598 -30l-33 664l598 30zM543 17l-4 91l-42 -2l-15 306l-93 -7l10 -212q2 -45 -17.5 -75t-65.5 -30q-34 0 -52 18.5t-20 60.5l-13 261l-90 -5l14 -269q5 -86 46.5 -121.5t107.5 -35.5q36 0 68.5 13.5t49.5 37.5l2 -36z" />
    <glyph glyph-name="ucircumflex" unicode="&#xfb;" horiz-adv-x="719" 
d="M356 470h59l-64 101h-67l-60 -101h57l37 71zM679 -54l-598 -30l-35 679l598 30zM543 17l-4 91l-42 -2l-15 306l-93 -7l10 -212q2 -45 -17.5 -75t-65.5 -30q-34 0 -52 18.5t-20 60.5l-13 261l-90 -5l14 -269q5 -86 46.5 -121.5t107.5 -35.5q36 0 68.5 13.5t49.5 37.5
l2 -36z" />
    <glyph glyph-name="udieresis" unicode="&#xfc;" horiz-adv-x="719" 
d="M679 -54l-598 -30l-30 684l598 30zM543 17l-4 91l-42 -2l-15 306l-93 -7l10 -212q2 -45 -17.5 -75t-65.5 -30q-34 0 -52 18.5t-20 60.5l-13 261l-90 -5l14 -269q5 -86 46.5 -121.5t107.5 -35.5q36 0 68.5 13.5t49.5 37.5l2 -36zM475 497l-7 98l-110 -8l7 -98zM258 481
l-8 98l-109 -8l7 -98z" />
    <glyph glyph-name="yacute" unicode="&#xfd;" horiz-adv-x="687" 
d="M636 -208h-581v712h280l-32 -76h73l48 78l199 4zM573 393l-78 30l-117 -311l-129 294l-115 -3l2 -82h59l140 -320l-52 -135l79 -30z" />
    <glyph glyph-name="thorn" unicode="&#xfe;" horiz-adv-x="563" 
d="M129 684l-4 -51l48 -5l-74 -650l-100 9l73 739l483 -50l-73 -737l-332 33l30 240q41 -62 111 -62q34 0 63 16t49.5 43t32 63t11.5 76q0 38 -10 70.5t-28.5 56t-44.5 37t-58 13.5q-53 0 -98 -45l19 195zM292 201q-42 0 -66.5 33.5t-24.5 93.5q0 29 5.5 55t18 46t33.5 31.5
t52 11.5q40 0 64.5 -36t24.5 -93q0 -26 -7.5 -51.5t-21.5 -45.5t-33.5 -32.5t-44.5 -12.5z" />
    <glyph glyph-name="ydieresis" unicode="&#xff;" horiz-adv-x="687" 
d="M636 -208h-581v787l568 11zM573 393l-78 30l-117 -311l-129 294l-115 -3l2 -82h59l140 -320l-52 -135l79 -30zM516 456l-3 93l-108 -1l3 -94zM305 450l-3 93l-106 -1l3 -94z" />
    <glyph glyph-name="Amacron" unicode="&#x100;" horiz-adv-x="711" 
d="M637 549v-620h-578v621zM576 -19l-178 451h-210v-66h114l-153 -383l61 -25l52 132h200l54 -133zM437 155h-149l75 187zM243 482h213v54h-213v-54z" />
    <glyph glyph-name="amacron" unicode="&#x101;" horiz-adv-x="331" 
d="M333 -181h-328l-18 694h348l-2 -471q-12 1 -18.5 10t-8.5 24q-3 39 -5.5 72t-5.5 58q-5 37 -13.5 61t-22 38t-31.5 19t-42 5q-48 0 -78 -23t-44 -75l42 -11q10 32 29.5 49t48.5 17q16 0 27 -3.5t18.5 -12.5t12 -25.5t7.5 -42.5q-38 0 -72 -4.5t-60 -15.5
q-29 -14 -45.5 -35.5t-16.5 -59.5q0 -15 4.5 -30.5t17 -27.5t34 -19.5t55.5 -7.5q42 0 68.5 11t38.5 28q4 -21 22.5 -32t37.5 -11v-179zM253 163q2 -14 3.5 -34.5t3.5 -46.5q-11 -21 -31 -32t-59 -11q-36 0 -52.5 14t-16.5 35q0 41 37 58q16 8 41.5 12t73.5 5zM77 383h201
v46h-201v-46z" />
    <glyph glyph-name="Abreve" unicode="&#x102;" horiz-adv-x="711" 
d="M265 549q1 -42 27 -63t59 -21q16 0 31.5 5t27.5 15.5t19.5 26.5t7.5 37h200v-620h-578v621zM576 -4l-178 451h-210v-66h114l-153 -383l61 -25l52 132h200l54 -133zM437 170h-149l75 187zM351 513q-18 0 -26.5 9.5t-10.5 26.5h74q-2 -17 -11 -26.5t-26 -9.5z" />
    <glyph glyph-name="abreve" unicode="&#x103;" horiz-adv-x="331" 
d="M333 -181h-328l-18 694h348l-2 -471q-12 1 -18.5 10t-8.5 24q-3 39 -5.5 72t-5.5 58q-5 37 -13.5 61t-22 38t-31.5 19t-42 5q-48 0 -78 -23t-44 -75l42 -11q10 32 29.5 49t48.5 17q16 0 27 -3.5t18.5 -12.5t12 -25.5t7.5 -42.5q-38 0 -72 -4.5t-60 -15.5
q-29 -14 -45.5 -35.5t-16.5 -59.5q0 -15 4.5 -30.5t17 -27.5t34 -19.5t55.5 -7.5q42 0 68.5 11t38.5 28q4 -21 22.5 -32t37.5 -11v-179zM253 163q2 -14 3.5 -34.5t3.5 -46.5q-11 -21 -31 -32t-59 -11q-36 0 -52.5 14t-16.5 35q0 41 37 58q16 8 41.5 12t73.5 5zM211 439
q-2 -34 -32 -34q-31 0 -33 34h-43q0 -38 23.5 -57t52.5 -19t52.5 19t23.5 57h-44z" />
    <glyph glyph-name="Aogonek" unicode="&#x104;" horiz-adv-x="711" 
d="M576 33q-12 -3 -28 -3q-18 0 -29.5 3.5t-11.5 13.5q0 6 1.5 11t8 11t20.5 14t39 20l-178 451h-210v-66h114l-153 -383l61 -25l52 132h200l49 -120q-39 -17 -61.5 -39t-22.5 -51q0 -26 19.5 -42t56.5 -16q29 0 45.5 5t27.5 13v71zM437 277h-149l75 187zM637 649l3 -726
h-578l-3 727z" />
    <glyph glyph-name="aogonek" unicode="&#x105;" horiz-adv-x="331" 
d="M273 41q2 -16 13.5 -25.5t25.5 -14.5q-37 -11 -58.5 -29.5t-21.5 -42.5q0 -20 14.5 -31.5t41.5 -11.5q29 0 45 8v-75h-328l-18 694h348l-2 -471q-12 1 -18.5 10t-8.5 24q-3 39 -5.5 72t-5.5 58q-5 37 -13.5 61t-22 38t-31.5 19t-42 5q-48 0 -78 -23t-44 -75l42 -11
q10 32 29.5 49t48.5 17q16 0 27 -3.5t18.5 -12.5t12 -25.5t7.5 -42.5q-41 0 -76 -5t-61.5 -17.5t-41.5 -35t-15 -57.5q0 -15 4.5 -30.5t17 -27.5t34 -19.5t55.5 -7.5q42 0 68.5 11t38.5 28zM253 163q2 -14 3.5 -34.5t3.5 -46.5q-11 -21 -31 -32t-59 -11q-36 0 -52.5 14
t-16.5 35q0 17 5 30.5t21 23t46 15t80 6.5zM333 -50q-4 -1 -12 -1q-13 0 -21.5 2.5t-8.5 10.5t5.5 15t34.5 21h2v-48z" />
    <glyph glyph-name="Cacute" unicode="&#x106;" horiz-adv-x="522" 
d="M500 463l-12 -629l-473 12l13 629zM381 20q-14 -46 -43.5 -64t-62.5 -18q-29 0 -51.5 12t-38.5 33t-24.5 50t-8.5 63q0 73 35 117.5t94 44.5q37 0 61 -21t27 -61l66 11q-7 67 -50.5 102.5t-102.5 35.5q-43 0 -79 -16.5t-61.5 -46t-40 -71t-14.5 -90.5q0 -112 51 -171.5
t139 -59.5q56 0 99 32t60 97zM366 435h-79l-43 -93h59z" />
    <glyph glyph-name="cacute" unicode="&#x107;" horiz-adv-x="527" 
d="M371 525h-75l-40 -104h55zM449 260q-14 62 -52.5 100t-99.5 38q-39 0 -72 -16.5t-56 -44t-36 -64.5t-13 -79q0 -55 14 -95.5t37.5 -67.5t54.5 -40t66 -13q66 0 106.5 40t51.5 105l-54 13q-11 -54 -36 -78.5t-65 -24.5q-22 0 -43 9t-37.5 28t-27 49t-10.5 72q0 28 8 55.5
t23.5 49t38 35t51.5 13.5q79 0 97 -96zM487 559l9 -638l-419 -7l-9 639z" />
    <glyph glyph-name="Cdotaccent" unicode="&#x10a;" horiz-adv-x="698" 
d="M632 626l-14 -732l-563 12l16 732zM495 132q-16 -50 -47.5 -69.5t-67.5 -19.5q-31 0 -55.5 13t-42 36t-26.5 54t-9 68q0 79 38 127.5t102 48.5q40 0 66 -23t29 -66l71 12q-3 36 -17.5 64t-37 46.5t-51 28.5t-59.5 10q-47 0 -86 -17.5t-66.5 -49.5t-43 -76.5t-15.5 -98.5
q0 -121 55.5 -185.5t150.5 -64.5q60 0 106.5 35t64.5 105zM442 515v79h-89v-79h89z" />
    <glyph glyph-name="cdotaccent" unicode="&#x10b;" horiz-adv-x="505" 
d="M456 528l13 -638l-419 -9l-13 639zM420 249q-14 62 -52.5 99.5t-98.5 37.5q-40 0 -72.5 -16.5t-56 -44t-36 -64.5t-12.5 -78q0 -55 14 -96t37.5 -68t54.5 -40t66 -13q66 0 106 40.5t51 105.5l-53 12q-11 -54 -36 -78.5t-65 -24.5q-22 0 -43.5 9t-38 28.5t-26.5 49.5
t-10 72q0 29 8 56.5t23 48.5t37.5 34t52.5 13q76 0 96 -95zM292 427v57h-64v-57h64z" />
    <glyph glyph-name="Ccaron" unicode="&#x10c;" horiz-adv-x="624" 
d="M601 642l-14 -748l-563 12l16 748zM454 132q-16 -50 -47.5 -69.5t-67.5 -19.5q-31 0 -55.5 13t-42 36t-26.5 54t-9 68q0 79 38 127.5t102 48.5q40 0 66 -23t29 -66l71 12q-3 36 -17.5 64t-37 46.5t-51 28.5t-59.5 10q-47 0 -86 -17.5t-66.5 -49.5t-43 -76.5t-15.5 -98.5
q0 -121 55.5 -185.5t150.5 -64.5q60 0 106.5 35t64.5 105zM302 622h-72l79 -122h81l74 122h-70l-45 -87z" />
    <glyph glyph-name="ccaron" unicode="&#x10d;" horiz-adv-x="501" 
d="M420 348q-14 62 -52.5 100t-99.5 38q-39 0 -72 -16.5t-56 -44t-36 -64.5t-13 -79q0 -55 14 -95.5t37.5 -67.5t54.5 -40t65 -13q66 0 107 40t52 105l-54 13q-11 -54 -36 -78.5t-65 -24.5q-22 0 -43 9t-37.5 28t-27 49t-10.5 72q0 28 8 55.5t23.5 49t38 35t51.5 13.5
q79 0 97 -96zM232 610h-53l58 -90h59l55 90h-52l-33 -64zM458 627l9 -638l-419 -7l-9 639z" />
    <glyph glyph-name="Dcaron" unicode="&#x10e;" horiz-adv-x="587" 
d="M563 604l-19 -676l-517 17l19 674zM490 214q0 57 -13.5 100.5t-45 73t-84 44t-130.5 14.5h-50.5h-36t-27 0.5t-22.5 1.5l-1 -46l60 -2l-10 -400q35 -5 69.5 -5.5t66.5 -0.5q46 0 87 14.5t71.5 42t48 68.5t17.5 95zM446 218q0 -86 -45.5 -133t-134.5 -47q-20 0 -38.5 0.5
t-51.5 4.5l8 357h63q103 0 151 -47.5t48 -134.5zM253 562h-55l60 -92h61l56 92h-53l-34 -66z" />
    <glyph glyph-name="dcaron" unicode="&#x10f;" horiz-adv-x="758" 
d="M507 268q31 6 50.5 17t30 29.5t14.5 44t4 60.5l-2 80h-106l4 -106l58 -1q-2 -38 -12 -56t-42 -27zM679 -171h-621v830h621v-830zM628 -109v72h-97q-27 0 -44 6.5t-27 20.5t-14 37.5t-4 56.5l-2 374h-108v-73h36v-76q-38 26 -78 26q-32 0 -58.5 -14t-45.5 -37.5
t-29.5 -54.5t-10.5 -64q0 -86 36 -136t101 -50q25 0 50.5 11t43.5 30q7 -56 42 -92.5t95 -36.5h114zM361 163q0 -110 -75 -110q-69 0 -69 112q0 42 19 69.5t53 27.5t53 -29.5t19 -69.5z" />
    <glyph glyph-name="Dcroat" unicode="&#x110;" horiz-adv-x="539" 
d="M531 492l-14 -608l-524 14l13 607zM94 183l37 -2l-4 -188q17 -2 43.5 -3.5t66.5 -1.5q102 0 154.5 59t52.5 161q0 56 -12 99t-40.5 72.5t-74.5 44.5t-115 15h-48q-30 0 -70 3l-2 -45l50 -3v-167l-35 2zM405 210q0 -89 -42 -133.5t-120 -44.5q-22 0 -38 1t-37 4l1 144
l98 -2v44l-94 4v167h57q91 0 133 -46.5t42 -137.5z" />
    <glyph glyph-name="dmacron" unicode="&#x111;" horiz-adv-x="611" 
d="M266 398l93 -7l-5 -69q-20 14 -40.5 22.5t-43.5 8.5q-35 0 -62 -15.5t-46.5 -41.5t-29.5 -59t-10 -69q0 -76 34.5 -123t97.5 -47q23 0 47.5 9t42.5 26q3 -57 35.5 -95t92.5 -43l64 -5l-4 -61l-519 34l55 828l519 -34l-46 -695l-47 3q-47 3 -64.5 26t-17.5 74v13t1 14
l18 295l48 -4l3 54l-48 3l7 104l-107 7l-5 -72l36 -3l-2 -31l-93 6zM337 176q-6 -104 -75 -104t-69 95q0 48 18.5 80.5t55.5 32.5q19 0 32.5 -8.5t21.5 -23t12 -33.5t4 -39z" />
    <glyph glyph-name="Emacron" unicode="&#x112;" horiz-adv-x="581" 
d="M524 549l4 -677l-494 -3l-6 677zM443 396l-348 -3l1 -64h59l2 -399l299 2v65l-234 -1l-2 143l217 1l1 66l-218 -1v125l224 1zM185 441h213v54h-213v-54z" />
    <glyph glyph-name="emacron" unicode="&#x113;" horiz-adv-x="650" 
d="M578 613l22 -778l-561 -15l-22 778zM541 114q-1 20 -1 39t-2 38q-6 40 -20.5 74t-38 59t-56.5 39.5t-76 14.5q-46 0 -84.5 -16.5t-66 -46.5t-42.5 -71.5t-15 -91.5t14 -93t38.5 -74.5t59.5 -49t77 -17.5q43 0 76.5 12t59 33t42.5 49.5t28 61.5l-131 -1q-8 -15 -24.5 -22
t-35.5 -7q-26 0 -47.5 15t-26.5 48zM282 216q7 22 23 31.5t33 9.5t33 -9.5t22 -26.5zM230 440h213v54h-213v-54z" />
    <glyph glyph-name="Ebreve" unicode="&#x114;" horiz-adv-x="552" 
d="M524 599l4 -677l-494 -3l-6 677zM443 446l-348 -3l1 -64h59l2 -399l299 2v65l-234 -1l-2 143l217 1l1 66l-218 -1v125l224 1zM336 573q-2 -20 -10.5 -31t-28.5 -11t-29 11t-11 31h-52q0 -23 8 -40.5t20.5 -29t29 -17.5t34.5 -6q17 0 33.5 6t29 17.5t20.5 29t8 40.5h-52z
" />
    <glyph glyph-name="ebreve" unicode="&#x115;" horiz-adv-x="626" 
d="M578 613l22 -778l-561 -15l-22 778zM541 114q-1 20 -1 39t-2 38q-6 40 -20.5 74t-38 59t-56.5 39.5t-76 14.5q-46 0 -84.5 -16.5t-66 -46.5t-42.5 -71.5t-15 -91.5t14 -93t38.5 -74.5t59.5 -49t77 -17.5q43 0 76.5 12t59 33t42.5 49.5t28 61.5l-131 -1q-8 -15 -24.5 -22
t-35.5 -7q-26 0 -47.5 15t-26.5 48zM282 216q7 22 23 31.5t33 9.5t33 -9.5t22 -26.5zM370 534q-2 -24 -13 -37.5t-35 -13.5t-35 13.5t-13 37.5h-64q0 -29 9.5 -50t25 -35t36 -21t41.5 -7t41.5 7t36 21t25 35t9.5 50h-64z" />
    <glyph glyph-name="Edotaccent" unicode="&#x116;" horiz-adv-x="554" 
d="M524 699l4 -677l-494 -3l-6 677zM443 546l-348 -3l1 -64h59l2 -399l299 2v65l-234 -1l-2 143l217 1l1 66l-218 -1v125l224 1zM338 587v79h-89v-79h89z" />
    <glyph glyph-name="edotaccent" unicode="&#x117;" horiz-adv-x="638" 
d="M578 593l22 -778l-561 -15l-22 778zM541 94q-1 20 -1 39t-2 38q-6 40 -20.5 74t-38 59t-56.5 39.5t-76 14.5q-46 0 -84.5 -16.5t-66 -46.5t-42.5 -71.5t-15 -91.5t14 -93t38.5 -74.5t59.5 -49t77 -17.5q43 0 76.5 12t59 33t42.5 49.5t28 61.5l-131 -1q-8 -15 -24.5 -22
t-35.5 -7q-26 0 -47.5 15t-26.5 48zM282 196q7 22 23 31.5t33 9.5t33 -9.5t22 -26.5zM376 424v79h-89v-79h89z" />
    <glyph glyph-name="Eogonek" unicode="&#x118;" horiz-adv-x="623" 
d="M577 520l-38 -706l-493 26l36 706zM475 -84q-11 -3 -23 -3q-15 0 -24.5 3t-9.5 11q0 6 1 10t7 8.5t17.5 11t32.5 15.5l4 65l-234 13l7 143l217 -12l4 65l-217 12l7 125l224 -12l3 65l-348 18l-3 -64l59 -4l-22 -398l269 -14q-44 -14 -69.5 -35t-25.5 -49q0 -22 16 -35
t47 -13q24 0 38 4t23 11v59z" />
    <glyph glyph-name="eogonek" unicode="&#x119;" horiz-adv-x="550" 
d="M488 478l51 -658l-482 -38l-51 656zM371 -60q-12 -5 -26.5 -8t-25.5 -3q-23 0 -23 20q0 7 4.5 14t17.5 18q63 11 98 48t49 93l-113 -8q-5 -13 -20 -20.5t-32 -7.5q-22 0 -40.5 12t-24.5 39l235 20q-2 44 -12.5 83.5t-30.5 69.5t-51 47.5t-74 17.5q-41 0 -74.5 -14
t-57 -39.5t-36.5 -61t-13 -77.5q0 -43 12 -80t33 -64t50 -43.5t63 -18.5q-26 -20 -41 -41.5t-15 -44.5q0 -29 17.5 -44.5t46.5 -15.5q40 0 64.5 12.5t34.5 23.5zM242 232q4 20 19.5 28.5t29.5 8.5t26.5 -7t18.5 -21z" />
    <glyph glyph-name="Ecaron" unicode="&#x11a;" horiz-adv-x="623" 
d="M524 599l4 -677l-494 -3l-6 677zM443 446l-348 -3l1 -64h59l2 -399l299 2v65l-234 -1l-2 143l217 1l1 66l-218 -1v125l224 1zM260 578h-62l68 -105h71l64 105h-61l-39 -74z" />
    <glyph glyph-name="ecaron" unicode="&#x11b;" horiz-adv-x="624" 
d="M578 653l22 -778l-561 -15l-22 778zM541 154q-1 20 -1 39t-2 38q-6 40 -20.5 74t-38 59t-56.5 39.5t-76 14.5q-46 0 -84.5 -16.5t-66 -46.5t-42.5 -71.5t-15 -91.5t14 -93t38.5 -74.5t59.5 -49t77 -17.5q43 0 76.5 12t59 33t42.5 49.5t28 61.5l-131 -1q-8 -15 -24.5 -22
t-35.5 -7q-26 0 -47.5 15t-26.5 48zM282 256q7 22 23 31.5t33 9.5t33 -9.5t22 -26.5zM286 585h-72l79 -122h81l74 122h-70l-45 -87z" />
    <glyph glyph-name="Gbreve" unicode="&#x11e;" horiz-adv-x="622" 
d="M593 -188h-554v816h554v-816zM475 166q0 83 -84 83h-141v-44h141q39 0 39 -39v-110q-20 -12 -45.5 -16.5t-62.5 -4.5q-76 0 -119 50t-43 135q0 40 11 74.5t30.5 59.5t46.5 39.5t59 14.5q48 0 79.5 -21t39.5 -68l42 10q-11 61 -53.5 92.5t-99.5 31.5q-43 0 -79.5 -18.5
t-63.5 -50t-42 -74t-15 -90.5q0 -52 16.5 -95t45.5 -73.5t67.5 -47t83.5 -16.5q27 0 56 5t46 17q0 -18 -1.5 -30t-7.5 -18.5t-17 -9.5t-30 -3h-178v-44h178q28 0 47 4.5t31 18t17.5 38.5t5.5 65v135zM369 587q-2 -18 -10.5 -28.5t-26.5 -10.5q-19 0 -27 10.5t-10 28.5h-49
q0 -44 26.5 -65.5t59.5 -21.5t59.5 21.5t26.5 65.5h-49z" />
    <glyph glyph-name="gbreve" unicode="&#x11f;" horiz-adv-x="537" 
d="M488 -156h-459v740h458zM424 74q2 24 3 54t1 65q0 20 -0.5 41.5t-0.5 44.5q0 30 0.5 62t1.5 67l-55 2l-2 -49q-24 26 -53 40.5t-65 14.5q-35 0 -65.5 -14.5t-52.5 -42.5t-34.5 -67.5t-12.5 -88.5q0 -36 9 -68t28 -57t49.5 -39.5t74.5 -14.5q46 0 77 19.5t42 43.5
q-4 -42 -17 -68.5t-33.5 -41.5t-47.5 -20.5t-58 -5.5q-18 0 -36.5 1t-38.5 3v-57q20 -2 40 -3t40 -1q37 0 72 6.5t63 26t47 55t24 92.5zM264 360q48 -5 75 -40t27 -92q0 -23 -5.5 -49.5t-18 -49t-34 -37t-53.5 -14.5q-48 0 -79.5 34.5t-31.5 94.5q0 39 9.5 68t25.5 48t38 28
t47 9zM308 548q-1 -19 -9.5 -29.5t-28.5 -10.5q-35 0 -38 40h-51q0 -45 27.5 -67.5t61.5 -22.5t61.5 22.5t27.5 67.5h-51z" />
    <glyph glyph-name="Gdotaccent" unicode="&#x120;" horiz-adv-x="622" 
d="M593 -188h-554v816h554v-816zM475 166q0 83 -84 83h-141v-44h141q39 0 39 -39v-110q-20 -12 -45.5 -16.5t-62.5 -4.5q-76 0 -119 50t-43 135q0 40 11 74.5t30.5 59.5t46.5 39.5t59 14.5q48 0 79.5 -21t39.5 -68l42 10q-11 61 -53.5 92.5t-99.5 31.5q-43 0 -79.5 -18.5
t-63.5 -50t-42 -74t-15 -90.5q0 -52 16.5 -95t45.5 -73.5t67.5 -47t83.5 -16.5q27 0 56 5t46 17q0 -18 -1.5 -30t-7.5 -18.5t-17 -9.5t-30 -3h-178v-44h178q28 0 47 4.5t31 18t17.5 38.5t5.5 65v135zM350 514v54h-60v-54h60z" />
    <glyph glyph-name="gdotaccent" unicode="&#x121;" horiz-adv-x="531" 
d="M488 -156h-459v740h458zM424 74q2 24 3 54t1 65q0 20 -0.5 41.5t-0.5 44.5q0 30 0.5 62t1.5 67l-55 2l-2 -49q-24 26 -53 40.5t-65 14.5q-35 0 -65.5 -14.5t-52.5 -42.5t-34.5 -67.5t-12.5 -88.5q0 -36 9 -68t28 -57t49.5 -39.5t74.5 -14.5q46 0 77 19.5t42 43.5
q-4 -42 -17 -68.5t-33.5 -41.5t-47.5 -20.5t-58 -5.5q-18 0 -36.5 1t-38.5 3v-57q20 -2 40 -3t40 -1q37 0 72 6.5t63 26t47 55t24 92.5zM264 360q48 -5 75 -40t27 -92q0 -23 -5.5 -49.5t-18 -49t-34 -37t-53.5 -14.5q-48 0 -79.5 34.5t-31.5 94.5q0 39 9.5 68t25.5 48t38 28
t47 9zM305 467v65h-73v-65h73z" />
    <glyph glyph-name="Gcommaaccent" unicode="&#x122;" horiz-adv-x="622" 
d="M593 -188h-554v816h554v-816zM475 266q0 83 -84 83h-141v-44h141q39 0 39 -39v-110q-20 -12 -45.5 -16.5t-62.5 -4.5q-76 0 -119 50t-43 135q0 40 11 74.5t30.5 59.5t46.5 39.5t59 14.5q48 0 79.5 -21t39.5 -68l42 10q-11 61 -53.5 92.5t-99.5 31.5q-43 0 -79.5 -18.5
t-63.5 -50t-42 -74t-15 -90.5q0 -52 16.5 -95t45.5 -73.5t67.5 -47t83.5 -16.5q27 0 56 5t46 17q0 -18 -1.5 -30t-7.5 -18.5t-17 -9.5t-30 -3h-178v-44h178q28 0 47 4.5t31 18t17.5 38.5t5.5 65v135zM297 -169q40 8 52 31t12 69l-2 54l-70 -2l4 -70l38 1q-1 -26 -8 -38
t-28 -18z" />
    <glyph glyph-name="gcommaaccent" unicode="&#x123;" horiz-adv-x="598" 
d="M570 -133l-456 -42l-76 821l456 41zM486 89q0 56 -9 138.5t-16 194.5l-55 -2l2 -49q-48 45 -107 45q-36 0 -65.5 -14t-51 -40t-33.5 -63t-12 -82q0 -39 9 -74t28.5 -61.5t50 -42.5t72.5 -16q53 0 87 23.5t44 50.5q0 -54 -17 -84.5t-46.5 -45.5t-69.5 -18.5t-85 -3.5
l5 -56q45 0 93 4t87 23.5t64 59.5t25 113zM301 360q53 0 83.5 -39t30.5 -105q0 -24 -5.5 -48.5t-18 -44.5t-34 -32.5t-52.5 -12.5q-48 0 -79.5 38t-31.5 100q0 67 29 105.5t78 38.5zM306 623q-34 -8 -47 -26.5t-13 -51.5q0 -5 0.5 -11.5t0.5 -11.5l5 -53l69 5l-7 68l-37 -2
q0 26 5 37.5t26 18.5z" />
    <glyph glyph-name="Hbar" unicode="&#x126;" horiz-adv-x="542" 
d="M522 597l5 -593l-509 -5l-6 594zM131 372h24l2 -242l57 -1v144l165 1l1 -144l59 2l-3 242l24 1v54l-24 -1l-1 79l-58 -1l1 -78l-164 -2l-1 78l-98 -1l-3 -59l43 1v-19h-24v-54zM214 372l165 2l1 -42l-165 -2z" />
    <glyph glyph-name="hbar" unicode="&#x127;" horiz-adv-x="449" 
d="M445 533v-725h-433v733zM54 256h27v-378h65l1 222q19 41 69 41q29 0 45.5 -14.5t15.5 -48.5l-3 -204h62l4 204q1 58 -27.5 92.5t-84.5 34.5q-27 0 -45.5 -8t-34.5 -21v80h119v54h-119v110h-90v-62h23v-48h-27v-54z" />
    <glyph glyph-name="Imacron" unicode="&#x12a;" horiz-adv-x="516" 
d="M418 -102l-364 -2l-8 803l365 1zM277 -51l-5 551h-133l-1 -55l73 1l6 -498zM123 559h213v54h-213v-54z" />
    <glyph glyph-name="imacron" unicode="&#x12b;" horiz-adv-x="445" 
d="M393 617l-11 -836l-342 5l11 836zM301 311l-132 1l-1 -91l42 1l-6 -335l90 -2zM128 385h213v54h-213v-54z" />
    <glyph glyph-name="Ibreve" unicode="&#x12c;" horiz-adv-x="468" 
d="M418 -102l-364 -2l-8 803l365 1zM277 -51l-5 551h-133l-1 -55l73 1l6 -498zM278 658q-2 -24 -13 -37.5t-35 -13.5t-35 13.5t-13 37.5h-64q0 -29 9.5 -50t25 -35t36 -21t41.5 -7t41.5 7t36 21t25 35t9.5 50h-64z" />
    <glyph glyph-name="ibreve" unicode="&#x12d;" horiz-adv-x="431" 
d="M393 717l-11 -836l-342 5l11 836zM301 411l-132 1l-1 -91l42 1l-6 -335l90 -2zM296 581q-2 -24 -13 -37.5t-35 -13.5t-35 13.5t-13 37.5h-64q0 -29 9.5 -50t25 -35t36 -21t41.5 -7t41.5 7t36 21t25 35t9.5 50h-64z" />
    <glyph glyph-name="Iogonek" unicode="&#x12e;" horiz-adv-x="417" 
d="M379 -188h-333v864h336zM249 -61q-8 -2 -17 -2.5t-17 -0.5q-16 0 -25.5 3.5t-10.5 12.5q0 6 1.5 11t8.5 11t21 14t40 21l3 559h-123v-56h65v-511q-44 -17 -69 -40.5t-25 -52.5q0 -28 19.5 -44t57.5 -16q28 0 45.5 6.5t26.5 14.5z" />
    <glyph glyph-name="iogonek" unicode="&#x12f;" horiz-adv-x="361" 
d="M347 568l-37 -701l-287 15l37 700zM224 -24q-4 -1 -7 -1.5t-7 -0.5q-19 0 -31.5 4t-12.5 13q0 5 1.5 9t7.5 8t18 9.5t33 13.5l19 355l-110 6l-4 -75l35 -2l-15 -280l36 -3q-39 -12 -64 -30.5t-25 -44.5q0 -52 71 -52q20 0 32 3.5t20 8.5zM252 524l-75 4l-5 -91l75 -4z
" />
    <glyph glyph-name="Idotaccent" unicode="&#x130;" horiz-adv-x="516" 
d="M418 -102l-364 -2l-8 803l365 1zM277 -51l-5 551h-133l-1 -55l73 1l6 -498zM283 549v79h-89v-79h89z" />
    <glyph glyph-name="dotlessi" unicode="&#x131;" horiz-adv-x="476" 
d="M435 609l32 -717l-342 -16l-32 717zM355 416l-132 -7l4 -90l42 2l14 -334l90 4z" />
    <glyph glyph-name="IJ" unicode="&#x132;" horiz-adv-x="881" 
d="M811 -97l-754 -6l-9 781l751 5zM579 571v-82h70l6 -311q1 -55 -23 -87t-64 -32q-36 0 -62 26.5t-31 89.5l-77 -20q4 -44 19 -77.5t38 -56t52 -34t61 -11.5q37 0 68.5 15.5t54.5 43t35.5 65.5t11.5 82l-7 393zM262 12l-6 558l-122 -1v-57l66 2l6 -503z" />
    <glyph glyph-name="ij" unicode="&#x133;" horiz-adv-x="795" 
d="M755 695l-50 -949l-681 34l50 951zM320 575l-90 5l-6 -109l90 -4zM312 411l-132 7l-4 -90l41 -2l-18 -334l90 -5zM650 401l-132 7l-5 -90l42 -2l-14 -262q-2 -30 -11.5 -49t-25.5 -29.5t-37.5 -14.5t-45.5 -4q-29 0 -58 2t-58 5l-5 -90q26 -3 53.5 -5t67.5 -2q43 0 80 8
t65 28.5t45 56t20 89.5zM658 564l-90 5l-6 -109l90 -5z" />
    <glyph glyph-name="Kcommaaccent" unicode="&#x136;" horiz-adv-x="796" 
d="M358 -179q52 10 68.5 36t12.5 77l-5 59l-91 -2l7 -78l49 1q0 -29 -8.5 -42.5t-34.5 -20.5zM744 -191h-690v716h680zM696 -92l-2 57l-108 -2q-15 0 -28 8t-22.5 20.5t-16.5 29t-10 32.5q-4 19 -7 43.5t-6.5 48t-9 44.5t-14.5 34q-14 20 -34 28.5t-48 8.5h-17l180 164
l-42 45l-200 -181v164h-109v-60h56v-398h58v209l56 1q22 0 36 -8t22 -28q5 -12 8 -26.5t5 -29.5l4 -30t4 -28q8 -43 19 -72t26.5 -46t38 -24.5t52.5 -7.5z" />
    <glyph glyph-name="kcommaaccent" unicode="&#x137;" horiz-adv-x="680" 
d="M602 568v-642h-534v651zM533 80l-220 186l151 114l-46 58l-141 -118l5 235h-110l-1 -70h30v-400h74v117l141 -121zM298 -65q44 7 58.5 31t15.5 74l1 59l-77 2v-77h42q-2 -29 -10 -42t-31 -18z" />
    <glyph glyph-name="Lacute" unicode="&#x139;" horiz-adv-x="612" 
d="M536 -96h-478v664h478v-664zM449 -10v57h-180v319h-96v-57h39v-319h237zM335 512h-80l-43 -103h60z" />
    <glyph glyph-name="lacute" unicode="&#x13a;" horiz-adv-x="455" 
d="M415 -116l-315 -28l-60 711l167 14l-38 -108l75 4l62 113l49 4zM308 -15l-39 463l-101 -8l6 -67l33 4l35 -398z" />
    <glyph glyph-name="Lcommaaccent" unicode="&#x13b;" horiz-adv-x="612" 
d="M536 -96h-478v664h478v-664zM449 90v57h-180v319h-96v-57h39v-319h237zM293 -87q42 8 54.5 32t12.5 72l-3 54h-72l4 -73l39 1q-1 -26 -8 -39t-29 -19z" />
    <glyph glyph-name="lcommaaccent" unicode="&#x13c;" horiz-adv-x="455" 
d="M425 -103l-315 -28l-60 711l315 27zM306 72l-39 463l-101 -8l6 -67l33 4l35 -398zM254 -105q34 8 47.5 26.5t13.5 51.5v12t-1 13l-4 54l-70 -4l7 -70l38 2q0 -26 -6.5 -38.5t-27.5 -19.5z" />
    <glyph glyph-name="Lcaron" unicode="&#x13d;" horiz-adv-x="612" 
d="M536 -96h-478v664h478v-664zM449 -10v57h-180v319h-96v-57h39v-319h237zM371 199q38 6 54.5 25.5t19.5 56.5q1 6 1 13v13v60l-78 2l1 -79l42 -1q-2 -28 -9.5 -41t-31.5 -19z" />
    <glyph glyph-name="lcaron" unicode="&#x13e;" horiz-adv-x="455" 
d="M517 -86l-407 -45l-60 711l407 44zM297 -1l-39 463l-101 -8l6 -67l33 4l35 -398zM322 269q47 11 64.5 36t17.5 70q0 8 -0.5 16t-1.5 16l-6 72l-94 -6l10 -94l50 3q0 -17 -1.5 -29.5t-6 -21.5t-13 -15t-22.5 -11z" />
    <glyph glyph-name="Ldot" unicode="&#x13f;" horiz-adv-x="612" 
d="M398 246l10 68l-81 11l-9 -68zM502 -75l-474 64l88 658l474 -64zM427 22l9 65l-209 28l50 369l-111 15l-9 -65l46 -7l-50 -368z" />
    <glyph glyph-name="ldot" unicode="&#x140;" horiz-adv-x="455" 
d="M343 229l-6 79l-89 -8l6 -78zM425 -103l-315 -28l-60 711l315 27zM248 18l-39 463l-101 -8l6 -67l33 4l35 -398z" />
    <glyph glyph-name="Lslash" unicode="&#x141;" horiz-adv-x="612" 
d="M536 -96h-478v664h478v-664zM449 -10v57h-180v91l153 70l-28 50l-125 -61v169h-96v-57h39v-140l-71 -35l19 -47l52 24v-121h237z" />
    <glyph glyph-name="lslash" unicode="&#x142;" horiz-adv-x="455" 
d="M425 -103l-315 -28l-60 711l315 27zM221 143l17 11l14 -162l66 6l-16 194l73 45l-31 35l-47 -28l-18 217l-101 -8l6 -67l33 4l17 -183l-31 -17z" />
    <glyph glyph-name="Nacute" unicode="&#x143;" horiz-adv-x="664" 
d="M586 -88h-528v672h528v-672zM531 -10v464h-65v-349l-219 349h-112v-66h41v-398h66v351l218 -351h71zM443 541h-78l-42 -100h58z" />
    <glyph glyph-name="nacute" unicode="&#x144;" horiz-adv-x="729" 
d="M665 618l2 -713l-597 -3l-4 713zM183 368v-90l50 -3l-6 -304l89 -1l8 266q11 47 78 51q30 2 51 -13.5t20 -51.5l-4 -278h93l3 271q0 43 -12 74.5t-33.5 52t-52 29.5t-66.5 6q-29 -2 -57.5 -13t-46.5 -28l-1 30zM488 569h-97l-52 -124h72z" />
    <glyph glyph-name="Ncommaaccent" unicode="&#x145;" horiz-adv-x="664" 
d="M294 -73q27 4 44.5 13.5t27.5 25t14 38t4 52.5v71l-92 2l2 -93l50 -2q-2 -33 -12.5 -49t-37.5 -22v-36zM586 -88h-528v672h528v-672zM531 70v464h-65v-349l-219 349h-112v-66h41v-398h66v351l218 -351h71z" />
    <glyph glyph-name="ncommaaccent" unicode="&#x146;" horiz-adv-x="729" 
d="M686 454l-49 -657l-596 42l47 657zM186 445l-7 -90l50 -6l-29 -303l89 -8l28 265q13 45 81 45q66 0 66 -70l-25 -277l93 -7l23 270q1 6 1 11.5v11.5q0 75 -42 113t-110 38q-29 0 -58 -9t-49 -24l2 30zM305 -164q55 5 75.5 31t24.5 82l4 65l-94 7l-4 -85l51 -5
q-5 -30 -15.5 -44t-39.5 -18z" />
    <glyph glyph-name="Ncaron" unicode="&#x147;" horiz-adv-x="664" 
d="M586 -88h-528v672h528v-672zM531 -10v464h-65v-349l-219 349h-112v-66h41v-398h66v351l218 -351h71zM312 566h-61l67 -103h69l62 103h-59l-38 -73z" />
    <glyph glyph-name="ncaron" unicode="&#x148;" horiz-adv-x="729" 
d="M665 618l2 -713l-597 -3l-4 713zM183 368v-90l50 -3l-6 -304l89 -1l8 266q11 47 78 51q30 2 51 -13.5t20 -51.5l-4 -278h93l3 271q0 43 -12 74.5t-33.5 52t-52 29.5t-66.5 6q-29 -2 -57.5 -13t-46.5 -28l-1 30zM349 563h-72l79 -122h81l74 122h-70l-45 -87z" />
    <glyph glyph-name="Eng" unicode="&#x14a;" horiz-adv-x="645" 
d="M586 -48h-528v672h528v-672zM525 562h-65v-349l-219 349h-112v-66h41v-398h66v351l218 -351q-6 -17 -19 -26t-30 -13.5t-37.5 -5.5t-41.5 -1h-18t-18 1v-68q8 0 15 -0.5t15 -0.5q44 0 81.5 4.5t65 20t43 45.5t15.5 80v428z" />
    <glyph glyph-name="eng" unicode="&#x14b;" horiz-adv-x="587" 
d="M525 594l49 -630l-507 -43l-51 629zM468 387q-3 72 -40 108t-97 36q-34 0 -70.5 -13.5t-58.5 -36.5l-3 29l-106 -9l7 -84l48 4l19 -292l85 5l-15 254q4 23 25 39t62 16q23 0 38.5 -13.5t17.5 -42.5l10 -179q0 -43 -18 -67t-47 -35t-67 -14t-77 -4l9 -86q60 2 112.5 9.5
t90.5 29.5t60 63.5t22 111.5z" />
    <glyph glyph-name="Omacron" unicode="&#x14c;" horiz-adv-x="643" 
d="M627 657v-764h-608v767zM555 235q0 47 -14.5 94.5t-43 85.5t-71.5 62t-99 24q-50 0 -93 -20t-74.5 -55t-49 -84t-17.5 -106q0 -59 16.5 -109.5t47 -87t73 -57t95.5 -20.5q50 0 92.5 20.5t73 57.5t47.5 86.5t17 108.5zM321 428q37 0 67 -16.5t51 -43t32 -60.5t11 -70
q0 -34 -9.5 -69.5t-29.5 -65t-50.5 -48.5t-73.5 -19q-35 0 -63 15.5t-48 42t-30.5 62.5t-10.5 78q0 40 11.5 75.5t31.5 62t48.5 41.5t62.5 15zM217 544h213v54h-213v-54z" />
    <glyph glyph-name="omacron" unicode="&#x14d;" horiz-adv-x="652" 
d="M506 155q0 96 -45 153t-140 57q-86 0 -136.5 -57t-50.5 -155q0 -39 11.5 -76t34.5 -65.5t57.5 -46t81.5 -17.5q41 0 75.5 13t59 39.5t38.5 65t14 89.5zM331 264q22 -2 36.5 -12.5t23.5 -27t13 -36.5t4 -39q0 -53 -22.5 -77.5t-61.5 -24.5t-64 29.5t-25 78.5
q0 56 26.5 82.5t69.5 26.5zM613 -148l-572 -13l-14 777l571 13zM214 433h213v54h-213v-54z" />
    <glyph glyph-name="Obreve" unicode="&#x14e;" horiz-adv-x="643" 
d="M627 657v-764h-608v767zM555 235q0 47 -14.5 94.5t-43 85.5t-71.5 62t-99 24q-50 0 -93 -20t-74.5 -55t-49 -84t-17.5 -106q0 -59 16.5 -109.5t47 -87t73 -57t95.5 -20.5q50 0 92.5 20.5t73 57.5t47.5 86.5t17 108.5zM321 428q37 0 67 -16.5t51 -43t32 -60.5t11 -70
q0 -34 -9.5 -69.5t-29.5 -65t-50.5 -48.5t-73.5 -19q-35 0 -63 15.5t-48 42t-30.5 62.5t-10.5 78q0 40 11.5 75.5t31.5 62t48.5 41.5t62.5 15zM377 637q-2 -24 -13 -37.5t-35 -13.5t-35 13.5t-13 37.5h-64q0 -29 9.5 -50t25 -35t36 -21t41.5 -7t41.5 7t36 21t25 35t9.5 50
h-64z" />
    <glyph glyph-name="obreve" unicode="&#x14f;" horiz-adv-x="665" 
d="M506 155q0 96 -45 153t-140 57q-86 0 -136.5 -57t-50.5 -155q0 -39 11.5 -76t34.5 -65.5t57.5 -46t81.5 -17.5q41 0 75.5 13t59 39.5t38.5 65t14 89.5zM331 264q22 -2 36.5 -12.5t23.5 -27t13 -36.5t4 -39q0 -53 -22.5 -77.5t-61.5 -24.5t-64 29.5t-25 78.5
q0 56 26.5 82.5t69.5 26.5zM613 -148l-572 -13l-14 777l571 13zM370 523q-2 -24 -13 -37.5t-35 -13.5t-35 13.5t-13 37.5h-64q0 -29 9.5 -50t25 -35t36 -21t41.5 -7t41.5 7t36 21t25 35t9.5 50h-64z" />
    <glyph glyph-name="Ohungarumlaut" unicode="&#x150;" horiz-adv-x="643" 
d="M627 657v-764h-608v767zM555 235q0 47 -14.5 94.5t-43 85.5t-71.5 62t-99 24q-50 0 -93 -20t-74.5 -55t-49 -84t-17.5 -106q0 -59 16.5 -109.5t47 -87t73 -57t95.5 -20.5q50 0 92.5 20.5t73 57.5t47.5 86.5t17 108.5zM321 428q37 0 67 -16.5t51 -43t32 -60.5t11 -70
q0 -34 -9.5 -69.5t-29.5 -65t-50.5 -48.5t-73.5 -19q-35 0 -63 15.5t-48 42t-30.5 62.5t-10.5 78q0 40 11.5 75.5t31.5 62t48.5 41.5t62.5 15zM359 632h-73l-39 -94h55zM457 632h-73l-39 -94h54z" />
    <glyph glyph-name="ohungarumlaut" unicode="&#x151;" horiz-adv-x="650" 
d="M506 155q0 96 -45 153t-140 57q-86 0 -136.5 -57t-50.5 -155q0 -39 11.5 -76t34.5 -65.5t57.5 -46t81.5 -17.5q41 0 75.5 13t59 39.5t38.5 65t14 89.5zM331 264q22 -2 36.5 -12.5t23.5 -27t13 -36.5t4 -39q0 -53 -22.5 -77.5t-61.5 -24.5t-64 29.5t-25 78.5
q0 56 26.5 82.5t69.5 26.5zM613 -148l-572 -13l-14 777l571 13zM359 534h-97l-52 -124h72zM489 534h-97l-52 -124h72z" />
    <glyph glyph-name="OE" unicode="&#x152;" horiz-adv-x="830" 
d="M860 473l-32 -613l-837 58l56 609zM298 444q-46 0 -84.5 -20t-66.5 -54t-44 -79.5t-16 -97.5t14.5 -95.5t41.5 -75t65.5 -49.5t87.5 -18q79 0 133 55l-2 -54l299 -16l3 65l-233 12l7 144l217 -12l4 65l-218 11l7 125l225 -11l3 64l-294 15l-3 -34q-27 28 -64 44t-82 16z
M296 377q33 0 59.5 -12.5t45 -35t28.5 -54t10 -69.5q0 -47 -12.5 -81.5t-33 -57.5t-47.5 -34t-56 -11q-32 0 -57 12.5t-43 35t-27.5 53.5t-9.5 69t10.5 71.5t29.5 59t45 40t58 14.5z" />
    <glyph glyph-name="oe" unicode="&#x153;" horiz-adv-x="966" 
d="M926 501l-79 -709l-897 128l119 692zM808 79q8 41 10.5 66.5t2.5 47.5q0 100 -53 157.5t-158 57.5q-32 0 -59.5 -8.5t-51.5 -24.5q-28 40 -75.5 64.5t-112.5 24.5q-47 0 -88.5 -19t-73 -55t-49.5 -87.5t-18 -115.5q0 -48 15.5 -90t45 -74t72.5 -50.5t99 -18.5
q61 0 111 32q25 -36 73 -62t114 -26q58 0 104 30.5t75 89.5l-131 25q-7 -15 -22.5 -23t-35.5 -8q-41 0 -63 27.5t-22 69.5q0 6 0.5 12t1.5 13zM311 74q-44 0 -70.5 26.5t-26.5 74.5q0 44 8.5 75.5t22.5 52t32 30.5t38 10q49 0 73.5 -26t24.5 -74q0 -44 -8.5 -76t-22.5 -52.5
t-32.5 -30.5t-38.5 -10zM537 218q11 40 32 58t47 18q36 0 58.5 -21t22.5 -60q0 -6 -0.5 -12t-1.5 -13z" />
    <glyph glyph-name="Racute" unicode="&#x154;" horiz-adv-x="833" 
d="M670 -161h63.5t38.5 1v-47h-714v911h714v-809q-18 -1 -40 -1h-57q-52 0 -82.5 32.5t-36.5 92.5q-2 23 -4.5 56t-5.5 62q-8 75 -62 105q45 16 66.5 51t21.5 80q0 75 -47.5 109t-138.5 34h-100h-63.5t-43.5 -0.5t-39 -0.5v-56h59v-498h55v254h147q28 0 45 -10t28 -27
q10 -16 14.5 -36t7 -42.5t3.5 -45.5t4 -45q10 -81 54 -125.5t113 -44.5zM517 373q0 -103 -153 -103h-41.5h-27t-20.5 0.5t-21 0.5v187q37 1 73 1h73q117 0 117 -86zM474 667h-82l-43 -104h60z" />
    <glyph glyph-name="racute" unicode="&#x155;" horiz-adv-x="324" 
d="M259 544v-572h-235v577zM247 312q-9 1 -17.5 1.5t-14.5 0.5q-26 0 -49 -8.5t-37 -25.5v32h-69l-1 -44h32l-3 -244h49l4 189q2 56 82 56q16 0 20 -1zM228 447h-71l-38 -91h52z" />
    <glyph glyph-name="Rcommaaccent" unicode="&#x156;" horiz-adv-x="950" 
d="M345 -139q42 8 56 31.5t14 71.5l-2 56h-72l2 -73l40 -1q-2 -26 -9 -39t-30 -18zM872 -197h-814v873h814v-873zM670 -121h42h29.5t22.5 0.5t22 1.5v55q-21 -2 -45 -2h-66q-52 0 -82.5 32.5t-36.5 92.5q-2 23 -4.5 56t-5.5 62q-8 75 -62 105q45 16 66.5 51t21.5 80
q0 75 -47.5 109t-138.5 34h-100h-63.5t-43.5 -0.5t-39 -0.5v-56h59v-498h55v254h147q28 0 45 -10t28 -27q10 -16 14.5 -36t7 -42.5t3.5 -45.5t4 -45q10 -81 54 -125.5t113 -44.5zM517 413q0 -103 -153 -103h-41.5h-27t-20.5 0.5t-21 0.5v187q37 1 73 1h73q117 0 117 -86z
" />
    <glyph glyph-name="rcommaaccent" unicode="&#x157;" horiz-adv-x="324" 
d="M259 373v-524h-235v529zM247 312q-9 1 -17.5 1.5t-14.5 0.5q-26 0 -49 -8.5t-37 -25.5v32h-69l-1 -44h32l-3 -244h49l4 189q2 56 82 56q16 0 20 -1zM89 -114q28 5 37 20.5t9 46.5l-1 37h-48l2 -48l26 -1q-1 -17 -6 -25t-19 -12v-18z" />
    <glyph glyph-name="Rcaron" unicode="&#x158;" horiz-adv-x="950" 
d="M670 -161h63.5t38.5 1v-47h-714v911h714v-809q-18 -1 -40 -1h-57q-52 0 -82.5 32.5t-36.5 92.5q-2 23 -4.5 56t-5.5 62q-8 75 -62 105q45 16 66.5 51t21.5 80q0 75 -47.5 109t-138.5 34h-100h-63.5t-43.5 -0.5t-39 -0.5v-56h59v-498h55v254h147q28 0 45 -10t28 -27
q10 -16 14.5 -36t7 -42.5t3.5 -45.5t4 -45q10 -81 54 -125.5t113 -44.5zM517 373q0 -103 -153 -103h-41.5h-27t-20.5 0.5t-21 0.5v187q37 1 73 1h73q117 0 117 -86zM349 679h-72l79 -122h81l74 122h-70l-45 -87z" />
    <glyph glyph-name="rcaron" unicode="&#x159;" horiz-adv-x="295" 
d="M259 544v-572h-235v577zM247 312q-9 1 -17.5 1.5t-14.5 0.5q-26 0 -49 -8.5t-37 -25.5v32h-69l-1 -44h32l-3 -244h49l4 189q2 56 82 56q16 0 20 -1zM117 443h-54l59 -91h61l55 91h-52l-34 -65z" />
    <glyph glyph-name="Sacute" unicode="&#x15a;" horiz-adv-x="479" 
d="M316 587l132 3l17 -637l-439 -8l-17 637l243 4l-32 -75h48zM378 368q-11 62 -43.5 86.5t-86.5 24.5q-74 0 -119.5 -31.5t-45.5 -96.5q0 -37 17 -61.5t48 -40.5q27 -14 61 -20t64 -15t51 -25.5t21 -49.5q0 -21 -9.5 -37.5t-25 -28t-34.5 -17.5t-38 -6q-45 0 -78.5 25
t-38.5 70l-44 -7q11 -62 49.5 -97.5t101.5 -35.5q34 0 63.5 9.5t51.5 27t34.5 42.5t12.5 55q0 67 -53 97q-26 15 -61.5 21.5t-68.5 16t-56 27t-23 52.5q0 32 28.5 56t88.5 24q38 0 62 -18t29 -59z" />
    <glyph glyph-name="sacute" unicode="&#x15b;" horiz-adv-x="394" 
d="M329 -9h-277v501h271zM279 113q0 29 -16.5 47.5t-45.5 26.5q-11 3 -21 5.5t-17 4.5q-9 4 -9 13q0 5 5 10.5t17 5.5t18.5 -4.5t8.5 -18.5l56 -2q2 47 -21 68.5t-65 21.5q-34 0 -55.5 -22t-21.5 -57q0 -24 8 -39.5t20.5 -24.5t27.5 -14t29 -8q12 -3 20 -9t8 -14
q0 -9 -6 -15t-21 -6q-16 0 -24.5 7t-14.5 23l-53 -3q2 -42 28 -65.5t63 -23.5t59.5 23.5t22.5 69.5zM263 413h-65l-36 -84h49z" />
    <glyph glyph-name="Scedilla" unicode="&#x15e;" horiz-adv-x="479" 
d="M448 653l17 -700l-439 -8l-17 700zM380 502q-11 62 -43.5 86.5t-86.5 24.5q-74 0 -119.5 -31.5t-45.5 -96.5q0 -37 17 -61.5t48 -40.5q27 -14 61 -20t64 -15t51 -25.5t21 -49.5q0 -21 -9.5 -37.5t-25 -28t-34.5 -17.5t-38 -6q-45 0 -78.5 25t-38.5 70l-44 -7
q11 -62 49.5 -97.5t101.5 -35.5h4v-56h7q32 0 32 -23q0 -19 -24 -19q-18 0 -35 20v-44q17 -13 42 -13q29 0 45 14t16 46q0 52 -61 55v21q29 3 54 14t43 28.5t28.5 40.5t10.5 50q0 67 -53 97q-26 15 -61.5 21.5t-68.5 16t-56 27t-23 52.5q0 32 28.5 56t88.5 24q38 0 62 -18
t29 -59z" />
    <glyph glyph-name="scedilla" unicode="&#x15f;" horiz-adv-x="394" 
d="M329 -9h-277v501h271zM273 251q0 29 -16.5 47.5t-45.5 26.5q-11 3 -21 5.5t-17 4.5q-9 4 -9 13q0 5 5 10.5t17 5.5t18.5 -4.5t8.5 -18.5l56 -2q2 47 -21 68.5t-65 21.5q-34 0 -55.5 -22t-21.5 -57q0 -24 8 -39.5t20.5 -24.5t27.5 -14t29 -8q12 -3 20 -9t8 -14
q0 -9 -6 -15t-21 -6q-16 0 -24.5 7t-14.5 23l-53 -3q2 -38 23.5 -60.5t53.5 -27.5v-48h6q29 0 29 -21q0 -17 -22 -17q-16 0 -32 18v-40q16 -12 39 -12q26 0 40.5 12.5t14.5 41.5q0 48 -56 50v15q35 2 56 25t21 68z" />
    <glyph glyph-name="Scaron" unicode="&#x160;" horiz-adv-x="479" 
d="M452 509l-65 -679l-401 37l65 679zM334 249q-5 30 -17.5 50t-30.5 31t-38.5 15.5t-39.5 4.5q-49 0 -78.5 -27t-29.5 -74q0 -25 14 -42t34.5 -29.5t45 -23t45 -21t34.5 -23.5t14 -31q0 -16 -7 -28.5t-18 -21t-25 -13t-29 -4.5q-41 0 -69 23.5t-28 62.5l-35 -2
q3 -54 41 -86.5t93 -32.5q22 0 42.5 7t36.5 20.5t25 33t9 43.5q0 25 -14 42t-35 30t-45 23t-45 21t-35 24t-14 32q0 12 7 23t18 19.5t25.5 13t29.5 4.5q80 0 84 -70zM218 466l-40 3l40 -72l46 -4l47 67l-39 2l-30 -47z" />
    <glyph glyph-name="scaron" unicode="&#x161;" horiz-adv-x="394" 
d="M329 -9h-277v501h271zM279 113q-3 57 -62 72q-17 4 -27 7.5t-15 6t-6 4.5t-1 4q0 16 24 16q10 0 18 -6t11 -22l55 -2q-5 48 -25 73t-62 25q-34 0 -55.5 -22t-21.5 -57q0 -23 7.5 -38.5t19.5 -24.5t27 -14.5t28 -10t22 -8.5t9 -10q0 -10 -5 -15t-23 -5q-15 0 -26 7.5
t-13 24.5l-54 5q1 -28 9 -47.5t20.5 -32t29 -18t34.5 -5.5q34 0 58 23.5t24 69.5zM170 402h-39l44 -68h45l41 68h-39l-25 -48z" />
    <glyph glyph-name="Tcedilla" unicode="&#x162;" horiz-adv-x="728" 
d="M657 -142l-587 12l16 772l587 -12zM566 462l3 94l-379 8l-1 -94l144 -3l-8 -400l27 -1v-64h8q38 0 38 -28q0 -22 -28 -22q-21 0 -42 23v-52q22 -16 50 -16q35 0 54 16.5t19 54.5q0 64 -73 66v22h41l8 398z" />
    <glyph glyph-name="tcedilla" unicode="&#x163;" horiz-adv-x="442" 
d="M372 555v-628h-303v629zM334 439h-81v71h-71v-71h-67v-72h66l-2 -197q-1 -65 50 -79v-61h7q35 0 35 -25q0 -20 -26 -20q-20 0 -39 21v-48q22 -14 47 -14q32 0 48.5 15t16.5 50q0 58 -66 60v19q2 -1 7 -1q12 0 27 2.5t32 7.5l-7 72q-7 -5 -24 -7q-12 0 -23 4t-11 18v182
h81v73z" />
    <glyph glyph-name="Tcaron" unicode="&#x164;" horiz-adv-x="728" 
d="M657 -142l-587 12l16 772l587 -12zM556 305l3 94l-379 8l-1 -94l144 -3l-8 -400l94 -1l8 398zM319 571h-72l79 -122h81l74 122h-70l-45 -87z" />
    <glyph glyph-name="tcaron" unicode="&#x165;" horiz-adv-x="442" 
d="M416 562l-44 -716l-369 16l42 716zM292 312l-81 5l4 71l-72 4l-3 -72l-66 4l-4 -72l66 -3l-11 -197q-3 -45 20.5 -65.5t62.5 -20.5q25 0 52 7l-4 72q-8 -6 -24 -6q-12 0 -23 5t-10 19l9 182l81 -5zM255 338q45 6 65 28t25 64q0 8 0.5 15.5t0.5 15.5l2 70l-90 4l-1 -91
l48 -3q-4 -32 -12.5 -47t-36.5 -21z" />
    <glyph glyph-name="Tbar" unicode="&#x166;" horiz-adv-x="670" 
d="M587 -167l-565 53l70 743l565 -53zM291 179l-22 -224l91 -8l21 222l80 -7l7 63l-82 9l10 97l134 -13l9 91l-364 35l-8 -91l139 -14l-9 -95l-85 8l-6 -63z" />
    <glyph glyph-name="tbar" unicode="&#x167;" horiz-adv-x="442" 
d="M390 427l-32 -581l-305 16l30 581zM180 152l-5 -100q-2 -45 21 -65.5t62 -20.5q25 0 52 7l-4 72q-8 -6 -24 -6q-12 0 -23 5t-10 19l4 85l77 -3l2 55l-76 3l2 42l81 -5l3 72l-81 5l4 71l-72 4l-3 -72l-66 4l-4 -72l66 -3l-3 -42l-68 3l-2 -55z" />
    <glyph glyph-name="Utilde" unicode="&#x168;" horiz-adv-x="714" 
d="M28 -133v757h638v-757h-638zM597 452h-56v-358q0 -34 -11 -62.5t-31 -49t-48 -32t-61 -11.5t-60 12t-46 33t-29.5 50t-10.5 63v355h-111v-56h56v-299q0 -43 14.5 -81.5t40.5 -68t63.5 -46.5t82.5 -17q42 0 79.5 15.5t66 43.5t45 66.5t16.5 84.5v358zM284 460q17 47 44 47
q10 0 24.5 -7t30 -15.5t30.5 -15.5t26 -7q25 0 43 34v88q-19 -58 -49 -58q-9 0 -24 7t-32 15.5t-32.5 15.5t-24.5 7q-23 0 -36 -27v-84z" />
    <glyph glyph-name="utilde" unicode="&#x169;" horiz-adv-x="614" 
d="M573 -72l-539 5l4 722l539 -5zM501 7l1 91l-42 1l3 306l-93 -2l-2 -212q-1 -45 -22 -73.5t-67 -26.5q-34 2 -51 21.5t-17 61.5l2 261l-90 1l-1 -270q0 -43 10 -73.5t29 -50t45.5 -29.5t59.5 -12q36 -2 69.5 9.5t51.5 34.5v-36zM203 470q17 47 44 47q10 0 24.5 -7
t30 -15.5t30.5 -15.5t26 -7q25 0 43 34v88q-19 -58 -49 -58q-9 0 -24 7t-32 15.5t-32.5 15.5t-24.5 7q-23 0 -36 -27v-84z" />
    <glyph glyph-name="Umacron" unicode="&#x16a;" horiz-adv-x="700" 
d="M28 -133v757h638v-757h-638zM597 452h-56v-358q0 -34 -11 -62.5t-31 -49t-48 -32t-61 -11.5t-60 12t-46 33t-29.5 50t-10.5 63v355h-111v-56h56v-299q0 -43 14.5 -81.5t40.5 -68t63.5 -46.5t82.5 -17q42 0 79.5 15.5t66 43.5t45 66.5t16.5 84.5v358zM284 486h213v54h-213
v-54z" />
    <glyph glyph-name="umacron" unicode="&#x16b;" horiz-adv-x="617" 
d="M573 -72l-539 5l4 722l539 -5zM501 7l1 91l-42 1l3 306l-93 -2l-2 -212q-1 -45 -22 -73.5t-67 -26.5q-34 2 -51 21.5t-17 61.5l2 261l-90 1l-1 -270q0 -43 10 -73.5t29 -50t45.5 -29.5t59.5 -12q36 -2 69.5 9.5t51.5 34.5v-36zM194 485h213v54h-213v-54z" />
    <glyph glyph-name="Ubreve" unicode="&#x16c;" horiz-adv-x="708" 
d="M28 -133v757h638v-757h-638zM597 452h-56v-358q0 -34 -11 -62.5t-31 -49t-48 -32t-61 -11.5t-60 12t-46 33t-29.5 50t-10.5 63v355h-111v-56h56v-299q0 -43 14.5 -81.5t40.5 -68t63.5 -46.5t82.5 -17q42 0 79.5 15.5t66 43.5t45 66.5t16.5 84.5v358zM436 528
q-3 -44 -41 -44q-21 0 -30.5 11.5t-11.5 32.5h-55q0 -25 8.5 -43.5t22 -30.5t31 -18t35.5 -6t35.5 6t31 18t21.5 30.5t8 43.5h-55z" />
    <glyph glyph-name="ubreve" unicode="&#x16d;" horiz-adv-x="631" 
d="M573 -72l-539 5l4 722l539 -5zM501 7l1 91l-42 1l3 306l-93 -2l-2 -212q-1 -45 -22 -73.5t-67 -26.5q-34 2 -51 21.5t-17 61.5l2 261l-90 1l-1 -270q0 -43 10 -73.5t29 -50t45.5 -29.5t59.5 -12q36 -2 69.5 9.5t51.5 34.5v-36zM356 569q-2 -24 -13 -37.5t-35 -13.5
t-35 13.5t-13 37.5h-64q0 -29 9.5 -50t25 -35t36 -21t41.5 -7t41.5 7t36 21t25 35t9.5 50h-64z" />
    <glyph glyph-name="Uring" unicode="&#x16e;" horiz-adv-x="701" 
d="M28 -133v757h638v-757h-638zM597 452h-56v-358q0 -34 -11 -62.5t-31 -49t-48 -32t-61 -11.5t-60 12t-46 33t-29.5 50t-10.5 63v355h-111v-56h56v-299q0 -43 14.5 -81.5t40.5 -68t63.5 -46.5t82.5 -17q42 0 79.5 15.5t66 43.5t45 66.5t16.5 84.5v358zM393 408
q31 0 53 22.5t22 56.5q0 18 -6 33.5t-16 27t-24 18t-29 6.5q-31 0 -52.5 -24t-21.5 -61q0 -34 21.5 -56.5t52.5 -22.5zM356 488q0 17 10.5 30t26.5 13t26.5 -13t10.5 -30t-10.5 -29.5t-26.5 -12.5t-26.5 12.5t-10.5 29.5z" />
    <glyph glyph-name="uring" unicode="&#x16f;" horiz-adv-x="610" 
d="M573 -72l-539 5l4 722l539 -5zM501 7l1 91l-42 1l3 306l-93 -2l-2 -212q-1 -45 -22 -73.5t-67 -26.5q-34 2 -51 21.5t-17 61.5l2 261l-90 1l-1 -270q0 -43 10 -73.5t29 -50t45.5 -29.5t59.5 -12q36 -2 69.5 9.5t51.5 34.5v-36zM307 437q31 0 53 22.5t22 56.5
q0 18 -6 33.5t-16 27t-24 18t-29 6.5q-31 0 -52.5 -24t-21.5 -61q0 -34 21.5 -56.5t52.5 -22.5zM270 517q0 17 10.5 30t26.5 13t26.5 -13t10.5 -30t-10.5 -29.5t-26.5 -12.5t-26.5 12.5t-10.5 29.5z" />
    <glyph glyph-name="Uhungarumlaut" unicode="&#x170;" horiz-adv-x="712" 
d="M28 -133v757h638v-757h-638zM597 452h-56v-358q0 -34 -11 -62.5t-31 -49t-48 -32t-61 -11.5t-60 12t-46 33t-29.5 50t-10.5 63v355h-111v-56h56v-299q0 -43 14.5 -81.5t40.5 -68t63.5 -46.5t82.5 -17q42 0 79.5 15.5t66 43.5t45 66.5t16.5 84.5v358zM421 591h-78
l-41 -100h57zM526 591h-78l-42 -100h58z" />
    <glyph glyph-name="uhungarumlaut" unicode="&#x171;" horiz-adv-x="622" 
d="M573 -72l-539 5l4 722l539 -5zM501 7l1 91l-42 1l3 306l-93 -2l-2 -212q-1 -45 -22 -73.5t-67 -26.5q-34 2 -51 21.5t-17 61.5l2 261l-90 1l-1 -270q0 -43 10 -73.5t29 -50t45.5 -29.5t59.5 -12q36 -2 69.5 9.5t51.5 34.5v-36zM347 607h-97l-52 -124h72zM477 607h-97
l-52 -124h72z" />
    <glyph glyph-name="Uogonek" unicode="&#x172;" horiz-adv-x="766" 
d="M58 -197v865h638v-865h-638zM478 -51q-12 -3 -28 -3q-18 0 -29.5 3.5t-11.5 13.5q0 6 1 10t5.5 8.5t13 10.5t24.5 14q36 6 68 24t55.5 45t37 62.5t13.5 76.5v358h-56v-358q0 -34 -11 -62.5t-31 -49t-48 -32t-61 -11.5t-60 12t-46 33t-29.5 50t-10.5 63v355h-111v-56h56
v-299q0 -42 13.5 -79.5t38 -66t59 -46.5t76.5 -21q-36 -16 -56.5 -37.5t-20.5 -48.5q0 -26 19.5 -42t56.5 -16q29 0 45.5 5t27.5 13v71z" />
    <glyph glyph-name="uogonek" unicode="&#x173;" horiz-adv-x="719" 
d="M687 -168l-598 -30l-37 685l598 30zM545 -51q-8 -2 -19 -3.5t-21 -1.5q-29 0 -29 19q0 5 2 9.5t9 10.5t20 14t36 20l-4 91l-42 -2l-15 306l-93 -7l10 -212q0 -45 -17.5 -75t-65.5 -30q-34 0 -52 18.5t-20 60.5l-13 261l-90 -5l14 -269q5 -86 46.5 -121.5t107.5 -35.5
q36 0 68.5 13.5t49.5 37.5l2 -36l76 3q-50 -19 -78.5 -44.5t-28.5 -57.5q0 -26 19 -41.5t54 -15.5q31 0 49.5 7t28.5 15z" />
    <glyph glyph-name="Wcircumflex" unicode="&#x174;" horiz-adv-x="762" 
d="M744 -77l-736 2l6 699h735zM669 429l-42 13l-96 -390l-110 373l-52 1l-115 -377l-91 387h-77v-44h46l92 -389l60 1l110 363l108 -364h57zM438 466h58l-63 99h-65l-60 -99h56l36 69z" />
    <glyph glyph-name="wcircumflex" unicode="&#x175;" horiz-adv-x="905" 
d="M841 608l11 -700l-779 -12l-11 700zM816 361l-88 30l-99 -291l-98 261l-90 -2l-88 -270l-107 277l-123 1l1 -90l59 1l128 -332l84 1l93 274l100 -271l79 1zM541 418h82l-89 139h-91l-84 -139h78l51 96z" />
    <glyph glyph-name="Ycircumflex" unicode="&#x176;" horiz-adv-x="710" 
d="M654 -54l-587 1v605h587v-606zM552 399l-37 25l-147 -214l-134 206l-75 2l-1 -45h51l136 -208l-1 -191h44l1 190zM401 426h56l-61 96h-63l-59 -96h55l35 67z" />
    <glyph glyph-name="ycircumflex" unicode="&#x177;" horiz-adv-x="687" 
d="M636 -208h-581v822h568zM573 393l-78 30l-117 -315l-129 298l-117 -4l3 -85l60 4l140 -320l-52 -135l79 -30zM414 456h79l-86 134h-88l-81 -134h76l49 94z" />
    <glyph glyph-name="Ydieresis" unicode="&#x178;" horiz-adv-x="710" 
d="M670 -36l-586 -33l-33 603l586 34zM541 446l-38 23l-135 -222l-145 198l-75 -3l2 -45l51 3l147 -200l10 -191l44 3l-10 189zM458 453l-4 60l-68 -4l4 -60zM324 444l-3 60l-68 -4l3 -60z" />
    <glyph glyph-name="Zacute" unicode="&#x179;" horiz-adv-x="683" 
d="M428 711l179 7l28 -789l-554 -19l-27 788l279 10l-44 -105l73 4zM570 -2l-2 90l-292 -11l277 429l-3 80l-408 -14l4 -90l290 9l-276 -427l3 -80z" />
    <glyph glyph-name="zacute" unicode="&#x17a;" horiz-adv-x="410" 
d="M268 472h87v-590h-332v590h164l-42 -100h61zM304 -10v67h-162l162 209v58h-253v-66h162l-162 -211v-57h253z" />
    <glyph glyph-name="Zdotaccent" unicode="&#x17b;" horiz-adv-x="683" 
d="M635 -71l-554 -19l-27 788l553 20zM570 -2l-2 90l-292 -11l277 429l-3 80l-408 -14l4 -90l290 9l-276 -427l3 -80zM389 614v79h-89v-79h89z" />
    <glyph glyph-name="zdotaccent" unicode="&#x17c;" horiz-adv-x="410" 
d="M355 -118h-332v611h332v-611zM304 -10v67h-162l162 209v58h-253v-66h162l-162 -211v-57h253zM236 379v79h-89v-79h89z" />
    <glyph glyph-name="Zcaron" unicode="&#x17d;" horiz-adv-x="683" 
d="M635 -71l-554 -19l-27 844l553 19zM570 -2l-2 90l-292 -11l277 429l-3 80l-408 -14l4 -90l290 9l-276 -427l3 -80zM310 681l-56 -2l66 -89l64 2l54 95l-55 -3l-32 -67z" />
    <glyph glyph-name="zcaron" unicode="&#x17e;" horiz-adv-x="392" 
d="M355 -118h-332v604h332v-604zM304 -10v67h-162l162 209v58h-253v-66h162l-162 -211v-57h253zM145 444h-44l48 -76h50l46 76h-43l-27 -54z" />
    <glyph glyph-name="florin" unicode="&#x192;" horiz-adv-x="377" 
d="M116 131q33 4 56 11t38 20.5t22.5 34.5t7.5 53l3 208l56 8l-10 72l-45 -6v14q0 10 4.5 16.5t19.5 8.5l41 5l-10 79l-33 -4q-35 -5 -57.5 -12t-36 -20t-20.5 -33.5t-11 -51.5l-2 -16l-45 -6l10 -72l34 4l-4 -196q-1 -20 -7.5 -28t-26.5 -10l-32 -4l11 -80zM-21 638l353 47
l72 -540l-352 -47z" />
    <glyph glyph-name="Scommaaccent" unicode="&#x218;" horiz-adv-x="479" 
d="M448 653l17 -700l-439 -8l-17 700zM380 502q-11 62 -43.5 86.5t-86.5 24.5q-74 0 -119.5 -31.5t-45.5 -96.5q0 -37 17 -61.5t48 -40.5q27 -14 61 -20t64 -15t51 -25.5t21 -49.5q0 -21 -9.5 -37.5t-25 -28t-34.5 -17.5t-38 -6q-45 0 -78.5 25t-38.5 70l-44 -7
q11 -62 50 -97.5t105 -35.5q27 0 55.5 8.5t51 25.5t37 42t14.5 58q0 67 -53 97q-26 15 -61.5 21.5t-68.5 16t-56 27t-23 52.5q0 32 28.5 56t88.5 24q38 0 62 -18t29 -59zM214 -14q33 6 44.5 24.5t9.5 56.5l-2 44h-57l2 -58h32q-1 -20 -7 -30t-23 -15z" />
    <glyph glyph-name="scommaaccent" unicode="&#x219;" horiz-adv-x="394" 
d="M329 -9h-277v501h271zM273 251q0 29 -16.5 47.5t-45.5 26.5q-11 3 -21 5.5t-17 4.5q-9 4 -9 13q0 5 5 10.5t17 5.5t18.5 -4.5t8.5 -18.5l56 -2q2 47 -21 68.5t-65 21.5q-34 0 -55.5 -22t-21.5 -57q0 -24 8 -39.5t20.5 -24.5t27.5 -14t29 -8q12 -3 20 -9t8 -14
q0 -9 -6 -15t-21 -6q-16 0 -24.5 7t-14.5 23l-53 -3q2 -42 25.5 -65.5t70.5 -23.5q39 0 58 24t19 69zM161 14q35 5 46.5 24.5t11.5 57.5v45l-59 2l1 -59l32 -2q-2 -21 -8.5 -31t-23.5 -14v-23z" />
    <glyph glyph-name="uni021A" unicode="&#x21a;" horiz-adv-x="728" 
d="M657 -142l-587 12l16 772l587 -12zM566 500l3 94l-379 8l-1 -94l144 -3l-8 -400l94 -1l8 398zM327 -128q52 8 70 37.5t18 88.5l1 69l-91 3l2 -91l49 -3q-2 -32 -12.5 -47.5t-37.5 -21.5z" />
    <glyph glyph-name="uni021B" unicode="&#x21b;" horiz-adv-x="442" 
d="M372 555v-628h-303v629zM334 439h-81v71h-71v-71h-67v-72h66l-2 -197q-1 -35 19 -59t61 -24q12 0 27 2.5t32 7.5l-7 72q-7 -5 -24 -7q-12 0 -23 4t-11 18v182h81v73zM207 -61q41 5 55 24.5t15 60.5l1 48l-69 4v-63l37 -2q-2 -23 -10 -33t-29 -14v-25z" />
    <glyph glyph-name="circumflex" unicode="&#x2c6;" horiz-adv-x="286" 
d="M141 534l-45 -85h-69l74 122h80l78 -122h-72z" />
    <glyph glyph-name="caron" unicode="&#x2c7;" horiz-adv-x="284" 
d="M143 484l45 87h70l-74 -122h-81l-79 122h72z" />
    <glyph glyph-name="breve" unicode="&#x2d8;" horiz-adv-x="312" 
d="M272 559q0 -29 -9.5 -50t-25 -35t-36 -21t-41.5 -7t-41.5 7t-36 21t-25 35t-9.5 50h64q2 -24 13 -37.5t35 -13.5t35 13.5t13 37.5h64z" />
    <glyph glyph-name="dotaccent" unicode="&#x2d9;" horiz-adv-x="211" 
d="M62 499v79h89v-79h-89z" />
    <glyph glyph-name="ring" unicode="&#x2da;" horiz-adv-x="224" 
d="M111 446q-31 0 -52.5 22.5t-21.5 56.5q0 37 21.5 61t52.5 24q15 0 29 -6.5t24 -18t16 -27t6 -33.5q0 -34 -22 -56.5t-53 -22.5zM74 526q0 -17 10.5 -29.5t26.5 -12.5t26.5 12.5t10.5 29.5t-10.5 30t-26.5 13t-26.5 -13t-10.5 -30z" />
    <glyph glyph-name="ogonek" unicode="&#x2db;" horiz-adv-x="262" 
d="M195 -141q-11 -8 -27.5 -13t-45.5 -5q-37 0 -56.5 16t-19.5 42q0 34 31.5 59t85.5 42h32q-25 -12 -39 -20t-20.5 -14t-8 -11t-1.5 -11q0 -10 11.5 -13.5t29.5 -3.5q16 0 28 3v-71z" />
    <glyph glyph-name="tilde" unicode="&#x2dc;" horiz-adv-x="261" 
d="M29 544q13 27 36 27q9 0 24.5 -7t32.5 -15.5t32 -15.5t24 -7q30 0 49 58v-88q-18 -34 -43 -34q-11 0 -26 7t-30.5 15.5t-30 15.5t-24.5 7q-27 0 -44 -47v84z" />
    <glyph glyph-name="hungarumlaut" unicode="&#x2dd;" horiz-adv-x="335" 
d="M99 451h-72l52 124h97zM229 451h-72l52 124h97z" />
    <glyph glyph-name="Delta" unicode="&#x394;" horiz-adv-x="557" 
d="M275 458l46 -259l-147 16zM476 78l-112 506l-147 15l-217 -470zM26 663l537 -57l-61 -579l-537 57z" />
    <glyph glyph-name="Omega" unicode="&#x3a9;" horiz-adv-x="549" 
d="M492 34l-6 96l-67 -4q30 26 47.5 70.5t17.5 98.5q0 100 -53 157t-162 57q-124 0 -182.5 -55.5t-58.5 -147.5q0 -68 25 -121t64 -79l-67 -4l6 -96l190 12l-6 87q-31 32 -55 81t-24 124q0 55 25.5 78t73.5 23q47 0 70 -31.5t23 -106.5q0 -56 -13.5 -93.5t-41.5 -69.5l6 -88
zM-33 538l552 35l39 -609l-552 -36z" />
    <glyph glyph-name="mu" unicode="&#x3bc;" horiz-adv-x="418" 
d="M342 148l-59 290l-86 -18l36 -175q1 -4 1 -7.5v-6.5q0 -21 -14.5 -35t-39.5 -14q-31 0 -39 37l-37 182l-86 -17l87 -428l86 17l-28 140q9 -3 18 -3q25 0 45.5 15.5t28.5 39.5l6 -34zM-59 457l385 78l118 -579l-385 -78z" />
    <glyph glyph-name="pi" unicode="&#x3c0;" horiz-adv-x="490" 
d="M365 62l26 249l45 -5l11 106l-397 41l-11 -105l42 -5l-26 -248l115 -13l26 249l81 -8l-26 -249zM8 546l503 -53l-53 -503l-503 53z" />
    <glyph glyph-name="Wgrave" unicode="&#x1e80;" horiz-adv-x="762" 
d="M744 -77l-736 2l6 699h735zM669 429l-42 13l-96 -390l-110 373l-52 1l-115 -377l-91 387h-77v-44h46l92 -389l60 1l110 363l108 -364h57zM369 460h52l-37 93h-73z" />
    <glyph glyph-name="wgrave" unicode="&#x1e81;" horiz-adv-x="905" 
d="M841 608l11 -700l-779 -12l-11 700zM816 361l-88 30l-99 -291l-98 261l-90 -2l-88 -270l-107 277l-123 1l1 -90l59 1l128 -332l84 1l93 274l100 -271l79 1zM457 423h69l-49 124h-97z" />
    <glyph glyph-name="Wacute" unicode="&#x1e82;" horiz-adv-x="762" 
d="M744 -77l-736 2l6 699h735zM669 429l-42 13l-96 -390l-110 373l-52 1l-115 -377l-91 387h-77v-44h46l92 -389l60 1l110 363l108 -364h57zM488 553h-65l-35 -83h48z" />
    <glyph glyph-name="wacute" unicode="&#x1e83;" horiz-adv-x="905" 
d="M841 608l11 -700l-779 -12l-11 700zM816 361l-88 30l-99 -291l-98 261l-90 -2l-88 -270l-107 277l-123 1l1 -90l59 1l128 -332l84 1l93 274l100 -271l79 1zM596 544h-97l-52 -124h72z" />
    <glyph glyph-name="Wdieresis" unicode="&#x1e84;" horiz-adv-x="762" 
d="M744 -77l-736 2l6 699h735zM669 429l-42 13l-96 -390l-110 373l-52 1l-115 -377l-91 387h-77v-44h46l92 -389l60 1l110 363l108 -364h57zM492 476v57h-65v-57h65zM364 476v57h-65v-57h65z" />
    <glyph glyph-name="wdieresis" unicode="&#x1e85;" horiz-adv-x="905" 
d="M841 608l11 -700l-779 -12l-11 700zM816 361l-88 30l-99 -291l-98 261l-90 -2l-88 -270l-107 277l-123 1l1 -90l59 1l128 -332l84 1l93 274l100 -271l79 1zM645 440v95h-107v-95h107zM434 440v95h-108v-95h108z" />
    <glyph glyph-name="Ygrave" unicode="&#x1ef2;" horiz-adv-x="710" 
d="M654 -54l-587 1v605h587v-606zM552 399l-37 25l-147 -214l-134 206l-75 2l-1 -45h51l136 -208l-1 -191h44l1 190zM339 434h51l-36 92h-72z" />
    <glyph glyph-name="ygrave" unicode="&#x1ef3;" horiz-adv-x="687" 
d="M636 -208h-581v822h568zM573 393l-78 30l-117 -315l-129 298l-117 -4l3 -85l60 4l140 -320l-52 -135l79 -30zM347 447h69l-49 124h-97z" />
    <glyph glyph-name="endash" unicode="&#x2013;" horiz-adv-x="531" 
d="M504 145l-1 82l-462 -5l1 -82zM16 378l523 6l4 -438l-523 -6z" />
    <glyph glyph-name="emdash" unicode="&#x2014;" horiz-adv-x="971" 
d="M919 209l3 111l-869 28l-4 -111zM25 565l939 -30l-17 -538l-939 30z" />
    <glyph glyph-name="quoteleft" unicode="&#x2018;" horiz-adv-x="474" 
d="M392 462l-327 -105l-137 423l327 107zM255 551q-22 0 -39.5 3t-32 12t-25.5 24.5t-20 40.5l82 27l-45 133l-145 -46l34 -103q25 -76 63.5 -109.5t106.5 -33.5q9 0 18 0.5t20 1.5z" />
    <glyph glyph-name="quoteright" unicode="&#x2019;" horiz-adv-x="474" 
d="M438 369l-328 100l130 426l329 -102zM226 490q8 -1 15 -1.5t14 -0.5q68 0 106.5 37.5t61.5 121.5l30 107l-139 48l-41 -143l78 -27q-16 -46 -38.5 -66t-59.5 -20q-3 0 -6 0.5t-6 0.5z" />
    <glyph glyph-name="quotesinglbase" unicode="&#x201a;" horiz-adv-x="281" 
d="M206 -28l-229 19l51 712l230 -20zM48 24q34 3 56.5 13.5t36.5 29.5t21 46.5t9 65.5l5 89l-116 10l-5 -117l63 -6q-5 -42 -19 -61t-49 -25z" />
    <glyph glyph-name="quotedblleft" unicode="&#x201c;" horiz-adv-x="318" 
d="M423 171l-365 -45l-100 706l366 45zM170 553q-34 5 -52 22t-24 55l66 8l-14 107l-116 -13l10 -82q4 -35 13 -59.5t25 -41t39.5 -25.5t57.5 -12zM310 570q-34 4 -52 21t-23 55l64 9l-12 107l-117 -13l10 -82q8 -69 38 -100.5t97 -37.5z" />
    <glyph glyph-name="quotedblright" unicode="&#x201d;" horiz-adv-x="318" 
d="M249 120l-343 85l174 692l342 -85zM176 481q33 -1 57 6t41.5 23.5t29 42.5t19.5 63l18 86l-112 30l-25 -115l63 -17q-11 -40 -29.5 -56.5t-52.5 -16.5zM35 519q66 -3 98.5 29t48.5 105l19 86l-112 30l-25 -115l62 -16q-10 -41 -29 -57t-53 -17z" />
    <glyph glyph-name="quotedblbase" unicode="&#x201e;" horiz-adv-x="318" 
d="M218 12q56 15 79.5 47t23.5 89q0 8 -0.5 17t-1.5 19l-8 88l-116 -5l10 -117l65 2q0 -41 -11.5 -62t-45.5 -32zM72 7q57 14 80 46t23 89q0 8 -0.5 17t-1.5 19l-7 88l-116 -5l10 -117l64 3q0 -42 -11 -63t-45 -32zM381 -30h-367l-26 719h369z" />
    <glyph glyph-name="dagger" unicode="&#x2020;" horiz-adv-x="449" 
d="M251 186l11 273l113 -4l2 56l-113 5l3 95l-73 2l-3 -95l-118 5l-2 -57l118 -4l-11 -272zM36 685l405 -16l-21 -549l-405 16z" />
    <glyph glyph-name="daggerdbl" unicode="&#x2021;" horiz-adv-x="425" 
d="M381 338l-4 66l-121 -9l-8 116l120 8l-4 66l-121 -8l-7 99l-85 -6l7 -99l-127 -10l5 -65l127 9l8 -116l-126 -9l4 -66l127 9l7 -101l85 7l-7 100zM-5 681l398 29l35 -493l-398 -29z" />
    <glyph glyph-name="bullet" unicode="&#x2022;" horiz-adv-x="553" 
d="M280 646q-37 0 -70 -14.5t-58.5 -40t-40.5 -59t-15 -72.5q0 -37 14 -70t38.5 -58.5t58.5 -40.5t74 -15q36 0 69.5 14t59 38.5t40.5 58t15 72.5q0 37 -14 71t-39 60t-59 41t-73 15zM74 785l512 -94l-104 -572l-512 94z" />
    <glyph glyph-name="ellipsis" unicode="&#x2026;" horiz-adv-x="560" 
d="M461 -87l-437 97l116 439l437 -98zM180 57l22 85l-63 18l-23 -86zM296 32l22 86l-64 17l-23 -85zM412 12l23 84l-65 17l-22 -85z" />
    <glyph glyph-name="guilsinglleft" unicode="&#x2039;" horiz-adv-x="221" 
d="M186 408v99l-171 -121v-70l171 -117v96l-88 56zM225 94l-272 22l35 466l274 -22z" />
    <glyph glyph-name="guilsinglright" unicode="&#x203a;" horiz-adv-x="246" 
d="M42 290l8 -97l160 133l-4 71l-181 104l9 -98l92 -49zM-47 580l274 22l35 -466l-272 -22z" />
    <glyph glyph-name="fraction" unicode="&#x2044;" horiz-adv-x="174" 
d="M-157 -38l410 735l78 5l-412 -735z" />
    <glyph glyph-name="Euro" unicode="&#x20ac;" horiz-adv-x="527" 
d="M476 513l-33 -637l-418 22l32 637zM61 112l40 -2q6 -34 22.5 -60t39.5 -44t50.5 -27.5t55.5 -9.5q58 0 97 37l-33 44q-12 -12 -26.5 -19.5t-32.5 -7.5t-37 4.5t-35 14.5t-28 26t-17 40l105 -6l28 38l-143 7q-2 7 -2.5 16.5t-0.5 18.5q0 13 1 18l168 -9l20 41l-180 7
q16 45 43 69.5t69 24.5q33 0 56.5 -12.5t40.5 -44.5l33 49q-22 35 -54 48.5t-69 13.5q-66 0 -112 -36.5t-64 -108.5l-25 1l-7 -38l27 -2q-1 -7 -1 -14.5v-15.5v-12t1 -11l-22 1z" />
    <glyph glyph-name="uni20B9" unicode="&#x20b9;" horiz-adv-x="419" 
d="M83 540l101 -11q15 -2 24 -9t14 -16l-130 14l-19 -75l142 -15q-8 -8 -16.5 -13.5t-21.5 -5.5l-50 5l-16 -67l37 -4q47 -6 47 -40l-12 -94l90 -10l9 89q1 5 1 8.5v7.5q0 26 -11 41t-32 24q18 4 32.5 17.5t24.5 32.5l25 -3l20 74l-30 4q-2 5 -2 10.5t-2 10.5l25 -2l20 73
l-251 27zM41 696l382 -41l-56 -509l-381 41z" />
    <glyph glyph-name="trademark" unicode="&#x2122;" horiz-adv-x="658" 
d="M295 612l16 55l-170 51l-16 -56l55 -17l-74 -254l58 -18l75 255zM434 296l47 -15l91 311l-59 17l-96 -174l7 198l-54 19l-91 -311l48 -14l51 187l-9 -200l25 -8l96 175zM118 799l549 -161l-133 -453l-549 162z" />
    <glyph glyph-name="minus" unicode="&#x2212;" horiz-adv-x="397" 
d="M338 189l6 68l-316 29l-6 -68zM11 473l383 -35l-39 -426l-383 35z" />
    <glyph glyph-name="infinity" unicode="&#x221e;" horiz-adv-x="716" 
d="M408 244q9 13 17 25t18.5 21.5t24 15t32.5 5.5q29 0 40.5 -16t11.5 -38q0 -17 -15 -32.5t-52 -15.5q-27 0 -46.5 12.5t-30.5 22.5zM311 228q-5 -9 -12.5 -19.5t-18.5 -20.5t-27.5 -16.5t-38.5 -6.5q-48 0 -48 52q0 17 15.5 33.5t50.5 16.5q23 0 42 -12.5t37 -26.5z
M375 145q23 -20 52.5 -33.5t69.5 -13.5q33 0 62.5 9t51.5 28t34.5 47.5t12.5 66.5q0 47 -13 81.5t-34 57t-47.5 33.5t-54.5 11q-33 0 -59 -8.5t-46 -22.5t-35 -31.5t-26 -34.5q-25 20 -54.5 33.5t-68.5 13.5q-33 0 -62.5 -9t-51 -28t-34.5 -47.5t-13 -67.5q0 -46 12.5 -80
t33.5 -56.5t47.5 -33.5t54.5 -11q33 0 60.5 9t48.5 22.5t35.5 30.5t23.5 34zM-25 442l694 115l84 -507l-694 -115z" />
    <glyph glyph-name="notequal" unicode="&#x2260;" horiz-adv-x="381" 
d="M91 -4l66 127l174 16l-7 66l-129 -12l27 51l98 10l-7 67l-54 -6l60 113l-45 -5l-59 -112l-181 -17l7 -67l136 13l-27 -52l-104 -10l6 -66l62 6l-66 -127zM-13 426l357 34l47 -484l-357 -34z" />
    <glyph glyph-name="lozenge" unicode="&#x25ca;" horiz-adv-x="489" 
d="M252 102l-68 142l55 150l70 -144zM328 -15l108 270l-131 260l-139 -6l-114 -270l137 -260zM12 559l438 19l29 -655l-438 -19z" />
    <glyph glyph-name="exclam.1" unicode="&#xe060;" horiz-adv-x="372" 
d="M345 -85l-259 -20l-58 747l260 20zM236 123l-31 407l-79 -6l31 -407zM247 -14l-8 102l-79 -6l8 -102z" />
    <glyph glyph-name="parenleft.1" unicode="&#xe061;" horiz-adv-x="379" 
d="M271 -140l-252 35l107 779l253 -36zM236 -41q-19 60 -35 124t-16 130q0 32 2.5 58t13.5 58t33 77t61 115l-54 8q-20 -37 -39 -75t-34.5 -78t-25 -82t-9.5 -86q0 -45 9.5 -103t33.5 -137z" />
    <glyph glyph-name="parenright.1" unicode="&#xe062;" horiz-adv-x="425" 
d="M315 -177l-315 41l96 758l317 -40zM211 -37q20 30 38.5 63t32.5 68t22.5 72t8.5 77q0 48 -9.5 97.5t-21.5 100.5l-45 6q20 -77 28.5 -120.5t8.5 -75.5q0 -72 -32.5 -141t-79.5 -141z" />
    <glyph glyph-name="comma.1" unicode="&#xe063;" horiz-adv-x="442" 
d="M368 -131l-318 16l27 535l318 -15zM171 -79q60 8 83 42t25 103l3 81l-108 6v-107l57 -4q-2 -19 -5.5 -32.5t-10 -23t-17 -15t-26.5 -8.5z" />
    <glyph glyph-name="period.1" unicode="&#xe064;" horiz-adv-x="356" 
d="M230 -176l-217 62l136 488l216 -63zM188 -66l25 96l-70 19l-27 -94z" />
    <glyph glyph-name="zero.1" unicode="&#xe065;" 
d="M541 -199l-518 82l116 738l517 -82zM329 -59q38 0 68 16t52.5 43t38 61.5t25 71.5t14 74t4.5 68q0 42 -8.5 84t-29 75.5t-55 54t-86.5 20.5q-57 0 -96 -35.5t-63 -87t-35 -110t-11 -104.5q0 -52 12 -94.5t35.5 -73t57 -47t77.5 -16.5zM353 452q33 0 56 -14t37.5 -37.5
t21 -53t6.5 -59.5q0 -20 -3 -49.5t-9.5 -61.5t-17.5 -64t-27.5 -57.5t-38.5 -41.5t-51 -16q-53 0 -88.5 41.5t-35.5 128.5q0 19 3 48t10 60.5t18.5 63t28 56.5t39 40.5t51.5 15.5z" />
    <glyph glyph-name="one.1" unicode="&#xe066;" horiz-adv-x="578" 
d="M436 -115l-390 63l119 738l390 -63zM364 -13l90 556q-44 -26 -96 -50t-116 -47l18 -52q32 11 62 23.5t59 23.5l-72 -445z" />
    <glyph glyph-name="two.1" unicode="&#xe067;" horiz-adv-x="542" 
d="M451 -201l-434 55l86 688l434 -55zM397 -35l9 67l-175 23q200 142 200 252q0 26 -10.5 48t-29 37.5t-43.5 24.5t-55 9q-107 0 -141 -134l69 -8q12 76 72 76q29 0 50.5 -13.5t21.5 -36.5q0 -32 -33.5 -76.5t-101.5 -94.5q-5 -4 -50 -35.5t-134 -94.5z" />
    <glyph glyph-name="three.1" unicode="&#xe068;" horiz-adv-x="567" 
d="M548 35l-489 -21l-27 674l487 18zM306 112q31 0 60.5 8t52.5 25t37.5 43.5t14.5 64.5q0 42 -22 75t-61 43q31 14 44 39t13 62q0 30 -12.5 53t-34.5 38.5t-52 24t-65 8.5t-61 -5.5t-44.5 -16t-32 -24.5t-24.5 -31l68 -34q16 22 40.5 30.5t53.5 8.5q43 0 66.5 -15t23.5 -41
q0 -16 -6.5 -29t-22 -22.5t-42.5 -14.5t-69 -5l5 -74q17 1 31 1h25q49 0 77 -17t28 -54q0 -9 -3.5 -21t-13.5 -23t-29.5 -18.5t-50.5 -7.5q-23 0 -56 6t-65 22l-48 -58q20 -12 66.5 -26.5t108.5 -14.5z" />
    <glyph glyph-name="four.1" unicode="&#xe069;" horiz-adv-x="597" 
d="M503 544l73 -634l-473 -55l-73 634zM477 150l-52 -4l-38 322l-65 -7l-179 -398l239 28l13 -110l48 6l-13 110l53 6zM347 392l30 -253l-151 -17z" />
    <glyph glyph-name="five.1" unicode="&#xe06a;" horiz-adv-x="672" 
d="M641 29l-543 -100l-126 684l543 100zM516 226q0 34 -11.5 64.5t-33 53t-52 35.5t-67.5 13q-34 0 -64.5 -9t-58.5 -29l-19 144l225 42l-13 73l-295 -55l41 -325l66 13q28 73 109 73q18 0 35 -5.5t30.5 -17t22 -30t8.5 -44.5q0 -18 -7 -35.5t-21.5 -31t-36 -22t-50.5 -8.5
q-60 0 -84 67l-71 -13q16 -63 55 -95t97 -32q45 0 81.5 14t61.5 38t38.5 55.5t13.5 66.5z" />
    <glyph glyph-name="six.1" unicode="&#xe06b;" horiz-adv-x="559" 
d="M453 -36l-438 72l112 684l438 -71zM456 239q0 36 -12.5 65.5t-35 51t-52.5 33.5t-66 12t-60.5 -10.5t-42.5 -31.5l3 14q21 75 55 115.5t84 40.5q53 0 78 -29t25 -78l50 -9q0 77 -39 122t-122 45q-67 0 -111.5 -47.5t-67.5 -132.5q-18 -66 -18 -124q0 -45 11.5 -83.5
t33 -66.5t54 -44t74.5 -16q31 0 60 12t51 34.5t35 54.5t13 72zM286 349q23 0 44.5 -8t38 -23t26.5 -36t10 -47t-8.5 -47t-23.5 -36.5t-35 -24t-42 -8.5q-26 0 -48.5 9.5t-38.5 26t-25 38t-9 45.5q0 25 9 46t24.5 35t35.5 22t42 8z" />
    <glyph glyph-name="seven.1" unicode="&#xe06c;" horiz-adv-x="528" 
d="M470 33l-457 44l51 522l454 -44zM428 452l5 55l-275 25l-6 -65l199 -18l-187 -346l70 -9z" />
    <glyph glyph-name="eight.1" unicode="&#xe06d;" horiz-adv-x="588" 
d="M576 27l-478 -56l-76 650l469 54zM474 216q0 40 -15.5 75t-55.5 54q20 20 30 42t10 49q0 31 -11 56t-30.5 43t-45 27.5t-54.5 9.5q-37 0 -67 -11t-51 -30t-32.5 -44t-11.5 -52q0 -42 17.5 -72t47.5 -47q-20 -19 -30.5 -44.5t-10.5 -54.5q0 -66 38 -100.5t101 -34.5
q85 0 128 36.5t43 97.5zM367 440q0 -34 -17 -56t-67 -22q-29 0 -47.5 17t-18.5 55q0 25 19 45.5t58 20.5q29 0 51 -15.5t22 -44.5zM398 229q0 -76 -86 -76q-29 0 -51 16.5t-22 48.5t22 53t60 21q29 0 51 -16t26 -47z" />
    <glyph glyph-name="nine.1" unicode="&#xe06e;" horiz-adv-x="539" 
d="M500 33h-457v608h460zM430 338q0 114 -38.5 165t-112.5 51q-64 0 -103 -40.5t-39 -104.5q0 -30 9.5 -56t27.5 -45t43.5 -29.5t57.5 -10.5q77 0 108 49q-6 -79 -32 -121t-73 -42q-41 0 -64.5 18.5t-29.5 59.5h-43q8 -60 41 -90.5t90 -30.5q78 0 118 58t40 169zM379 405
q-2 -44 -27.5 -68.5t-69.5 -24.5q-45 0 -73 23.5t-28 68.5t25.5 75t70.5 30t72.5 -27t29.5 -77z" />
    <glyph glyph-name="question.1" unicode="&#xe06f;" horiz-adv-x="373" 
d="M299 20l-312 37l76 628l314 -37zM303 425q3 15 3 28q0 33 -14.5 54.5t-42 34.5t-67 18.5t-88.5 5.5l2 -68q70 0 105 -8.5t35 -40.5q0 -37 -58 -79q-18 -14 -30.5 -26t-21 -27t-13.5 -33.5t-9 -44.5l69 -9q0 32 14 55t46 43t48 45t22 52zM158 115l10 87l-67 7l-11 -86z
" />
    <glyph glyph-name="A.1" unicode="&#xe070;" horiz-adv-x="574" 
d="M579 611l-62 -554l-517 57l62 555zM469 129l-113 420l-188 22l-6 -59l101 -12l-175 -326l52 -29l60 112l178 -19l35 -125zM363 298l-134 15l87 160z" />
    <glyph glyph-name="B.1" unicode="&#xe071;" horiz-adv-x="618" 
d="M573 -75l-583 24l29 662l585 -26zM356 -4q31 0 60 6.5t51.5 22t35.5 42t13 65.5q0 45 -25 78t-77 47q26 4 44 16.5t29.5 30t16.5 37.5t5 38q0 68 -61 99t-178 37l-164 8v-53l72 -3l-21 -462zM464 137q0 -48 -29 -68.5t-78 -20.5l-146 7l8 186l105 -6q28 -2 53.5 -8.5
t45 -18.5t30.5 -29.5t11 -41.5zM457 382q0 -51 -27 -73.5t-79 -22.5h-9t-9 1l-112 6l9 173q122 0 174.5 -20t52.5 -64z" />
    <glyph glyph-name="C.1" unicode="&#xe072;" horiz-adv-x="580" 
d="M497 635l68 -593l-512 -57l-67 594zM419 250q-10 -56 -42 -78t-73 -22q-29 0 -53 13.5t-41.5 37.5t-27.5 57t-10 72q0 65 34 106.5t94 41.5q32 0 54.5 -18.5t30.5 -53.5l64 21q-14 60 -56 90t-95 30q-44 0 -79.5 -16.5t-61 -45.5t-39 -67.5t-13.5 -83.5
q0 -61 15.5 -108.5t42.5 -79.5t62.5 -49t74.5 -17q69 0 118 39t59 117z" />
    <glyph glyph-name="D.1" unicode="&#xe073;" horiz-adv-x="655" 
d="M693 572l-83 -633l-620 80l84 631zM332 77q55 0 98 19.5t72 54t44 81t15 101.5q0 48 -13.5 86.5t-44.5 66.5t-81 45.5t-123 25.5q-30 3 -51.5 5t-37.5 4l-28 3.5t-24 3.5l-7 -48l63 -7l-54 -417q45 -11 91 -17.5t81 -6.5zM514 323q0 -39 -10.5 -75t-32 -63.5t-55.5 -44
t-80 -16.5q-16 0 -29 1t-26.5 3t-30 5t-38.5 8l47 372l67 -7q98 -11 143 -58t45 -125z" />
    <glyph glyph-name="E.1" unicode="&#xe074;" horiz-adv-x="550" 
d="M482 600l59 -585l-472 -49l-61 586zM412 508l-333 -35l7 -61l57 5l38 -381l286 29l-6 63l-224 -23l-14 137l207 20l-6 63l-207 -21l-12 120l215 22z" />
    <glyph glyph-name="F.1" unicode="&#xe075;" horiz-adv-x="693" 
d="M633 0l-602 33l34 655l603 -31zM515 292l4 77l-217 11l7 121l225 -12l3 76l-361 18l-4 -75l61 -3l-22 -423h75l13 222z" />
    <glyph glyph-name="G.1" unicode="&#xe076;" horiz-adv-x="665" 
d="M680 -163l-630 -48l-64 822l630 48zM515 230q-3 42 -29 66t-85 20l-149 -11l3 -50l160 12q24 2 35 -7.5t13 -33.5l10 -125q-23 -17 -57 -25.5t-82 -8.5q-83 0 -133.5 58t-50.5 162q0 46 12.5 83.5t35.5 64.5t54 41.5t69 14.5q47 0 79.5 -21.5t45.5 -69.5l47 15
q-17 64 -62.5 96.5t-105.5 32.5q-49 0 -90.5 -20.5t-71.5 -55.5t-46.5 -82t-16.5 -100q0 -67 17.5 -117.5t49.5 -85t76.5 -52t98.5 -17.5q16 0 35.5 2t38 6.5t34.5 11t27 15.5q0 -7 0.5 -12.5t0.5 -10.5q0 -28 -12 -38.5t-48 -13.5l-202 -16l4 -50l202 16q28 2 48 7.5t33 18
t19 34t6 54.5v17.5t-1 20.5z" />
    <glyph glyph-name="H.1" unicode="&#xe077;" horiz-adv-x="657" 
d="M588 660l72 -673l-578 -63l-74 674zM498 547l-65 -7l20 -169l-188 -21l-19 170l-111 -14l5 -65l47 6l39 -358l65 4l-21 193l187 20l21 -192l67 8z" />
    <glyph glyph-name="I.1" unicode="&#xe078;" horiz-adv-x="423" 
d="M304 -126l-272 48l112 634l273 -50zM216 -16l81 452l-99 18l-9 -46l53 -9l-71 -407z" />
    <glyph glyph-name="J.1" unicode="&#xe079;" horiz-adv-x="599" 
d="M495 -96l-487 61l93 735l476 -60zM357 560l-11 -77l67 -8l-32 -294q-5 -48 -28 -75t-57 -27q-41 0 -63 27.5t-22 93.5l-75 -10q0 -90 44.5 -140t113.5 -50q32 0 60.5 13t50.5 36t36.5 55.5t18.5 71.5l40 370z" />
    <glyph glyph-name="K.1" unicode="&#xe07a;" horiz-adv-x="733" 
d="M740 -89l-660 -59l-70 774l649 58zM671 75q-28 -4 -56.5 -8.5t-60.5 -4.5q-22 0 -38 9t-27 24.5t-19 36t-14 43.5q-16 62 -29 99.5t-27 57.5t-31 26.5t-39 6.5q-5 0 -11 -0.5t-25 -2.5l179 195l-50 45l-198 -215l-16 177l-118 -10l6 -65l61 5l39 -430l63 6l-21 226l45 4
q14 1 18 1t6 1q28 0 43 -15t23.5 -38t13.5 -50t11 -51q11 -42 24.5 -70.5t30.5 -46.5t37.5 -25.5t46.5 -7.5q10 0 30 1.5t41.5 3.5t40.5 4.5t28 5.5z" />
    <glyph glyph-name="L.1" unicode="&#xe07b;" horiz-adv-x="612" 
d="M618 -20l-527 -85l-108 670l528 85zM497 66l-11 69l-217 -35l-62 384l-115 -19l11 -68l47 8l62 -384z" />
    <glyph glyph-name="M.1" unicode="&#xe07c;" horiz-adv-x="691" 
d="M659 -37l-589 -48l-48 600l579 47zM579 56l-31 393l-62 -5l-110 -336l-171 310l-105 -12l4 -40l45 5l28 -355l35 4l-28 354l201 -365l134 395l29 -352z" />
    <glyph glyph-name="N.1" unicode="&#xe07d;" horiz-adv-x="640" 
d="M539 -76l-522 64l81 664l522 -63zM477 30l55 459l-64 7l-42 -344l-174 371l-111 14l-8 -66l41 -5l-48 -393l66 -9l41 348l174 -373z" />
    <glyph glyph-name="O.1" unicode="&#xe07e;" horiz-adv-x="643" 
d="M627 564v-671h-608v674zM555 235q0 47 -14.5 94.5t-43 85.5t-71.5 62t-99 24q-50 0 -93 -20t-74.5 -55t-49 -84t-17.5 -106q0 -59 16.5 -109.5t47 -87t73 -57t95.5 -20.5q50 0 92.5 20.5t73 57.5t47.5 86.5t17 108.5zM321 428q37 0 67 -16.5t51 -43t32 -60.5t11 -70
q0 -34 -9.5 -69.5t-29.5 -65t-50.5 -48.5t-73.5 -19q-35 0 -63 15.5t-48 42t-30.5 62.5t-10.5 78q0 40 11.5 75.5t31.5 62t48.5 41.5t62.5 15z" />
    <glyph glyph-name="P.1" unicode="&#xe07f;" horiz-adv-x="664" 
d="M545 -39l-558 84l96 631l558 -85zM357 275q35 0 65 9t52.5 27t35 46t12.5 67q0 55 -36.5 93t-99.5 55q-23 6 -83 16t-143 20l-12 -75l41 -7l-64 -421l75 -11l31 195q76 -14 126 -14zM446 426q0 -36 -24 -57t-62 -21q-22 0 -51 4.5t-67 12.5l24 152q90 -11 135 -29t45 -62
z" />
    <glyph glyph-name="Q.1" unicode="&#xe080;" horiz-adv-x="808" 
d="M665 755l125 -795l-682 -104l-124 796zM707 68q-66 -21 -106 -21q-25 0 -43 6t-31.5 16.5t-22.5 24t-16 29.5q34 34 50.5 80.5t16.5 100.5q0 61 -18 114t-49.5 92t-75 61t-94.5 22q-53 0 -94.5 -20t-70.5 -54t-44 -79t-15 -96q0 -64 19 -117t51 -90.5t74 -58.5t89 -21
q32 0 63.5 9t60.5 26q25 -53 57.5 -74t77.5 -21q26 0 58.5 6t71.5 15zM470 188q-12 48 -22 80t-23.5 51.5t-33.5 27.5t-51 8q-34 0 -69.5 -5t-73.5 -13l8 -51q63 11 96.5 15t45.5 4q18 0 30.5 -17.5t21.5 -42.5t16 -53t14 -49q-22 -18 -49 -27t-52 -9q-38 0 -71.5 19
t-58.5 51.5t-39 76t-14 91.5q0 40 11.5 75.5t33 62.5t53.5 43t73 16q40 0 74.5 -18.5t60 -50.5t40 -74.5t14.5 -91.5q0 -66 -35 -119z" />
    <glyph glyph-name="R.1" unicode="&#xe081;" horiz-adv-x="782" 
d="M678 -87l-650 91l97 696l650 -91zM533 -23q21 -3 35.5 -5t25 -3t19 -2t18.5 -2l6 47q-18 2 -38.5 4t-55.5 7q-42 6 -64 34.5t-22 76.5q0 17 2 49t4 61q0 32 -9.5 55.5t-30.5 40.5q45 9 68 42.5t23 79.5q0 53 -36.5 82.5t-105.5 39.5l-208 28l-7 -48l50 -7l-59 -421l47 -7
l30 216l124 -18q41 -6 54 -33t13 -65q0 -21 -2 -44t-2 -44q0 -70 30.5 -113t90.5 -51zM466 447q-11 -72 -100 -72q-19 0 -41 3t-35.5 5t-23.5 3.5t-17.5 2.5t-17.5 3l23 158q42 -5 81 -9.5t68 -13.5t46.5 -24.5t17.5 -43.5q0 -3 -0.5 -6t-0.5 -6z" />
    <glyph glyph-name="S.1" unicode="&#xe082;" horiz-adv-x="569" 
d="M518 659l17 -700l-509 -14l-17 700zM406 477q-11 62 -43.5 86.5t-86.5 24.5q-74 0 -119.5 -31.5t-45.5 -96.5q0 -37 17 -61.5t48 -40.5q27 -14 61 -20t64 -15t51 -25.5t21 -49.5q0 -21 -9.5 -37.5t-25 -28t-34.5 -17.5t-38 -6q-45 0 -78.5 25t-38.5 70l-44 -7
q11 -62 49.5 -97.5t101.5 -35.5q34 0 63.5 9.5t51.5 27t34.5 42.5t12.5 55q0 67 -53 97q-26 15 -61.5 21.5t-68.5 16t-56 27t-23 52.5q0 32 28.5 56t88.5 24q38 0 62 -18t29 -59z" />
    <glyph glyph-name="T.1" unicode="&#xe083;" horiz-adv-x="610" 
d="M484 -28l-478 99l130 629l478 -98zM483 433l16 76l-309 65l-15 -78l117 -24l-67 -325l77 -16l67 325z" />
    <glyph glyph-name="U.1" unicode="&#xe084;" horiz-adv-x="614" 
d="M65 -191l-70 558l523 65l70 -558zM441 373l-46 -5l37 -294q1 -5 1 -9.5v-9.5q0 -26 -9 -48.5t-25.5 -39.5t-40 -27t-51.5 -10q-48 0 -81 32.5t-39 83.5l-36 291l-90 -11l5 -46l46 6l31 -245q4 -33 17.5 -61.5t35 -49.5t49.5 -33t61 -12q36 0 67 13t54.5 36t37 54t13.5 68
v12t-1 12z" />
    <glyph glyph-name="V.1" unicode="&#xe085;" horiz-adv-x="646" 
d="M556 -195l-542 66l70 575l542 -66zM539 286l-41 20l-186 -366l-90 393l-78 10l-5 -44l45 -5l95 -406l53 -6z" />
    <glyph glyph-name="W.1" unicode="&#xe086;" horiz-adv-x="762" 
d="M720 -54l-704 39l37 665l703 -37zM672 489l-38 14l-110 -343l-90 339l-49 3l-124 -330l-72 350l-74 3l-1 -39l44 -2l71 -352l59 -2l119 319l88 -332l55 -1z" />
    <glyph glyph-name="X.1" unicode="&#xe087;" horiz-adv-x="702" 
d="M632 658l29 -737l-607 -22l-28 736zM518 444l-69 47l-110 -166l-112 139l-95 -2l3 -83l55 3l99 -130l-133 -195l70 -46l117 174l128 -164l66 50l-146 186z" />
    <glyph glyph-name="Y.1" unicode="&#xe088;" horiz-adv-x="631" 
d="M524 -19l-520 87l91 534l519 -86zM506 427l-28 28l-162 -167l-89 202l-66 13l-7 -41l46 -7l89 -204l-30 -169l39 -6l29 167z" />
    <glyph glyph-name="Z.1" unicode="&#xe089;" horiz-adv-x="531" 
d="M383 -124l-384 100l142 546l384 -98zM352 -63l17 61l-202 53l277 238l14 55l-283 74l-15 -63l201 -53l-276 -237l-15 -55z" />
    <glyph glyph-name="a.1" unicode="&#xe08a;" horiz-adv-x="387" 
d="M301 -22l-302 55l78 501l320 -59l-66 -348q-12 3 -15.5 12t-3.5 23q5 48 8.5 84.5t3.5 61.5q0 62 -27.5 86t-80.5 24q-33 0 -58.5 -17t-43.5 -55l38 -17q25 49 69 49q32 0 46 -14.5t14 -48.5v-11.5t-1 -14.5q-43 8 -78 8q-24 0 -46 -5t-38.5 -16.5t-26.5 -31t-10 -48.5
q0 -13 6 -27.5t20 -26.5t38.5 -20t62.5 -8q23 0 40 6t27 16q0 -20 15.5 -33.5t32.5 -15.5zM277 252q0 -14 -2 -33t-5 -43q-11 -14 -24.5 -21t-36.5 -7q-44 0 -64.5 16t-20.5 35q0 29 21 45t59 16q14 0 31.5 -2t41.5 -6z" />
    <glyph glyph-name="b.1" unicode="&#xe08b;" horiz-adv-x="561" 
d="M494 -69l-480 46l68 721l482 -47zM294 25q37 0 66.5 17.5t49.5 45.5t30.5 63.5t10.5 71.5q0 38 -10.5 69t-29 52.5t-44 33.5t-56.5 12q-56 0 -100 -44l19 191l-98 9l-5 -51l48 -4q-5 -59 -10 -120t-11 -119t-12.5 -110.5t-13.5 -93.5l50 -9l7 44q40 -58 109 -58zM402 219
q0 -23 -6 -48t-19.5 -46.5t-34 -35.5t-48.5 -14q-39 0 -64 33t-25 90q0 67 28.5 103t70.5 36t70 -30.5t28 -87.5z" />
    <glyph glyph-name="c.1" unicode="&#xe08c;" horiz-adv-x="477" 
d="M363 440l102 -572l-375 -67l-102 572zM371 184q-20 48 -54 76t-81 28q-36 0 -64.5 -14.5t-48.5 -39t-30.5 -56.5t-10.5 -67q0 -33 10 -69t30.5 -66.5t50.5 -50.5t70 -20q36 0 64 12t46.5 33.5t28 50t9.5 61.5l-50 3q-5 -109 -91 -109q-28 0 -49.5 14.5t-36.5 37t-22.5 50
t-7.5 53.5q0 24 6.5 47t19.5 40.5t32.5 28.5t46.5 11q58 0 85 -72z" />
    <glyph glyph-name="d.1" unicode="&#xe08d;" horiz-adv-x="611" 
d="M496 -138l-484 73l115 765l484 -74l-89 -593q-38 4 -53 16t-15 42q0 11 1 24.5t3 28.5l57 395l-114 18l-11 -78l37 -5l-12 -80q-22 19 -46 29.5t-52 10.5q-39 0 -69 -17.5t-51 -47t-32 -67.5t-11 -78q0 -36 9 -66.5t26 -53t42.5 -35t58.5 -12.5q23 0 46.5 8t42.5 22
q0 -26 4 -47t18 -37t39.5 -27.5t69.5 -17.5zM387 263q0 -18 -4.5 -40.5t-14 -42t-26 -32.5t-40.5 -13q-73 0 -73 87q0 28 5.5 52.5t16.5 43t26.5 29t36.5 10.5q36 0 54.5 -28t18.5 -66z" />
    <glyph glyph-name="e.1" unicode="&#xe08e;" horiz-adv-x="668" 
d="M523 675l132 -590l-509 -113l-133 590zM535 329q-5 17 -8.5 34.5t-8.5 34.5q-21 62 -64 101.5t-106 39.5q-44 0 -79.5 -15.5t-60.5 -42.5t-38.5 -63t-13.5 -78q0 -50 15.5 -92t41 -73t59.5 -48.5t72 -17.5q28 0 57 10q65 22 96 66t38 106l-119 -25q-4 -17 -23 -28
t-42 -11q-20 0 -37.5 10.5t-25.5 35.5zM281 376q2 23 18.5 34.5t36.5 11.5q13 0 25 -5.5t19 -17.5z" />
    <glyph glyph-name="f.1" unicode="&#xe08f;" horiz-adv-x="497" 
d="M435 -98l-427 46l80 731l413 -45zM402 524q-16 6 -38.5 12t-54.5 6q-25 0 -41.5 -8.5t-27 -22t-15.5 -29.5t-6 -32l-6 -57l-54 6l-9 -82l60 -6l-33 -305l78 -9l34 308l81 -9l9 84l-83 6l4 42q2 28 28 28q15 0 29.5 -4t21.5 -8z" />
    <glyph glyph-name="g.1" unicode="&#xe090;" horiz-adv-x="529" 
d="M419 -35l-417 67l109 673l417 -68zM395 182q13 51 23.5 126.5t30.5 176.5l-50 11l-9 -45q-20 33 -51.5 52t-70.5 19q-30 0 -59.5 -14.5t-52.5 -42t-37 -67t-14 -88.5q0 -27 8 -54t26 -48t46 -34t68 -13q32 0 57 12t37 29q-16 -60 -46.5 -82t-72.5 -22q-25 0 -53 5.5
t-58 13.5l-8 -52q30 -8 62 -14.5t63 -6.5q26 0 50.5 6.5t45.5 22t37.5 42t27.5 67.5zM269 470q21 0 39 -8.5t31 -23.5t20.5 -34.5t7.5 -41.5q0 -21 -6 -47.5t-19 -50t-34 -39t-50 -15.5q-46 0 -73.5 31t-27.5 79q0 35 10 63t26.5 47.5t36 29.5t39.5 10z" />
    <glyph glyph-name="h.1" unicode="&#xe091;" horiz-adv-x="500" 
d="M519 523l-99 -725l-433 59l100 733zM352 83q1 5 1.5 13t0.5 15q0 50 -29 82t-88 32q-20 0 -34.5 -5.5t-28.5 -13.5l21 150l-92 13l-8 -62l23 -4l-53 -385l65 -9l32 222q20 32 58 32q33 0 51.5 -13.5t18.5 -42.5v-7.5t-1 -8.5l-32 -203l63 -9z" />
    <glyph glyph-name="i.1" unicode="&#xe092;" horiz-adv-x="351" 
d="M255 647l88 -611l-250 -36l-88 611zM206 533l-66 -10l11 -79l66 10zM223 413l-96 -14l10 -66l30 5l35 -245l66 10z" />
    <glyph glyph-name="j.1" unicode="&#xe093;" horiz-adv-x="578" 
d="M444 701l111 -818l-417 -57l-112 818zM402 434l-114 -16l11 -78l35 6l31 -227q1 -5 1 -10v-10q0 -33 -16.5 -51t-43.5 -27t-60.5 -11.5t-67.5 -5.5l11 -78q45 4 90.5 11t82.5 24.5t60.5 49t23.5 84.5v16.5t-2 17.5zM383 574l-78 -10l13 -94l77 10z" />
    <glyph glyph-name="k.1" unicode="&#xe094;" horiz-adv-x="657" 
d="M541 527l70 -688l-540 -56l-72 699zM559 -103l-278 190l162 151l-60 62l-150 -154l-22 274l-128 -13l7 -82l35 3l48 -465l85 9l-14 136l179 -124z" />
    <glyph glyph-name="l.1" unicode="&#xe095;" horiz-adv-x="531" 
d="M347 -165l-347 72l166 782l346 -73zM265 -22l108 509l-112 24l-15 -74l37 -6l-91 -438z" />
    <glyph glyph-name="m.1" unicode="&#xe096;" horiz-adv-x="788" 
d="M741 374l40 -490l-727 -61l-41 489zM643 121q-5 60 -37 93t-80 33q-38 0 -65 -15t-47 -44q-31 44 -76 44q-25 0 -45.5 -11.5t-34.5 -31.5l-3 29l-114 -9l9 -88l34 3l18 -228l86 6l-12 192q2 21 18 34.5t42 13.5q22 0 30.5 -13.5t11.5 -37.5l13 -181l87 10l-14 182
q0 24 12 40t38 16q38 0 41 -43l17 -208l88 7z" />
    <glyph glyph-name="n.1" unicode="&#xe097;" horiz-adv-x="627" 
d="M563 402l43 -530l-552 -45l-45 529zM137 293l7 -83l46 1l16 -282l83 5l-12 247q3 22 23.5 38t58.5 16q23 0 38.5 -13.5t17.5 -42.5l17 -257l86 7l-18 250q-5 71 -41.5 106t-93.5 35q-31 0 -65.5 -12.5t-55.5 -35.5l-2 28z" />
    <glyph glyph-name="o.1" unicode="&#xe098;" horiz-adv-x="621" 
d="M573 -205l-548 33l35 709l548 -34zM326 -89q47 0 82.5 20.5t59 54.5t35.5 76.5t12 87.5q0 85 -51.5 135t-141.5 50q-41 0 -75.5 -15t-60 -43.5t-39.5 -69.5t-14 -92q0 -39 11 -76t34.5 -65.5t60 -45.5t87.5 -17zM329 233q22 0 37.5 -9t26 -24t15.5 -34.5t5 -40.5
q0 -57 -23.5 -85t-61.5 -28q-40 0 -66.5 27.5t-26.5 76.5q0 56 27 86.5t67 30.5z" />
    <glyph glyph-name="p.1" unicode="&#xe099;" horiz-adv-x="620" 
d="M625 586l-74 -681l-559 61l75 690zM351 127q43 0 75.5 22t54.5 56t33 75.5t11 80.5q0 42 -11 78t-33 61.5t-53.5 40t-72.5 14.5q-27 0 -49.5 -9t-40.5 -25l4 40l-129 16l-12 -108l38 -5l-49 -435l108 -12l17 159q18 -22 46 -35.5t63 -13.5zM417 359q0 -16 -3.5 -37
t-12 -40t-23 -32.5t-36.5 -13.5q-34 0 -52 25t-18 63q0 25 6 47t16.5 39t25 27t32.5 10q33 0 49 -25t16 -63z" />
    <glyph glyph-name="q.1" unicode="&#xe09a;" horiz-adv-x="554" 
d="M491 -127l-475 41l57 640l475 -41zM493 373l7 70l-106 11l-3 -31q-20 25 -48.5 35.5t-57.5 10.5q-36 0 -64.5 -15t-48 -42.5t-30 -66t-10.5 -85.5q0 -44 10.5 -75t28.5 -51t42.5 -29.5t52.5 -9.5q34 0 56 13.5t35 30.5l-11 -166l72 -7l36 410zM371 278q-5 -55 -28.5 -84
t-61.5 -29q-41 0 -59.5 25.5t-18.5 73.5q0 72 23 102.5t59 30.5q47 0 66.5 -28.5t19.5 -90.5z" />
    <glyph glyph-name="r.1" unicode="&#xe09b;" horiz-adv-x="403" 
d="M350 577l57 -587l-344 -33l-57 594zM342 486q-7 -1 -13.5 -1h-12.5q-46 0 -84.5 -15.5t-58.5 -46.5l-4 46l-101 -9l4 -65l47 4l31 -357l71 6l-20 278q0 40 31 68t102 28q2 0 4 -0.5t4 -0.5v65z" />
    <glyph glyph-name="s.1" unicode="&#xe09c;" horiz-adv-x="483" 
d="M475 46l-366 -53l-96 663l358 52zM382 210q0 21 -6 44t-23 40q-26 25 -69 30q-27 3 -47 5t-20 16q0 8 7 17t30 9q11 0 18.5 -5.5t10.5 -19.5l75 7q-6 55 -33.5 80t-71.5 25q-52 0 -83 -28t-31 -75q0 -23 8.5 -47.5t31.5 -40.5q19 -13 42 -17.5t42.5 -8.5t33 -10t13.5 -22
q0 -11 -9.5 -20t-32.5 -9q-16 0 -26.5 8t-20.5 25l-69 -14q9 -49 42 -75t76 -26q51 0 81.5 29.5t30.5 82.5z" />
    <glyph glyph-name="t.1" unicode="&#xe09d;" horiz-adv-x="411" 
d="M337 620l73 -621l-326 -40l-76 621zM306 465l-87 -9l-9 75l-76 -9l9 -77l-71 -8l10 -77l70 10l25 -211q5 -42 25.5 -60t53.5 -18q17 0 36.5 4t42.5 15l-17 76q-5 -5 -14 -8.5t-22 -3.5q-11 0 -19 4.5t-10 16.5l-24 193l87 10z" />
    <glyph glyph-name="u.1" unicode="&#xe09e;" horiz-adv-x="650" 
d="M585 16l-579 57l55 615l579 -57zM515 112l10 98l-45 4l29 329l-101 7l-20 -229q-5 -44 -26.5 -72t-62.5 -28q-82 0 -82 80v7.5t1 8.5l25 281l-97 8l-25 -289q-1 -7 -1 -13.5v-13.5q0 -84 47 -125t124 -41q32 0 59.5 9.5t44.5 29.5l-3 -39z" />
    <glyph glyph-name="v.1" unicode="&#xe09f;" horiz-adv-x="551" 
d="M549 31l-462 -52l-74 660l462 52zM467 545l-75 18l-76 -320l-152 285l-105 -12l9 -72l51 6l166 -306l75 9z" />
    <glyph glyph-name="w.1" unicode="&#xe0a0;" horiz-adv-x="727" 
d="M670 633l49 -581l-646 -55l-49 580zM662 442l-74 20l-67 -247l-95 211l-75 -7l-57 -229l-106 225l-102 -8l7 -75l49 5l124 -268l70 6l61 233l100 -220l66 6z" />
    <glyph glyph-name="x.1" unicode="&#xe0a1;" horiz-adv-x="526" 
d="M434 -191l-418 74l86 481l419 -76zM392 -82l-85 163l130 118l-30 33l-122 -110l-71 137l-70 11l-9 -45l50 -8l63 -117l-135 -124l30 -33l126 116l84 -162z" />
    <glyph glyph-name="y.1" unicode="&#xe0a2;" horiz-adv-x="524" 
d="M474 -187l-451 19l24 557l441 -18zM446 280l-60 27l-102 -241l-90 236l-92 1l1 -66l47 1l96 -253l-43 -104l61 -25z" />
    <glyph glyph-name="z.1" unicode="&#xe0a3;" horiz-adv-x="486" 
d="M476 -36l-397 -48l-75 627l397 48zM423 54l-10 81l-193 -23l163 273l-8 69l-303 -36l10 -79l193 23l-163 -275l8 -69z" />
    <glyph glyph-name="exclam.2" unicode="&#xe0a4;" horiz-adv-x="353" 
d="M320 -169l-287 13l38 826l287 -13zM228 73l21 451l-87 4l-21 -451zM221 -79l5 114l-87 4l-5 -114z" />
    <glyph glyph-name="parenleft.2" unicode="&#xe0a5;" horiz-adv-x="349" 
d="M289 -90l-248 4l14 769l249 -5zM245 2q-31 66 -57 138t-26 148q0 64 22.5 129t51.5 139h-52q-26 -65 -48.5 -133t-22.5 -143q0 -25 3.5 -53.5t11.5 -62t22 -73.5t35 -88z" />
    <glyph glyph-name="parenright.2" unicode="&#xe0a6;" horiz-adv-x="425" 
d="M350 -87l-317 14l33 765l318 -13zM235 44q14 30 28 61.5t25.5 64.5t18.5 67t7 70q0 53 -14.5 108t-33.5 112l-45 3q15 -44 25.5 -76t16.5 -56.5t9 -43t3 -36.5q0 -35 -7.5 -68.5t-20 -67t-29 -67.5t-33.5 -68z" />
    <glyph glyph-name="comma.2" unicode="&#xe0a7;" horiz-adv-x="442" 
d="M334 -155l-312 61l102 526l313 -60zM147 -75q31 0 52.5 7t36 22t23.5 39t15 59l14 80l-104 21l-17 -105l56 -12q-5 -18 -10 -31t-12.5 -21.5t-18.5 -12.5t-28 -5z" />
    <glyph glyph-name="period.2" unicode="&#xe0a8;" horiz-adv-x="356" 
d="M293 -82l-223 -7l-17 504l224 5zM222 9l-5 99l-72 -3l2 -97z" />
    <glyph glyph-name="zero.2" unicode="&#xe0a9;" 
d="M611 -81h-539v777h549zM343 23q56 0 93 28.5t59 72t31 96t9 100.5q0 51 -9 104t-31.5 96.5t-61.5 71.5t-98 28q-45 0 -81.5 -21t-61.5 -60.5t-38.5 -96.5t-13.5 -129q0 -66 14.5 -120t40.5 -91.5t63.5 -58t84.5 -20.5zM335 560q42 0 68.5 -21t42.5 -53.5t22 -72t6 -75.5
q0 -119 -32 -187t-100 -68q-29 0 -55 13t-45.5 40.5t-30.5 69t-11 98.5q0 126 36 191t99 65z" />
    <glyph glyph-name="one.2" unicode="&#xe0aa;" horiz-adv-x="531" 
d="M508 -117l-358 -73l-137 679l358 72zM413 -52l-103 510q-30 -36 -67.5 -74t-85.5 -78l33 -39q24 19 46.5 39.5t43.5 40.5l82 -409z" />
    <glyph glyph-name="two.2" unicode="&#xe0ab;" horiz-adv-x="604" 
d="M603 23l-475 -81l-129 752l476 81zM493 180l-11 73l-192 -31q136 173 136 283q0 62 -38 99t-96 37q-44 0 -74.5 -13.5t-49.5 -39t-28 -61.5t-9 -80l74 14q-1 6 -1.5 11.5t-0.5 10.5q0 41 22.5 63.5t67.5 22.5q29 0 44.5 -15t15.5 -46q0 -35 -19.5 -86.5t-71.5 -111.5
q-4 -5 -41.5 -53t-110.5 -143z" />
    <glyph glyph-name="three.2" unicode="&#xe0ac;" horiz-adv-x="548" 
d="M425 -143l-413 98l137 568l410 -100zM299 -32q24 0 45.5 9.5t37.5 26t25.5 38.5t9.5 48q0 27 -11.5 50.5t-34.5 37.5q19 3 33.5 13t23.5 23.5t13.5 29t4.5 29.5q0 30 -17.5 53t-43.5 39.5t-57 25t-58 8.5q-28 0 -49 -10t-40 -27l50 -45q11 8 23.5 12t26.5 4
q19 0 37.5 -5.5t32 -14.5t22 -20t8.5 -23q0 -23 -18 -34.5t-50 -11.5q-28 0 -67 9l-14 -62q36 -9 59 -17t36.5 -16.5t19 -20t5.5 -27.5q0 -7 -2 -17t-8.5 -19t-19 -15t-32.5 -6q-23 0 -61 14.5t-70 43.5l-54 -38q18 -18 40.5 -33.5t48 -27t52.5 -18t53 -6.5z" />
    <glyph glyph-name="four.2" unicode="&#xe0ad;" horiz-adv-x="618" 
d="M536 518l19 -685l-512 -14l-19 686zM471 99h-56l-10 348h-70l-229 -409l258 7l3 -118h52l-3 118l57 2zM356 371l6 -275l-163 -4z" />
    <glyph glyph-name="five.2" unicode="&#xe0ae;" horiz-adv-x="629" 
d="M521 -191l-512 90l114 643l511 -90zM308 -78q34 0 64.5 12.5t53 35t35.5 53t13 66.5q0 37 -15.5 65.5t-40.5 47t-56.5 28t-63.5 9.5q-23 0 -45 -6l30 132l211 -37l12 68l-277 49l-70 -299l63 -12q32 38 77 38q20 0 38.5 -6t32.5 -17.5t22.5 -27.5t8.5 -36
q0 -37 -24 -65.5t-69 -28.5q-53 0 -76 25.5t-23 68.5l-67 12q-1 -6 -1 -12v-12q0 -33 11 -60.5t32.5 -47.5t52.5 -31.5t71 -11.5z" />
    <glyph glyph-name="six.2" unicode="&#xe0af;" horiz-adv-x="548" 
d="M538 -204h-450v693h440zM496 38q0 34 -11 63.5t-32 51.5t-52 34.5t-72 12.5q-83 0 -120 -58l2 13q8 85 39 131.5t90 46.5q83 0 98 -88h50q-21 138 -151 138q-46 0 -80 -18.5t-56.5 -52.5t-34 -82t-11.5 -108q0 -123 48 -187t133 -64q34 0 63 12t50.5 34t34 53t12.5 68z
M335 150q27 0 48 -10t35 -26t21 -36.5t7 -41.5q0 -50 -31 -82t-80 -32q-25 0 -46.5 9.5t-37.5 26t-25.5 38.5t-9.5 46q0 28 10 48.5t27 33.5t38 19.5t44 6.5z" />
    <glyph glyph-name="seven.2" unicode="&#xe0b0;" horiz-adv-x="553" 
d="M415 -188l-415 126l151 494l413 -126zM460 223l16 52l-251 75l-18 -60l181 -55l-244 -299l64 -21z" />
    <glyph glyph-name="eight.2" unicode="&#xe0b1;" horiz-adv-x="515" 
d="M476 -175l-424 41l60 625l415 -40zM299 -88q62 0 99.5 36.5t37.5 100.5q0 32 -12 56t-34 39q29 19 43.5 44.5t14.5 63.5q0 28 -11 52t-30.5 41.5t-46 27t-57.5 9.5q-65 0 -105.5 -36t-40.5 -96q0 -29 10.5 -53t31.5 -41q-30 -17 -46.5 -48t-16.5 -69q0 -62 44 -94.5
t119 -32.5zM374 241q0 -28 -17.5 -44t-48.5 -16q-39 0 -58 17t-19 49q0 28 16.5 47.5t51.5 19.5q37 0 56 -19t19 -54zM362 37q0 -27 -17.5 -42t-51.5 -15q-15 0 -30 4t-26.5 12t-19 19.5t-7.5 27.5q0 31 19.5 50.5t51.5 19.5q38 0 59.5 -21t21.5 -55z" />
    <glyph glyph-name="nine.2" unicode="&#xe0b2;" horiz-adv-x="417" 
d="M363 -127l-384 41l57 517l383 -41zM192 -33q38 0 63.5 22t41 54.5t22 70.5t6.5 70q0 69 -33.5 103.5t-89.5 34.5q-48 0 -79 -34t-31 -85q0 -48 31 -79.5t86 -31.5q48 0 73 31q-11 -60 -33.5 -91t-56.5 -31q-36 0 -55 19t-21 52l-34 4q1 -51 28.5 -80t81.5 -29zM286 194
q-5 -32 -25 -49.5t-50 -17.5q-38 0 -61 21t-23 54q0 37 22.5 60.5t54.5 23.5q42 0 62 -28t20 -64z" />
    <glyph glyph-name="question.2" unicode="&#xe0b3;" horiz-adv-x="341" 
d="M319 -155h-307v660h307v-660zM273 238q0 63 -35 90.5t-107 27.5q-16 0 -34.5 -1.5t-41.5 -6.5l10 -65q32 7 72 7q32 0 51 -11t19 -34q0 -32 -47 -76q-19 -17 -30 -33t-17 -32t-7.5 -33t-1.5 -37h67q0 16 1.5 29.5t7 25.5t14.5 23t24 24q55 48 55 102zM172 -79l-2 85h-66
v-85h68z" />
    <glyph glyph-name="A.2" unicode="&#xe0b4;" horiz-adv-x="652" 
d="M592 539l48 -663l-618 -46l-49 664zM570 -50l-226 468l-225 -16l5 -71l122 9l-133 -422l67 -21l45 145l214 15l68 -137zM407 125l-159 -12l65 206z" />
    <glyph glyph-name="B.2" unicode="&#xe0b5;" horiz-adv-x="638" 
d="M529 -209l-558 117l134 632l557 -119zM371 -111q64 0 101 37t37 96q0 37 -20.5 68.5t-62.5 50.5q30 0 51.5 10.5t35.5 27.5t20.5 37.5t6.5 40.5q0 28 -11 51t-36 41t-65 32.5t-98 26.5l-155 32l-11 -50l71 -14l-94 -441l190 -41q23 -5 40 -5zM459 28q0 -35 -22 -61
t-60 -26q-19 0 -36 4l-141 29l38 178l100 -20q65 -13 93 -38.5t28 -65.5zM486 236q-10 -28 -31 -45t-61 -17q-22 0 -50 6l-96 21l35 166q112 -20 159.5 -44.5t47.5 -62.5q0 -13 -4 -24z" />
    <glyph glyph-name="C.2" unicode="&#xe0b6;" horiz-adv-x="614" 
d="M501 657l110 -563l-504 -100l-109 564zM442 284q-5 -56 -38 -80.5t-73 -24.5q-27 0 -51 14t-42 38t-28.5 57t-10.5 71q0 28 8 53t23.5 43.5t37.5 29t51 10.5q28 0 48.5 -16t29.5 -47l61 24q-17 53 -55 79t-85 26q-43 0 -77 -16t-57.5 -43.5t-36 -63.5t-12.5 -76t12 -84
t36 -81t60.5 -61t85.5 -24q36 0 66.5 11t53 32t35.5 51.5t15 69.5z" />
    <glyph glyph-name="D.2" unicode="&#xe0b7;" horiz-adv-x="487" 
d="M473 397l39 -487l-477 -39l-39 486zM419 137q0 43 -11 77.5t-33.5 59.5t-57.5 38.5t-83 13.5q-26 0 -54 -3q-24 -3 -40.5 -4.5t-28.5 -2.5t-21 -1.5t-18 -1.5l2 -37l48 4l27 -321q57 0 108 6q35 4 64.5 17t51.5 35t34 52t12 68zM238 290q66 0 105.5 -40.5t39.5 -112.5
q0 -76 -50 -108t-151 -32l-24 287l50 5q8 1 15 1h15z" />
    <glyph glyph-name="E.2" unicode="&#xe0b8;" horiz-adv-x="548" 
d="M554 552l-60 -555l-447 48l58 555zM472 480l-316 33l-6 -58l54 -7l-40 -360l271 -30l7 59l-212 24l13 130l198 -22l6 59l-196 22l12 113l203 -22z" />
    <glyph glyph-name="F.2" unicode="&#xe0b9;" horiz-adv-x="612" 
d="M567 -153l-528 26l28 575l529 -26zM462 102l4 68l-190 8l6 106l195 -10l4 67l-316 16l-4 -66l54 -3l-18 -370l67 -1l9 195z" />
    <glyph glyph-name="G.2" unicode="&#xe0ba;" horiz-adv-x="567" 
d="M500 -56l-518 38l49 674l518 -38zM413 283q0 38 -15.5 59t-56.5 24l-132 9l-3 -41l132 -9q19 -2 26 -12t7 -27l-7 -102q-15 -8 -32 -11t-38 -3q-81 0 -126.5 41t-45.5 123q0 40 11 74t30 59t45 39t56 14q48 0 79 -22.5t36 -68.5l39 6q-6 61 -47.5 94t-99.5 33
q-41 0 -75.5 -17.5t-60.5 -48.5t-40.5 -72t-14.5 -87q0 -49 16 -88t44.5 -66.5t66 -42t81.5 -14.5q21 0 41 3t32 11q-4 -29 -14 -41t-42 -12l-167 12l-3 -41l181 -13q25 0 41 7.5t26 22t14.5 35.5t6.5 47z" />
    <glyph glyph-name="H.2" unicode="&#xe0bb;" horiz-adv-x="582" 
d="M546 589l5 -606l-520 -6l-8 607zM457 498l-61 -2l4 -152l-169 -3l-2 153l-101 -3l-1 -58l43 1l3 -322l60 -2l-3 173l169 3l2 -174l60 1z" />
    <glyph glyph-name="I.2" unicode="&#xe0bc;" horiz-adv-x="406" 
d="M343 -173l-292 22l53 678l291 -24zM238 -67l39 483l-106 10l-5 -50l58 -3l-35 -436z" />
    <glyph glyph-name="J.2" unicode="&#xe0bd;" horiz-adv-x="525" 
d="M535 53l-439 -61l-93 661l428 61zM258 592l10 -69l60 8l42 -263q1 -7 1.5 -13t0.5 -12q0 -41 -20 -64t-55 -23q-26 0 -47.5 20t-32.5 68l-62 -26q16 -68 56 -101t89 -33q32 0 58 12.5t45 34.5t29 51.5t10 64.5v16.5t-2 17.5l-53 333z" />
    <glyph glyph-name="K.2" unicode="&#xe0be;" horiz-adv-x="684" 
d="M544 -226l-534 144l169 627l525 -142zM525 -128l12 50l-94 25q-23 6 -35 29.5t-12 52.5q0 26 5.5 64t5.5 70q0 42 -16.5 62.5t-49.5 27.5l-15 3l196 101l-26 49l-218 -111l38 144l-94 26l-15 -53l49 -13l-94 -348l51 -14l49 183l50 -13q22 -6 32.5 -19t10.5 -42
q0 -34 -6 -68.5t-6 -60.5q0 -57 20 -84t67 -39z" />
    <glyph glyph-name="L.2" unicode="&#xe0bf;" horiz-adv-x="451" 
d="M391 -106l-396 38l50 513l395 -38zM318 -18l5 52l-167 16l29 295l-89 8l-5 -52l36 -4l-28 -294z" />
    <glyph glyph-name="M.2" unicode="&#xe0c0;" horiz-adv-x="742" 
d="M666 -162l-693 108l110 706l681 -105zM601 -32l72 462l-74 12l-221 -358l-110 405l-125 15l-5 -47l52 -6l-64 -418l40 -6l65 417l131 -476l265 419l-64 -414z" />
    <glyph glyph-name="N.2" unicode="&#xe0c1;" horiz-adv-x="510" 
d="M491 -121l-413 -50l-65 527l414 50zM430 -47l-44 364l-51 -7l34 -274l-205 253l-89 -10l6 -52l33 4l38 -312l52 7l-34 275l204 -255z" />
    <glyph glyph-name="O.2" unicode="&#xe0c2;" horiz-adv-x="582" 
d="M501 594l66 -552l-498 -59l-66 550zM476 281q0 40 -12.5 81t-36.5 74.5t-60 54.5t-84 21q-42 0 -76.5 -16t-59.5 -43.5t-38.5 -65.5t-13.5 -81q0 -51 15 -94.5t41 -75t61.5 -49.5t76.5 -18q42 0 76.5 16t59 44.5t38 67.5t13.5 84zM279 451q31 0 56.5 -14t43 -37.5t27 -53
t9.5 -60.5q0 -27 -7 -54.5t-22.5 -50.5t-40 -37.5t-58.5 -14.5q-28 0 -52 14t-41.5 37.5t-27.5 55.5t-10 68q0 31 8.5 58t24.5 47t39 31t51 11z" />
    <glyph glyph-name="P.2" unicode="&#xe0c3;" horiz-adv-x="550" 
d="M262 79q31 0 62 4.5t56 18t41 38t16 65.5q0 42 -22 66.5t-56 37.5t-76 16.5t-81 3.5q-21 0 -40.5 -0.5t-35.5 -0.5l-2 -61l33 -2l-7 -346h61l5 161q12 -1 23.5 -1h22.5zM375 204q0 -21 -8.5 -33.5t-23 -19.5t-32.5 -9.5t-37 -2.5q-12 0 -26 0.5t-31 1.5l3 125
q80 0 117.5 -10.5t37.5 -51.5zM503 -151l-458 9l11 517l458 -10z" />
    <glyph glyph-name="Q.2" unicode="&#xe0c4;" horiz-adv-x="916" 
d="M649 -111q-20 -4 -38 -5.5t-33 -1.5q-34 0 -56.5 7t-37.5 19.5t-23 29t-13 34.5q45 35 68.5 91t23.5 123q0 55 -15.5 102t-44 82t-69.5 55t-91 20q-51 0 -91.5 -20t-69.5 -54.5t-44.5 -81t-15.5 -100.5q0 -57 16.5 -105t45.5 -82.5t69 -53.5t87 -19q48 0 90 19
q11 -34 26 -56t35 -34.5t45.5 -17t57.5 -4.5q17 0 37 1t43 3zM439 36q-5 60 -13 96t-26.5 55t-52 24.5t-89.5 5.5h-28t-29 -1v-49q22 1 40 1h32q51 0 65 -3q18 -3 27.5 -21.5t14.5 -43t7.5 -52t6.5 -49.5q-19 -11 -40 -16t-41 -5q-37 0 -67.5 17t-52 45.5t-33.5 67t-12 82.5
q0 42 12 79.5t34 66t53 45t70 16.5q40 0 72 -16.5t55 -45.5t35.5 -68t12.5 -83q0 -89 -53 -148zM713 517l9 -737l-673 -9l-8 738z" />
    <glyph glyph-name="R.2" unicode="&#xe0c5;" horiz-adv-x="703" 
d="M697 -103l-586 -99l-107 629l586 99zM542 -72q18 3 30.5 5t21.5 3.5t16 3t16 3.5l-7 40q-16 -4 -33 -7t-47 -8q-5 -1 -9 -1.5t-9 -0.5q-29 0 -51 20t-32 57q-5 20 -10 43.5t-13.5 45t-21.5 38.5t-34 25q25 14 37 36.5t12 49.5q0 53 -30 78t-78 25q-11 0 -22 -1t-23 -3
q-45 -8 -72.5 -12.5t-45.5 -7.5t-31 -5.5t-28 -5.5l7 -39l42 7l61 -359l39 7l-31 182l107 18q5 1 14 1q23 0 36.5 -13t22 -33t13.5 -44t12 -46q15 -51 46 -77.5t72 -26.5q6 0 11.5 0.5t11.5 1.5zM301 344q27 0 46.5 -16.5t19.5 -49.5q0 -61 -98 -78q-18 -3 -29.5 -5
t-20 -3.5t-15 -2.5t-15.5 -2l-22 136q32 6 68 13.5t66 7.5z" />
    <glyph glyph-name="S.2" unicode="&#xe0c6;" horiz-adv-x="472" 
d="M386 474l71 -548l-399 -52l-71 548zM318 303q-12 42 -35.5 59.5t-58.5 17.5q-62 0 -99.5 -27.5t-37.5 -74.5q0 -35 14 -54t36 -28q15 -7 33 -10t36 -5.5t35 -5t31 -8.5q17 -7 28 -19.5t11 -35.5q0 -17 -8 -30t-21 -22t-29.5 -14t-32.5 -5q-32 0 -55.5 17t-30.5 49
l-34 -10q13 -44 41.5 -68t72.5 -24q28 0 52 8.5t42 23t28.5 34t10.5 42.5q0 40 -18.5 59.5t-46.5 27.5q-16 5 -33 7.5t-34 4.5t-33 5t-28 8q-15 7 -24 18.5t-9 31.5q0 24 24 46.5t74 22.5q52 0 67 -54z" />
    <glyph glyph-name="T.2" unicode="&#xe0c7;" horiz-adv-x="558" 
d="M507 -176l-470 11l14 618l470 -11zM434 234l2 75l-303 7l-2 -75l116 -3l-8 -320l76 -1l7 319z" />
    <glyph glyph-name="U.2" unicode="&#xe0c8;" horiz-adv-x="612" 
d="M-7 102l76 583l545 -72l-77 -582zM517 566l-48 6l-40 -306q-7 -53 -41 -85t-84 -32q-61 0 -95.5 37.5t-34.5 92.5q0 6 0.5 11.5t1.5 11.5l39 303l-95 13l-6 -49l49 -6l-34 -255q-1 -7 -1.5 -13.5t-0.5 -13.5q0 -35 12 -67.5t34.5 -57.5t54.5 -40t72 -15q32 0 62 11.5
t54 32t40 50t21 65.5z" />
    <glyph glyph-name="V.2" unicode="&#xe0c9;" horiz-adv-x="571" 
d="M561 139l-482 -51l-54 512l482 50zM448 564l-51 11l-74 -344l-148 313l-81 -10l6 -49l41 4l156 -322l63 7z" />
    <glyph glyph-name="W.2" unicode="&#xe0ca;" horiz-adv-x="852" 
d="M801 -191l-773 24l22 731l772 -20zM734 405l-42 14l-111 -379l-108 370l-54 1l-128 -365l-88 381l-82 3v-44l48 -1l89 -384l64 -1l122 354l106 -361l60 -2z" />
    <glyph glyph-name="X.2" unicode="&#xe0cb;" horiz-adv-x="553" 
d="M471 417l57 -566l-466 -46l-56 565zM393 247l-56 32l-77 -132l-92 102l-73 -8l8 -63l39 5l84 -95l-93 -157l57 -30l81 138l107 -120l48 42l-122 136z" />
    <glyph glyph-name="Y.2" unicode="&#xe0cc;" horiz-adv-x="612" 
d="M564 -139l-529 3l5 544l529 -2zM476 301l-34 23l-133 -192l-120 186l-68 3v-41h46l121 -189l-2 -172h39l2 170z" />
    <glyph glyph-name="Z.2" unicode="&#xe0cd;" horiz-adv-x="618" 
d="M612 -110l-482 -85l-121 685l481 86zM546 -58l-12 78l-254 -45l189 409l-12 70l-355 -63l14 -78l252 44l-188 -407l12 -70z" />
    <glyph glyph-name="a.2" unicode="&#xe0ce;" horiz-adv-x="446" 
d="M470 -166l-373 -42l-89 592l397 46l43 -408q-27 0 -35 35q-10 44 -16.5 81.5t-12.5 65.5q-9 37 -20 61.5t-25.5 39t-32 20.5t-38.5 6q-66 0 -102.5 -31.5t-47.5 -97.5l49 -7q15 86 98 86q27 0 41.5 -18t25.5 -70q-44 -5 -82 -14.5t-65.5 -26t-43.5 -40.5t-16 -57
q0 -17 4.5 -35t16.5 -33t33 -24.5t55 -9.5q59 0 96 18t51 42q5 -21 25 -31.5t40 -10.5q2 0 4 0.5t4 0.5zM361 58q-11 -25 -37 -43t-78 -18q-37 0 -52.5 17t-15.5 43q0 16 5.5 30t23 25.5t49.5 20.5t86 17z" />
    <glyph glyph-name="b.2" unicode="&#xe0cf;" horiz-adv-x="542" 
d="M492 -191l-461 11l15 692l463 -11zM285 -116q34 0 61 15.5t46 41t29 58t10 67.5q0 80 -39 123.5t-99 43.5q-58 0 -100 -47l5 184h-94v-48l46 -1q-1 -56 -2 -114.5t-3 -114.5t-4.5 -106.5t-5.5 -90.5l47 -4l5 42q39 -49 98 -49zM385 63q0 -21 -6 -44t-18 -42t-31 -31.5
t-45 -12.5q-38 0 -62.5 34t-24.5 91q0 60 26 93t65 33q41 0 68.5 -31t27.5 -90z" />
    <glyph glyph-name="c.2" unicode="&#xe0d0;" horiz-adv-x="449" 
d="M405 553v-579h-376v584zM372 299q-12 59 -48 95t-95 36q-36 0 -65.5 -15.5t-50.5 -42t-32.5 -61t-11.5 -71.5q0 -50 12.5 -86.5t33.5 -61t49.5 -36.5t60.5 -12q58 0 95.5 36t48.5 94l-50 12q-21 -92 -92 -92q-21 0 -40 8.5t-34 26t-24 44.5t-9 65q0 26 7.5 51t22 45
t35 32.5t47.5 12.5q74 0 89 -90z" />
    <glyph glyph-name="d.2" unicode="&#xe0d1;" horiz-adv-x="510" 
d="M484 -25q-17 -2 -26.5 -2.5t-13.5 -0.5q-36 0 -48.5 16.5t-15.5 48.5l-31 323l-93 -9l6 -62l30 3l7 -66q-31 17 -58 17q-29 0 -52 -12t-39 -32t-25 -46.5t-9 -54.5q0 -38 10 -68.5t26.5 -52t39 -33t46.5 -11.5q25 0 49.5 12t40.5 32q13 -40 37.5 -54.5t71.5 -14.5
q12 0 24 1t29 4l8 -87l-431 -39l-57 638l431 39zM238 179q18 0 30.5 -9.5t21 -24t12 -32t3.5 -33.5q0 -81 -65 -81q-26 0 -43.5 25t-17.5 76q0 33 15 56t44 23z" />
    <glyph glyph-name="e.2" unicode="&#xe0d2;" horiz-adv-x="529" 
d="M499 349v-546h-472v540zM438 43q0 44 -7.5 84t-26.5 70.5t-50 48.5t-77 18q-39 0 -71 -13.5t-55 -38.5t-35.5 -60t-12.5 -77t11.5 -77.5t32.5 -61t49.5 -39.5t63.5 -14q69 0 110 35t61 92h-110q-5 -12 -18.5 -18t-29.5 -6q-22 0 -41 13t-22 41zM223 132q5 15 18 23.5
t27 8.5t28 -7.5t19 -23.5z" />
    <glyph glyph-name="f.2" unicode="&#xe0d3;" horiz-adv-x="464" 
d="M458 -137l-396 -35l-60 679l383 34zM315 424q-17 3 -36 3q-36 0 -59 -7t-35.5 -19t-17.5 -28t-5 -35v-15t1 -13l4 -40l-50 -5l7 -76l55 5l25 -284l74 6l-26 287l76 7l-7 78l-77 -10l-4 40q-2 17 7 24t32 7q10 0 17.5 -0.5t12.5 -1.5z" />
    <glyph glyph-name="g.2" unicode="&#xe0d4;" horiz-adv-x="598" 
d="M567 -166h-525v859h536zM496 97q7 65 6 162t4 228l-64 5l-4 -58q-26 32 -60.5 49.5t-75.5 17.5q-42 0 -78 -17.5t-62.5 -50t-41.5 -79t-15 -104.5q0 -41 10.5 -79t33 -67t58 -46t85.5 -17q53 0 89.5 22t49.5 49q-5 -48 -20 -78.5t-38 -48t-54 -24t-67 -6.5q-22 0 -46 1.5
t-46 4.5l-1 -65l50 -4t51 -2q42 0 81.5 8t71.5 30.5t54 63t29 105.5zM299 435q31 0 55 -12.5t41 -33.5t26 -49t9 -59q0 -28 -6.5 -59t-22 -57.5t-40.5 -43.5t-62 -17q-28 0 -51.5 11t-41 30.5t-27 47.5t-9.5 63q0 42 10 75t27.5 56t41 35.5t50.5 12.5z" />
    <glyph glyph-name="h.2" unicode="&#xe0d5;" horiz-adv-x="464" 
d="M415 608l51 -567l-401 -36l-51 575zM347 282q-4 51 -30 80t-72 29q-31 0 -50 -10t-33 -24l-13 140l-84 -8l6 -57l21 1l31 -357l60 5l-17 205q8 22 24 33t45 11q24 0 37.5 -12t15.5 -41l14 -188l58 5z" />
    <glyph glyph-name="i.2" unicode="&#xe0d6;" horiz-adv-x="356" 
d="M349 445l-70 -658l-269 28l70 658zM251 340l-71 7l-9 -85l72 -7zM238 211l-103 11l-8 -71l33 -3l-28 -264l71 -7z" />
    <glyph glyph-name="j.2" unicode="&#xe0d7;" horiz-adv-x="476" 
d="M410 526l10 -738l-376 -6l-10 738zM344 292l-102 -1l1 -70h32l2 -203q0 -23 -6.5 -38.5t-18 -24.5t-28 -13t-35.5 -5q-23 -2 -45 -2t-45 1v-70q20 -1 41.5 -1t52.5 2q33 2 61.5 10t49 25.5t32 45.5t11.5 70zM342 419l-70 -1l2 -85l70 1z" />
    <glyph glyph-name="k.2" unicode="&#xe0d8;" horiz-adv-x="567" 
d="M554 628l-55 -566l-471 46l56 574zM443 116l-178 183l143 87l-36 55l-134 -92l25 207l-98 9l-7 -61l27 -3l-35 -352l65 -7l10 104l114 -119z" />
    <glyph glyph-name="l.2" unicode="&#xe0d9;" horiz-adv-x="372" 
d="M315 -128l-298 18l42 673l298 -18zM229 -18l28 438l-96 6l-4 -63l32 -1l-22 -377z" />
    <glyph glyph-name="m.2" unicode="&#xe0da;" horiz-adv-x="689" 
d="M681 533l-45 -417l-619 66l45 418zM558 337q1 5 1 9.5v9.5q0 52 -29 80t-77 28q-43 0 -77 -34q-10 25 -28.5 38t-42.5 13q-34 0 -58 -25l2 25l-97 11l-7 -75l29 -4l-21 -192l73 -10l21 164q4 14 16 22.5t29 8.5q23 0 32 -11.5t9 -28.5q0 -2 -0.5 -5t-0.5 -6l-18 -154
l73 -6l18 155q5 40 42 40q19 0 28 -10.5t9 -25.5l-20 -185l75 -8z" />
    <glyph glyph-name="n.2" unicode="&#xe0db;" horiz-adv-x="553" 
d="M538 489l-26 -468l-488 26l25 467zM153 444l-5 -74l42 -3l-21 -249l74 -4l19 216q11 38 65 38q55 0 55 -56l-16 -227l76 -4l16 220q0 141 -125 141q-23 0 -47.5 -8t-40.5 -20v24z" />
    <glyph glyph-name="o.2" unicode="&#xe0dc;" horiz-adv-x="461" 
d="M356 56q0 66 -30.5 105t-96.5 39q-59 0 -93.5 -39t-34.5 -106q0 -27 7.5 -52.5t23.5 -45t40 -31.5t56 -12q57 0 92.5 36t35.5 106zM236 131q15 -1 25 -8.5t16.5 -19t9 -25t2.5 -26.5q0 -36 -15.5 -53t-42.5 -17q-26 0 -43.5 20.5t-17.5 53.5q0 38 18.5 56.5t47.5 18.5z
M430 -152l-393 -9l-9 477l392 8z" />
    <glyph glyph-name="p.2" unicode="&#xe0dd;" horiz-adv-x="536" 
d="M470 377l65 -536l-438 -53l-66 543zM446 128q0 30 -8 61.5t-25 58t-43 43.5t-63 17q-33 0 -56.5 -12t-39.5 -34l-3 31l-102 -10l11 -85l30 3l39 -342l85 9l-16 126q29 -20 65 -20q28 0 51 11.5t39.5 32t26 49t9.5 61.5zM304 223q15 0 26 -9t18 -22.5t10.5 -29.5t3.5 -31
q0 -34 -14.5 -54.5t-36.5 -20.5q-28 0 -45 24.5t-17 66.5q0 32 14 54t41 22z" />
    <glyph glyph-name="q.2" unicode="&#xe0de;" horiz-adv-x="749" 
d="M624 -196l-613 94l129 826l614 -95zM652 433l14 91l-136 22l-6 -41q-28 36 -67 53.5t-81 17.5q-47 0 -84.5 -21t-64 -59t-41 -90.5t-14.5 -115.5q0 -51 13 -88.5t36.5 -62t55 -36t68.5 -11.5q38 0 65.5 14t44.5 34l-29 -216l92 -14l83 531zM487 358q0 -27 -6 -58
t-20.5 -57.5t-38 -44t-58.5 -17.5q-51 0 -75 30t-24 84q0 25 4.5 57t16.5 61t33.5 49t55.5 20q53 0 82.5 -30.5t29.5 -93.5z" />
    <glyph glyph-name="r.2" unicode="&#xe0df;" horiz-adv-x="427" 
d="M413 353l-79 -543l-318 46l80 550zM386 271q-28 13 -76 13q-26 0 -50 -7t-41 -24l6 43l-94 14l-9 -59l43 -7l-52 -331l66 -9l42 255q11 63 88 63q17 0 36.5 -4.5t25.5 -7.5z" />
    <glyph glyph-name="s.2" unicode="&#xe0e0;" horiz-adv-x="418" 
d="M306 -90l-297 59l107 536l289 -58zM283 91q1 5 1.5 9t0.5 9q-1 24 -14 43.5t-39 31.5q-19 9 -32.5 15t-13.5 14q0 6 4.5 12.5t15.5 6.5q19 0 25 -9t6 -23l60 -14q4 16 4 33q0 36 -25.5 60t-70.5 24q-35 0 -59 -25.5t-24 -68.5q0 -30 16 -46.5t34.5 -27t34.5 -19t16 -22.5
q0 -20 -24 -20q-22 0 -32.5 10.5t-12.5 30.5l-58 9q-1 -5 -1 -8.5v-8.5q0 -45 29 -72.5t72 -27.5q32 0 55.5 21t31.5 63z" />
    <glyph glyph-name="t.2" unicode="&#xe0e1;" horiz-adv-x="442" 
d="M415 665l-5 -764l-402 1l4 764zM360 511l-107 1v94h-94l1 -95l-86 1l-2 -94h87l-3 -259q-1 -59 31 -84.5t83 -22.5q16 1 33 3.5t36 8.5l-10 94q-4 -3 -12.5 -6t-18.5 -3q-16 -1 -30.5 5t-14.5 24v240l107 -3v96z" />
    <glyph glyph-name="u.2" unicode="&#xe0e2;" horiz-adv-x="566" 
d="M551 -124l-450 -70l-75 486l450 70zM487 -67l-11 78l-36 -6l-40 261l-79 -14l28 -181q6 -38 -8.5 -65.5t-53.5 -31.5q-57 -6 -69 61l-34 223l-76 -12l35 -230q12 -72 50.5 -99t95.5 -21q31 3 57.5 17t39.5 37l4 -31z" />
    <glyph glyph-name="v.2" unicode="&#xe0e3;" horiz-adv-x="457" 
d="M372 -206l-355 56l80 508l355 -56zM416 190l-53 27l-122 -222l-55 244l-80 13l-9 -57l39 -6l62 -262l56 -8z" />
    <glyph glyph-name="w.2" unicode="&#xe0e4;" horiz-adv-x="579" 
d="M547 292l7 -463l-515 -8l-7 463zM531 142l-59 20l-65 -193l-65 173l-59 -2l-59 -178l-70 183l-82 1l1 -60l39 1l85 -220l55 1l62 181l66 -179l52 1z" />
    <glyph glyph-name="x.2" unicode="&#xe0e5;" horiz-adv-x="520" 
d="M499 -113l-459 -10l-12 526l460 9zM422 -9l-124 153l111 153l-39 29l-104 -143l-105 128l-76 -2v-49l54 2l92 -111l-117 -159l39 -30l110 150l122 -151z" />
    <glyph glyph-name="y.2" unicode="&#xe0e6;" horiz-adv-x="520" 
d="M510 48l-399 -79l-98 492l390 79zM384 452l-58 10l-37 -231l-129 186l-80 -19l14 -58l41 11l140 -200l-17 -101l58 -9z" />
    <glyph glyph-name="z.2" unicode="&#xe0e7;" horiz-adv-x="410" 
d="M314 -174l-292 49l78 461l291 -49zM292 -93l10 59l-143 24l174 160l9 51l-223 38l-10 -58l143 -24l-174 -162l-9 -50z" />
    <glyph glyph-name="space.1" unicode="&#xe0e8;" horiz-adv-x="431" 
 />
    <glyph glyph-name="space.2" unicode="&#xe0e9;" horiz-adv-x="431" 
 />
  </font>
</defs>
</svg>
